STARTFONT 2.1
FONT -FontForge-Open Sans-Bold-R-Normal-Sans--11-110-72-72-P-68-ISO10646-1
SIZE 11 72 72
FONTBOUNDINGBOX 21 16 -6 -3
COMMENT "Generated by fontforge, http://fontforge.sourceforge.net"
COMMENT "Digitized data copyright (c) 2010-2011, Google Corporation."
STARTPROPERTIES 40
FOUNDRY "FontForge"
FAMILY_NAME "Open Sans"
WEIGHT_NAME "Bold"
SLANT "R"
SETWIDTH_NAME "Normal"
ADD_STYLE_NAME "Sans"
PIXEL_SIZE 11
POINT_SIZE 110
RESOLUTION_X 72
RESOLUTION_Y 72
SPACING "P"
AVERAGE_WIDTH 68
CHARSET_REGISTRY "ISO10646"
CHARSET_ENCODING "1"
FONTNAME_REGISTRY ""
CHARSET_COLLECTIONS "ISO8859-2 ISO8859-5 ISO8859-7 ISO8859-9 ISO8859-4 ISO10646-1"
FONT_NAME "OpenSans-Bold"
FACE_NAME "Open Sans Bold"
COPYRIGHT "Digitized data copyright (c) 2010-2011, Google Corporation."
FONT_VERSION "1.10"
FONT_ASCENT 9
FONT_DESCENT 2
UNDERLINE_POSITION -1
UNDERLINE_THICKNESS 1
X_HEIGHT 5
CAP_HEIGHT 7
RAW_ASCENT 799
RAW_DESCENT 200
NORM_SPACE 3
RELATIVE_WEIGHT 70
RELATIVE_SETWIDTH 50
SUPERSCRIPT_X 0
SUPERSCRIPT_Y 5
SUPERSCRIPT_SIZE 7
SUBSCRIPT_X 0
SUBSCRIPT_Y 1
SUBSCRIPT_SIZE 7
FIGURE_WIDTH 6
AVG_LOWERCASE_WIDTH 68
AVG_UPPERCASE_WIDTH 78
ENDPROPERTIES
CHARS 938
STARTCHAR space
ENCODING 32
SWIDTH 259 0
DWIDTH 3 0
BBX 1 1 0 0
BITMAP
00
ENDCHAR
STARTCHAR exclam
ENCODING 33
SWIDTH 286 0
DWIDTH 3 0
BBX 1 8 1 0
BITMAP
80
80
80
80
80
00
80
80
ENDCHAR
STARTCHAR quotedbl
ENCODING 34
SWIDTH 472 0
DWIDTH 5 0
BBX 3 3 1 5
BITMAP
A0
A0
A0
ENDCHAR
STARTCHAR numbersign
ENCODING 35
SWIDTH 645 0
DWIDTH 7 0
BBX 7 8 0 0
BITMAP
34
2C
7E
28
28
FC
68
58
ENDCHAR
STARTCHAR dollar
ENCODING 36
SWIDTH 570 0
DWIDTH 6 0
BBX 6 9 0 -1
BITMAP
10
78
D0
60
78
1C
9C
F8
10
ENDCHAR
STARTCHAR percent
ENCODING 37
SWIDTH 900 0
DWIDTH 10 0
BBX 10 8 0 0
BITMAP
6300
D200
D400
D780
6AC0
0AC0
12C0
3180
ENDCHAR
STARTCHAR ampersand
ENCODING 38
SWIDTH 750 0
DWIDTH 8 0
BBX 8 8 0 0
BITMAP
38
68
68
38
73
DE
4C
7E
ENDCHAR
STARTCHAR quotesingle
ENCODING 39
SWIDTH 266 0
DWIDTH 3 0
BBX 1 3 1 5
BITMAP
80
80
80
ENDCHAR
STARTCHAR parenleft
ENCODING 40
SWIDTH 338 0
DWIDTH 4 0
BBX 2 10 1 -2
BITMAP
40
C0
80
80
80
80
80
80
C0
40
ENDCHAR
STARTCHAR parenright
ENCODING 41
SWIDTH 338 0
DWIDTH 4 0
BBX 2 10 1 -2
BITMAP
80
C0
40
40
40
40
40
40
C0
80
ENDCHAR
STARTCHAR asterisk
ENCODING 42
SWIDTH 544 0
DWIDTH 6 0
BBX 6 5 0 3
BITMAP
30
34
FC
30
48
ENDCHAR
STARTCHAR plus
ENCODING 43
SWIDTH 570 0
DWIDTH 6 0
BBX 6 5 0 1
BITMAP
30
30
FC
30
30
ENDCHAR
STARTCHAR comma
ENCODING 44
SWIDTH 290 0
DWIDTH 3 0
BBX 2 3 0 -2
BITMAP
40
40
C0
ENDCHAR
STARTCHAR hyphen
ENCODING 45
SWIDTH 321 0
DWIDTH 4 0
BBX 4 1 0 3
BITMAP
F0
ENDCHAR
STARTCHAR period
ENCODING 46
SWIDTH 285 0
DWIDTH 3 0
BBX 1 2 1 0
BITMAP
80
80
ENDCHAR
STARTCHAR slash
ENCODING 47
SWIDTH 413 0
DWIDTH 5 0
BBX 5 8 0 0
BITMAP
18
10
30
20
20
60
40
C0
ENDCHAR
STARTCHAR zero
ENCODING 48
SWIDTH 570 0
DWIDTH 6 0
BBX 6 8 0 0
BITMAP
78
48
CC
CC
CC
CC
48
78
ENDCHAR
STARTCHAR one
ENCODING 49
SWIDTH 570 0
DWIDTH 6 0
BBX 3 8 1 0
BITMAP
60
E0
A0
20
20
20
20
20
ENDCHAR
STARTCHAR two
ENCODING 50
SWIDTH 570 0
DWIDTH 6 0
BBX 6 8 0 0
BITMAP
78
48
08
18
18
30
60
FC
ENDCHAR
STARTCHAR three
ENCODING 51
SWIDTH 570 0
DWIDTH 6 0
BBX 6 8 0 0
BITMAP
78
08
08
30
08
0C
08
F8
ENDCHAR
STARTCHAR four
ENCODING 52
SWIDTH 570 0
DWIDTH 6 0
BBX 6 8 0 0
BITMAP
18
18
38
78
58
FC
18
18
ENDCHAR
STARTCHAR five
ENCODING 53
SWIDTH 570 0
DWIDTH 6 0
BBX 5 8 1 0
BITMAP
F0
80
80
F0
10
18
10
F0
ENDCHAR
STARTCHAR six
ENCODING 54
SWIDTH 570 0
DWIDTH 6 0
BBX 6 8 0 0
BITMAP
38
60
40
F8
CC
CC
48
38
ENDCHAR
STARTCHAR seven
ENCODING 55
SWIDTH 570 0
DWIDTH 6 0
BBX 6 8 0 0
BITMAP
FC
08
18
18
10
30
20
60
ENDCHAR
STARTCHAR eight
ENCODING 56
SWIDTH 570 0
DWIDTH 6 0
BBX 6 8 0 0
BITMAP
78
48
48
78
78
CC
CC
78
ENDCHAR
STARTCHAR nine
ENCODING 57
SWIDTH 570 0
DWIDTH 6 0
BBX 6 8 0 0
BITMAP
70
48
CC
CC
7C
08
18
70
ENDCHAR
STARTCHAR colon
ENCODING 58
SWIDTH 285 0
DWIDTH 3 0
BBX 1 6 1 0
BITMAP
80
80
00
00
80
80
ENDCHAR
STARTCHAR semicolon
ENCODING 59
SWIDTH 290 0
DWIDTH 3 0
BBX 2 8 0 -2
BITMAP
40
40
00
00
00
40
40
C0
ENDCHAR
STARTCHAR less
ENCODING 60
SWIDTH 570 0
DWIDTH 6 0
BBX 5 6 1 1
BITMAP
08
30
C0
C0
38
08
ENDCHAR
STARTCHAR equal
ENCODING 61
SWIDTH 570 0
DWIDTH 6 0
BBX 6 3 0 3
BITMAP
FC
00
FC
ENDCHAR
STARTCHAR greater
ENCODING 62
SWIDTH 570 0
DWIDTH 6 0
BBX 5 6 0 1
BITMAP
80
60
18
18
E0
80
ENDCHAR
STARTCHAR question
ENCODING 63
SWIDTH 477 0
DWIDTH 5 0
BBX 5 8 0 0
BITMAP
F0
18
18
30
60
00
60
60
ENDCHAR
STARTCHAR at
ENCODING 64
SWIDTH 896 0
DWIDTH 10 0
BBX 8 9 1 -1
BITMAP
3C
43
9D
A5
A5
A5
BF
C2
3E
ENDCHAR
STARTCHAR A
ENCODING 65
SWIDTH 689 0
DWIDTH 8 0
BBX 8 8 0 0
BITMAP
18
3C
3C
24
66
7E
42
C3
ENDCHAR
STARTCHAR B
ENCODING 66
SWIDTH 671 0
DWIDTH 7 0
BBX 5 8 1 0
BITMAP
F8
D8
D8
F0
D8
C8
D8
F0
ENDCHAR
STARTCHAR C
ENCODING 67
SWIDTH 637 0
DWIDTH 7 0
BBX 6 8 1 0
BITMAP
7C
C0
C0
80
80
C0
C0
78
ENDCHAR
STARTCHAR D
ENCODING 68
SWIDTH 740 0
DWIDTH 8 0
BBX 6 8 1 0
BITMAP
F8
CC
CC
C4
C4
CC
CC
F8
ENDCHAR
STARTCHAR E
ENCODING 69
SWIDTH 560 0
DWIDTH 6 0
BBX 4 8 1 0
BITMAP
F0
C0
C0
F0
C0
C0
C0
F0
ENDCHAR
STARTCHAR F
ENCODING 70
SWIDTH 548 0
DWIDTH 6 0
BBX 4 8 1 0
BITMAP
F0
C0
C0
F0
C0
C0
C0
C0
ENDCHAR
STARTCHAR G
ENCODING 71
SWIDTH 724 0
DWIDTH 8 0
BBX 6 8 1 0
BITMAP
7C
C0
C0
80
9C
CC
CC
7C
ENDCHAR
STARTCHAR H
ENCODING 72
SWIDTH 765 0
DWIDTH 8 0
BBX 6 8 1 0
BITMAP
CC
CC
CC
FC
CC
CC
CC
CC
ENDCHAR
STARTCHAR I
ENCODING 73
SWIDTH 331 0
DWIDTH 4 0
BBX 2 8 1 0
BITMAP
C0
C0
C0
C0
C0
C0
C0
C0
ENDCHAR
STARTCHAR J
ENCODING 74
SWIDTH 331 0
DWIDTH 4 0
BBX 4 10 -1 -2
BITMAP
30
30
30
30
30
30
30
30
20
E0
ENDCHAR
STARTCHAR K
ENCODING 75
SWIDTH 664 0
DWIDTH 7 0
BBX 6 8 1 0
BITMAP
CC
D8
F0
F0
F0
D8
D8
CC
ENDCHAR
STARTCHAR L
ENCODING 76
SWIDTH 564 0
DWIDTH 6 0
BBX 5 8 1 0
BITMAP
C0
C0
C0
C0
C0
C0
C0
F8
ENDCHAR
STARTCHAR M
ENCODING 77
SWIDTH 942 0
DWIDTH 10 0
BBX 8 8 1 0
BITMAP
C3
E7
A7
A7
AF
BB
9B
9B
ENDCHAR
STARTCHAR N
ENCODING 78
SWIDTH 812 0
DWIDTH 9 0
BBX 7 8 1 0
BITMAP
C2
E2
B2
B2
9A
9A
8E
86
ENDCHAR
STARTCHAR O
ENCODING 79
SWIDTH 795 0
DWIDTH 9 0
BBX 7 8 1 0
BITMAP
7C
C6
C6
82
82
C6
C6
7C
ENDCHAR
STARTCHAR P
ENCODING 80
SWIDTH 627 0
DWIDTH 7 0
BBX 5 8 1 0
BITMAP
F8
C8
C8
C8
F0
C0
C0
C0
ENDCHAR
STARTCHAR Q
ENCODING 81
SWIDTH 795 0
DWIDTH 9 0
BBX 7 10 1 -2
BITMAP
7C
C6
C6
82
82
C6
C6
7C
0C
06
ENDCHAR
STARTCHAR R
ENCODING 82
SWIDTH 660 0
DWIDTH 7 0
BBX 6 8 1 0
BITMAP
F0
D8
C8
D8
F0
D0
D8
CC
ENDCHAR
STARTCHAR S
ENCODING 83
SWIDTH 550 0
DWIDTH 6 0
BBX 6 8 0 0
BITMAP
78
40
40
70
38
0C
88
F8
ENDCHAR
STARTCHAR T
ENCODING 84
SWIDTH 579 0
DWIDTH 6 0
BBX 6 8 0 0
BITMAP
FC
30
30
30
30
30
30
30
ENDCHAR
STARTCHAR U
ENCODING 85
SWIDTH 755 0
DWIDTH 8 0
BBX 6 8 1 0
BITMAP
CC
CC
CC
CC
CC
CC
CC
78
ENDCHAR
STARTCHAR V
ENCODING 86
SWIDTH 649 0
DWIDTH 7 0
BBX 7 8 0 0
BITMAP
C6
C6
44
6C
6C
28
28
38
ENDCHAR
STARTCHAR W
ENCODING 87
SWIDTH 966 0
DWIDTH 11 0
BBX 11 8 0 0
BITMAP
C460
CE60
4A40
4A40
7BC0
7BC0
3180
3180
ENDCHAR
STARTCHAR X
ENCODING 88
SWIDTH 666 0
DWIDTH 7 0
BBX 7 8 0 0
BITMAP
C6
6C
28
38
38
68
6C
C6
ENDCHAR
STARTCHAR Y
ENCODING 89
SWIDTH 624 0
DWIDTH 7 0
BBX 7 8 0 0
BITMAP
C6
6C
6C
38
38
10
10
10
ENDCHAR
STARTCHAR Z
ENCODING 90
SWIDTH 579 0
DWIDTH 6 0
BBX 6 8 0 0
BITMAP
FC
18
18
30
30
60
60
FC
ENDCHAR
STARTCHAR bracketleft
ENCODING 91
SWIDTH 331 0
DWIDTH 4 0
BBX 3 10 1 -2
BITMAP
E0
80
80
80
80
80
80
80
80
E0
ENDCHAR
STARTCHAR backslash
ENCODING 92
SWIDTH 413 0
DWIDTH 5 0
BBX 5 8 0 0
BITMAP
C0
40
60
20
20
30
10
18
ENDCHAR
STARTCHAR bracketright
ENCODING 93
SWIDTH 331 0
DWIDTH 4 0
BBX 3 10 0 -2
BITMAP
E0
20
20
20
20
20
20
20
20
E0
ENDCHAR
STARTCHAR asciicircum
ENCODING 94
SWIDTH 532 0
DWIDTH 6 0
BBX 6 5 0 3
BITMAP
30
30
58
48
CC
ENDCHAR
STARTCHAR underscore
ENCODING 95
SWIDTH 411 0
DWIDTH 5 0
BBX 5 1 0 -2
BITMAP
F8
ENDCHAR
STARTCHAR grave
ENCODING 96
SWIDTH 606 0
DWIDTH 7 0
BBX 3 2 2 7
BITMAP
C0
60
ENDCHAR
STARTCHAR a
ENCODING 97
SWIDTH 604 0
DWIDTH 7 0
BBX 5 6 1 0
BITMAP
F0
08
F8
88
98
E8
ENDCHAR
STARTCHAR b
ENCODING 98
SWIDTH 632 0
DWIDTH 7 0
BBX 5 8 1 0
BITMAP
C0
C0
B8
C8
C8
C8
C8
B8
ENDCHAR
STARTCHAR c
ENCODING 99
SWIDTH 514 0
DWIDTH 6 0
BBX 5 6 1 0
BITMAP
78
C0
80
80
C0
70
ENDCHAR
STARTCHAR d
ENCODING 100
SWIDTH 632 0
DWIDTH 7 0
BBX 5 8 1 0
BITMAP
18
18
E8
98
88
88
98
E8
ENDCHAR
STARTCHAR e
ENCODING 101
SWIDTH 590 0
DWIDTH 7 0
BBX 6 6 1 0
BITMAP
78
88
FC
80
C0
78
ENDCHAR
STARTCHAR f
ENCODING 102
SWIDTH 387 0
DWIDTH 4 0
BBX 4 8 0 0
BITMAP
70
60
F0
60
60
60
60
60
ENDCHAR
STARTCHAR g
ENCODING 103
SWIDTH 564 0
DWIDTH 6 0
BBX 6 9 0 -3
BITMAP
7C
48
48
78
40
7C
CC
CC
78
ENDCHAR
STARTCHAR h
ENCODING 104
SWIDTH 657 0
DWIDTH 7 0
BBX 5 8 1 0
BITMAP
C0
80
B8
D8
C8
C8
C8
C8
ENDCHAR
STARTCHAR i
ENCODING 105
SWIDTH 305 0
DWIDTH 3 0
BBX 2 8 1 0
BITMAP
C0
80
C0
C0
C0
C0
C0
C0
ENDCHAR
STARTCHAR j
ENCODING 106
SWIDTH 305 0
DWIDTH 3 0
BBX 4 11 -1 -3
BITMAP
30
20
30
30
30
30
30
30
30
20
E0
ENDCHAR
STARTCHAR k
ENCODING 107
SWIDTH 620 0
DWIDTH 7 0
BBX 6 8 1 0
BITMAP
C0
C0
C8
90
A0
F0
D8
CC
ENDCHAR
STARTCHAR l
ENCODING 108
SWIDTH 305 0
DWIDTH 3 0
BBX 2 8 1 0
BITMAP
C0
C0
C0
C0
C0
C0
C0
C0
ENDCHAR
STARTCHAR m
ENCODING 109
SWIDTH 981 0
DWIDTH 11 0
BBX 9 6 1 0
BITMAP
BF80
CD80
C880
C880
C880
C880
ENDCHAR
STARTCHAR n
ENCODING 110
SWIDTH 657 0
DWIDTH 7 0
BBX 5 6 1 0
BITMAP
B8
D8
C8
C8
C8
C8
ENDCHAR
STARTCHAR o
ENCODING 111
SWIDTH 619 0
DWIDTH 7 0
BBX 5 6 1 0
BITMAP
70
88
88
88
88
70
ENDCHAR
STARTCHAR p
ENCODING 112
SWIDTH 632 0
DWIDTH 7 0
BBX 5 9 1 -3
BITMAP
B8
C8
C8
C8
C8
B8
C0
C0
C0
ENDCHAR
STARTCHAR q
ENCODING 113
SWIDTH 632 0
DWIDTH 7 0
BBX 5 9 1 -3
BITMAP
E8
98
88
88
98
E8
18
18
18
ENDCHAR
STARTCHAR r
ENCODING 114
SWIDTH 454 0
DWIDTH 5 0
BBX 4 6 1 0
BITMAP
B0
F0
C0
C0
C0
C0
ENDCHAR
STARTCHAR s
ENCODING 115
SWIDTH 497 0
DWIDTH 5 0
BBX 4 6 1 0
BITMAP
E0
80
E0
60
30
E0
ENDCHAR
STARTCHAR t
ENCODING 116
SWIDTH 434 0
DWIDTH 5 0
BBX 5 7 0 0
BITMAP
60
F8
60
60
60
60
38
ENDCHAR
STARTCHAR u
ENCODING 117
SWIDTH 657 0
DWIDTH 7 0
BBX 5 6 1 0
BITMAP
98
98
98
98
D8
E8
ENDCHAR
STARTCHAR v
ENCODING 118
SWIDTH 568 0
DWIDTH 6 0
BBX 6 6 0 0
BITMAP
CC
48
48
78
30
30
ENDCHAR
STARTCHAR w
ENCODING 119
SWIDTH 855 0
DWIDTH 9 0
BBX 9 6 0 0
BITMAP
DD80
5500
5500
7700
7700
3600
ENDCHAR
STARTCHAR x
ENCODING 120
SWIDTH 578 0
DWIDTH 6 0
BBX 6 6 0 0
BITMAP
CC
78
30
30
78
CC
ENDCHAR
STARTCHAR y
ENCODING 121
SWIDTH 568 0
DWIDTH 6 0
BBX 6 9 0 -3
BITMAP
CC
48
68
78
30
30
30
20
E0
ENDCHAR
STARTCHAR z
ENCODING 122
SWIDTH 487 0
DWIDTH 5 0
BBX 5 6 0 0
BITMAP
F8
30
30
60
60
F8
ENDCHAR
STARTCHAR braceleft
ENCODING 123
SWIDTH 394 0
DWIDTH 4 0
BBX 4 10 0 -2
BITMAP
30
60
60
60
C0
C0
60
60
60
30
ENDCHAR
STARTCHAR bar
ENCODING 124
SWIDTH 550 0
DWIDTH 6 0
BBX 2 11 2 -3
BITMAP
C0
C0
C0
C0
C0
C0
C0
C0
C0
C0
C0
ENDCHAR
STARTCHAR braceright
ENCODING 125
SWIDTH 394 0
DWIDTH 4 0
BBX 4 10 0 -2
BITMAP
C0
60
60
60
30
30
60
60
60
C0
ENDCHAR
STARTCHAR asciitilde
ENCODING 126
SWIDTH 570 0
DWIDTH 6 0
BBX 6 2 0 3
BITMAP
64
98
ENDCHAR
STARTCHAR nonbreakingspace
ENCODING 160
SWIDTH 259 0
DWIDTH 3 0
BBX 1 1 0 0
BITMAP
00
ENDCHAR
STARTCHAR exclamdown
ENCODING 161
SWIDTH 286 0
DWIDTH 3 0
BBX 1 8 1 -2
BITMAP
80
80
00
80
80
80
80
80
ENDCHAR
STARTCHAR cent
ENCODING 162
SWIDTH 570 0
DWIDTH 6 0
BBX 4 8 1 0
BITMAP
20
70
C0
80
80
C0
70
20
ENDCHAR
STARTCHAR sterling
ENCODING 163
SWIDTH 570 0
DWIDTH 6 0
BBX 6 8 0 0
BITMAP
3C
60
60
F8
60
60
60
FC
ENDCHAR
STARTCHAR currency
ENCODING 164
SWIDTH 570 0
DWIDTH 6 0
BBX 4 4 1 2
BITMAP
F0
90
90
F0
ENDCHAR
STARTCHAR yen
ENCODING 165
SWIDTH 570 0
DWIDTH 6 0
BBX 6 8 0 0
BITMAP
CC
48
78
30
78
30
78
30
ENDCHAR
STARTCHAR brokenbar
ENCODING 166
SWIDTH 550 0
DWIDTH 6 0
BBX 2 11 2 -3
BITMAP
C0
C0
C0
C0
00
00
00
C0
C0
C0
C0
ENDCHAR
STARTCHAR section
ENCODING 167
SWIDTH 485 0
DWIDTH 5 0
BBX 3 8 1 0
BITMAP
E0
80
C0
A0
A0
60
20
E0
ENDCHAR
STARTCHAR dieresis
ENCODING 168
SWIDTH 606 0
DWIDTH 7 0
BBX 3 1 2 7
BITMAP
A0
ENDCHAR
STARTCHAR copyright
ENCODING 169
SWIDTH 832 0
DWIDTH 9 0
BBX 7 8 1 0
BITMAP
38
C6
BA
E2
A2
BA
82
7C
ENDCHAR
STARTCHAR ordfeminine
ENCODING 170
SWIDTH 382 0
DWIDTH 4 0
BBX 4 4 0 4
BITMAP
E0
70
90
F0
ENDCHAR
STARTCHAR guillemotleft
ENCODING 171
SWIDTH 615 0
DWIDTH 7 0
BBX 6 5 0 1
BITMAP
24
6C
D8
6C
24
ENDCHAR
STARTCHAR logicalnot
ENCODING 172
SWIDTH 570 0
DWIDTH 6 0
BBX 6 3 0 1
BITMAP
FC
0C
0C
ENDCHAR
STARTCHAR uni00AD
ENCODING 173
SWIDTH 321 0
DWIDTH 4 0
BBX 4 1 0 3
BITMAP
F0
ENDCHAR
STARTCHAR registered
ENCODING 174
SWIDTH 832 0
DWIDTH 9 0
BBX 7 8 1 0
BITMAP
38
C6
BA
AA
B2
AA
82
7C
ENDCHAR
STARTCHAR overscore
ENCODING 175
SWIDTH 500 0
DWIDTH 6 0
BBX 6 1 0 8
BITMAP
FC
ENDCHAR
STARTCHAR degree
ENCODING 176
SWIDTH 428 0
DWIDTH 5 0
BBX 3 4 1 4
BITMAP
E0
A0
A0
E0
ENDCHAR
STARTCHAR plusminus
ENCODING 177
SWIDTH 570 0
DWIDTH 6 0
BBX 6 7 0 0
BITMAP
30
30
FC
30
30
00
FC
ENDCHAR
STARTCHAR twosuperior
ENCODING 178
SWIDTH 378 0
DWIDTH 4 0
BBX 4 5 0 3
BITMAP
E0
20
20
40
F0
ENDCHAR
STARTCHAR threesuperior
ENCODING 179
SWIDTH 378 0
DWIDTH 4 0
BBX 4 5 0 3
BITMAP
E0
20
60
30
E0
ENDCHAR
STARTCHAR acute
ENCODING 180
SWIDTH 606 0
DWIDTH 7 0
BBX 3 2 2 7
BITMAP
60
C0
ENDCHAR
STARTCHAR mu
ENCODING 181
SWIDTH 660 0
DWIDTH 7 0
BBX 5 9 1 -3
BITMAP
D8
D8
D8
D8
D8
E8
80
C0
C0
ENDCHAR
STARTCHAR paragraph
ENCODING 182
SWIDTH 654 0
DWIDTH 7 0
BBX 5 9 1 -1
BITMAP
F8
E8
E8
E8
E8
28
28
28
28
ENDCHAR
STARTCHAR periodcentered
ENCODING 183
SWIDTH 285 0
DWIDTH 3 0
BBX 1 2 1 3
BITMAP
80
80
ENDCHAR
STARTCHAR cedilla
ENCODING 184
SWIDTH 205 0
DWIDTH 2 0
BBX 2 3 0 -3
BITMAP
80
40
C0
ENDCHAR
STARTCHAR onesuperior
ENCODING 185
SWIDTH 378 0
DWIDTH 4 0
BBX 2 5 1 3
BITMAP
C0
C0
40
40
40
ENDCHAR
STARTCHAR ordmasculine
ENCODING 186
SWIDTH 388 0
DWIDTH 4 0
BBX 4 4 0 4
BITMAP
60
90
90
60
ENDCHAR
STARTCHAR guillemotright
ENCODING 187
SWIDTH 615 0
DWIDTH 7 0
BBX 6 5 1 1
BITMAP
90
D8
6C
D8
90
ENDCHAR
STARTCHAR onequarter
ENCODING 188
SWIDTH 880 0
DWIDTH 10 0
BBX 9 8 0 0
BITMAP
6200
A600
2400
2900
2B00
1500
1780
2100
ENDCHAR
STARTCHAR onehalf
ENCODING 189
SWIDTH 880 0
DWIDTH 10 0
BBX 9 8 0 0
BITMAP
6200
A600
2400
2B80
2880
1180
1300
2380
ENDCHAR
STARTCHAR threequarters
ENCODING 190
SWIDTH 880 0
DWIDTH 10 0
BBX 9 8 0 0
BITMAP
6200
3200
6400
1500
EB00
1B00
1780
3100
ENDCHAR
STARTCHAR questiondown
ENCODING 191
SWIDTH 477 0
DWIDTH 5 0
BBX 5 8 0 -2
BITMAP
30
30
00
30
60
C0
C8
78
ENDCHAR
STARTCHAR Agrave
ENCODING 192
SWIDTH 689 0
DWIDTH 8 0
BBX 8 11 0 0
BITMAP
30
18
00
18
3C
3C
24
66
7E
42
C3
ENDCHAR
STARTCHAR Aacute
ENCODING 193
SWIDTH 689 0
DWIDTH 8 0
BBX 8 11 0 0
BITMAP
0C
18
00
18
3C
3C
24
66
7E
42
C3
ENDCHAR
STARTCHAR Acircumflex
ENCODING 194
SWIDTH 689 0
DWIDTH 8 0
BBX 8 11 0 0
BITMAP
18
24
00
18
3C
3C
24
66
7E
42
C3
ENDCHAR
STARTCHAR Atilde
ENCODING 195
SWIDTH 689 0
DWIDTH 8 0
BBX 8 11 0 0
BITMAP
34
2C
00
18
3C
3C
24
66
7E
42
C3
ENDCHAR
STARTCHAR Adieresis
ENCODING 196
SWIDTH 689 0
DWIDTH 8 0
BBX 8 10 0 0
BITMAP
3C
00
18
3C
3C
24
66
7E
42
C3
ENDCHAR
STARTCHAR Aring
ENCODING 197
SWIDTH 689 0
DWIDTH 8 0
BBX 8 10 0 0
BITMAP
38
28
18
3C
3C
24
66
7E
42
C3
ENDCHAR
STARTCHAR AE
ENCODING 198
SWIDTH 952 0
DWIDTH 10 0
BBX 9 8 0 0
BITMAP
1F80
1600
3600
2780
6600
7E00
4600
C780
ENDCHAR
STARTCHAR Ccedilla
ENCODING 199
SWIDTH 637 0
DWIDTH 7 0
BBX 6 11 1 -3
BITMAP
7C
C0
C0
80
80
C0
C0
78
20
10
30
ENDCHAR
STARTCHAR Egrave
ENCODING 200
SWIDTH 560 0
DWIDTH 6 0
BBX 4 11 1 0
BITMAP
60
20
00
F0
C0
C0
F0
C0
C0
C0
F0
ENDCHAR
STARTCHAR Eacute
ENCODING 201
SWIDTH 560 0
DWIDTH 6 0
BBX 4 11 1 0
BITMAP
30
20
00
F0
C0
C0
F0
C0
C0
C0
F0
ENDCHAR
STARTCHAR Ecircumflex
ENCODING 202
SWIDTH 560 0
DWIDTH 6 0
BBX 4 11 1 0
BITMAP
70
D0
00
F0
C0
C0
F0
C0
C0
C0
F0
ENDCHAR
STARTCHAR Edieresis
ENCODING 203
SWIDTH 560 0
DWIDTH 6 0
BBX 4 10 1 0
BITMAP
50
00
F0
C0
C0
F0
C0
C0
C0
F0
ENDCHAR
STARTCHAR Igrave
ENCODING 204
SWIDTH 331 0
DWIDTH 4 0
BBX 3 11 0 0
BITMAP
C0
60
00
60
60
60
60
60
60
60
60
ENDCHAR
STARTCHAR Iacute
ENCODING 205
SWIDTH 331 0
DWIDTH 4 0
BBX 3 11 1 0
BITMAP
60
C0
00
C0
C0
C0
C0
C0
C0
C0
C0
ENDCHAR
STARTCHAR Icircumflex
ENCODING 206
SWIDTH 331 0
DWIDTH 4 0
BBX 4 11 0 0
BITMAP
60
90
00
60
60
60
60
60
60
60
60
ENDCHAR
STARTCHAR Idieresis
ENCODING 207
SWIDTH 331 0
DWIDTH 4 0
BBX 4 10 0 0
BITMAP
F0
00
60
60
60
60
60
60
60
60
ENDCHAR
STARTCHAR Eth
ENCODING 208
SWIDTH 740 0
DWIDTH 8 0
BBX 7 8 0 0
BITMAP
7C
66
66
F2
62
66
66
7C
ENDCHAR
STARTCHAR Ntilde
ENCODING 209
SWIDTH 812 0
DWIDTH 9 0
BBX 7 11 1 0
BITMAP
34
58
00
C2
E2
B2
B2
9A
9A
8E
86
ENDCHAR
STARTCHAR Ograve
ENCODING 210
SWIDTH 795 0
DWIDTH 9 0
BBX 7 11 1 0
BITMAP
30
10
00
7C
C6
C6
82
82
C6
C6
7C
ENDCHAR
STARTCHAR Oacute
ENCODING 211
SWIDTH 795 0
DWIDTH 9 0
BBX 7 11 1 0
BITMAP
08
10
00
7C
C6
C6
82
82
C6
C6
7C
ENDCHAR
STARTCHAR Ocircumflex
ENCODING 212
SWIDTH 795 0
DWIDTH 9 0
BBX 7 11 1 0
BITMAP
38
2C
00
7C
C6
C6
82
82
C6
C6
7C
ENDCHAR
STARTCHAR Otilde
ENCODING 213
SWIDTH 795 0
DWIDTH 9 0
BBX 7 11 1 0
BITMAP
34
58
00
7C
C6
C6
82
82
C6
C6
7C
ENDCHAR
STARTCHAR Odieresis
ENCODING 214
SWIDTH 795 0
DWIDTH 9 0
BBX 7 10 1 0
BITMAP
28
00
7C
C6
C6
82
82
C6
C6
7C
ENDCHAR
STARTCHAR multiply
ENCODING 215
SWIDTH 570 0
DWIDTH 6 0
BBX 4 5 1 1
BITMAP
90
F0
60
F0
90
ENDCHAR
STARTCHAR Oslash
ENCODING 216
SWIDTH 795 0
DWIDTH 9 0
BBX 7 8 1 0
BITMAP
7E
CE
CE
9A
92
E6
E6
FC
ENDCHAR
STARTCHAR Ugrave
ENCODING 217
SWIDTH 755 0
DWIDTH 8 0
BBX 6 11 1 0
BITMAP
20
10
00
CC
CC
CC
CC
CC
CC
CC
78
ENDCHAR
STARTCHAR Uacute
ENCODING 218
SWIDTH 755 0
DWIDTH 8 0
BBX 6 11 1 0
BITMAP
18
10
00
CC
CC
CC
CC
CC
CC
CC
78
ENDCHAR
STARTCHAR Ucircumflex
ENCODING 219
SWIDTH 755 0
DWIDTH 8 0
BBX 6 11 1 0
BITMAP
38
68
00
CC
CC
CC
CC
CC
CC
CC
78
ENDCHAR
STARTCHAR Udieresis
ENCODING 220
SWIDTH 755 0
DWIDTH 8 0
BBX 6 10 1 0
BITMAP
78
00
CC
CC
CC
CC
CC
CC
CC
78
ENDCHAR
STARTCHAR Yacute
ENCODING 221
SWIDTH 624 0
DWIDTH 7 0
BBX 7 11 0 0
BITMAP
08
10
00
C6
6C
6C
38
38
10
10
10
ENDCHAR
STARTCHAR Thorn
ENCODING 222
SWIDTH 627 0
DWIDTH 7 0
BBX 6 8 1 0
BITMAP
C0
F8
C8
CC
C8
F8
C0
C0
ENDCHAR
STARTCHAR germandbls
ENCODING 223
SWIDTH 710 0
DWIDTH 8 0
BBX 7 8 1 0
BITMAP
78
CC
C8
D0
D8
CC
C6
FC
ENDCHAR
STARTCHAR agrave
ENCODING 224
SWIDTH 604 0
DWIDTH 7 0
BBX 5 9 1 0
BITMAP
60
20
00
F0
08
F8
88
98
E8
ENDCHAR
STARTCHAR aacute
ENCODING 225
SWIDTH 604 0
DWIDTH 7 0
BBX 5 9 1 0
BITMAP
30
20
00
F0
08
F8
88
98
E8
ENDCHAR
STARTCHAR acircumflex
ENCODING 226
SWIDTH 604 0
DWIDTH 7 0
BBX 5 9 1 0
BITMAP
70
D8
00
F0
08
F8
88
98
E8
ENDCHAR
STARTCHAR atilde
ENCODING 227
SWIDTH 604 0
DWIDTH 7 0
BBX 5 9 1 0
BITMAP
68
B0
00
F0
08
F8
88
98
E8
ENDCHAR
STARTCHAR adieresis
ENCODING 228
SWIDTH 604 0
DWIDTH 7 0
BBX 5 8 1 0
BITMAP
50
00
F0
08
F8
88
98
E8
ENDCHAR
STARTCHAR aring
ENCODING 229
SWIDTH 604 0
DWIDTH 7 0
BBX 5 10 1 0
BITMAP
60
50
60
00
F0
08
F8
88
98
E8
ENDCHAR
STARTCHAR ae
ENCODING 230
SWIDTH 916 0
DWIDTH 10 0
BBX 9 6 1 0
BITMAP
FF00
1900
FF80
9800
9800
EF00
ENDCHAR
STARTCHAR ccedilla
ENCODING 231
SWIDTH 514 0
DWIDTH 6 0
BBX 5 9 1 -3
BITMAP
78
C0
80
80
C0
70
40
20
60
ENDCHAR
STARTCHAR egrave
ENCODING 232
SWIDTH 590 0
DWIDTH 7 0
BBX 6 9 1 0
BITMAP
60
20
00
78
88
FC
80
C0
78
ENDCHAR
STARTCHAR eacute
ENCODING 233
SWIDTH 590 0
DWIDTH 7 0
BBX 6 9 1 0
BITMAP
30
20
00
78
88
FC
80
C0
78
ENDCHAR
STARTCHAR ecircumflex
ENCODING 234
SWIDTH 590 0
DWIDTH 7 0
BBX 6 9 1 0
BITMAP
70
58
00
78
88
FC
80
C0
78
ENDCHAR
STARTCHAR edieresis
ENCODING 235
SWIDTH 590 0
DWIDTH 7 0
BBX 6 8 1 0
BITMAP
50
00
78
88
FC
80
C0
78
ENDCHAR
STARTCHAR igrave
ENCODING 236
SWIDTH 305 0
DWIDTH 3 0
BBX 3 9 0 0
BITMAP
C0
40
00
60
60
60
60
60
60
ENDCHAR
STARTCHAR iacute
ENCODING 237
SWIDTH 305 0
DWIDTH 3 0
BBX 3 9 1 0
BITMAP
60
C0
00
C0
C0
C0
C0
C0
C0
ENDCHAR
STARTCHAR icircumflex
ENCODING 238
SWIDTH 305 0
DWIDTH 3 0
BBX 4 9 0 0
BITMAP
60
B0
00
60
60
60
60
60
60
ENDCHAR
STARTCHAR idieresis
ENCODING 239
SWIDTH 305 0
DWIDTH 3 0
BBX 3 8 0 0
BITMAP
A0
00
60
60
60
60
60
60
ENDCHAR
STARTCHAR eth
ENCODING 240
SWIDTH 619 0
DWIDTH 7 0
BBX 6 8 0 0
BITMAP
3C
18
2C
7C
44
C4
44
38
ENDCHAR
STARTCHAR ntilde
ENCODING 241
SWIDTH 657 0
DWIDTH 7 0
BBX 5 9 1 0
BITMAP
68
90
00
B8
D8
C8
C8
C8
C8
ENDCHAR
STARTCHAR ograve
ENCODING 242
SWIDTH 619 0
DWIDTH 7 0
BBX 5 9 1 0
BITMAP
60
20
00
70
88
88
88
88
70
ENDCHAR
STARTCHAR oacute
ENCODING 243
SWIDTH 619 0
DWIDTH 7 0
BBX 5 9 1 0
BITMAP
10
20
00
70
88
88
88
88
70
ENDCHAR
STARTCHAR ocircumflex
ENCODING 244
SWIDTH 619 0
DWIDTH 7 0
BBX 5 9 1 0
BITMAP
70
58
00
70
88
88
88
88
70
ENDCHAR
STARTCHAR otilde
ENCODING 245
SWIDTH 619 0
DWIDTH 7 0
BBX 5 9 1 0
BITMAP
68
B0
00
70
88
88
88
88
70
ENDCHAR
STARTCHAR odieresis
ENCODING 246
SWIDTH 619 0
DWIDTH 7 0
BBX 5 8 1 0
BITMAP
50
00
70
88
88
88
88
70
ENDCHAR
STARTCHAR divide
ENCODING 247
SWIDTH 570 0
DWIDTH 6 0
BBX 6 5 0 1
BITMAP
30
00
FC
00
30
ENDCHAR
STARTCHAR oslash
ENCODING 248
SWIDTH 619 0
DWIDTH 7 0
BBX 5 6 1 0
BITMAP
78
98
B8
A8
C8
F0
ENDCHAR
STARTCHAR ugrave
ENCODING 249
SWIDTH 657 0
DWIDTH 7 0
BBX 5 9 1 0
BITMAP
60
20
00
98
98
98
98
D8
E8
ENDCHAR
STARTCHAR uacute
ENCODING 250
SWIDTH 657 0
DWIDTH 7 0
BBX 5 9 1 0
BITMAP
10
20
00
98
98
98
98
D8
E8
ENDCHAR
STARTCHAR ucircumflex
ENCODING 251
SWIDTH 657 0
DWIDTH 7 0
BBX 5 9 1 0
BITMAP
30
58
00
98
98
98
98
D8
E8
ENDCHAR
STARTCHAR udieresis
ENCODING 252
SWIDTH 657 0
DWIDTH 7 0
BBX 5 8 1 0
BITMAP
50
00
98
98
98
98
D8
E8
ENDCHAR
STARTCHAR yacute
ENCODING 253
SWIDTH 568 0
DWIDTH 6 0
BBX 6 12 0 -3
BITMAP
18
30
00
CC
48
68
78
30
30
30
20
E0
ENDCHAR
STARTCHAR thorn
ENCODING 254
SWIDTH 632 0
DWIDTH 7 0
BBX 5 11 1 -3
BITMAP
C0
C0
B8
C8
C8
C8
C8
B8
C0
C0
C0
ENDCHAR
STARTCHAR ydieresis
ENCODING 255
SWIDTH 568 0
DWIDTH 6 0
BBX 6 11 0 -3
BITMAP
78
00
CC
48
68
78
30
30
30
20
E0
ENDCHAR
STARTCHAR Amacron
ENCODING 256
SWIDTH 689 0
DWIDTH 8 0
BBX 8 10 0 0
BITMAP
3C
00
18
3C
3C
24
66
7E
42
C3
ENDCHAR
STARTCHAR amacron
ENCODING 257
SWIDTH 604 0
DWIDTH 7 0
BBX 5 8 1 0
BITMAP
70
00
F0
08
F8
88
98
E8
ENDCHAR
STARTCHAR Abreve
ENCODING 258
SWIDTH 689 0
DWIDTH 8 0
BBX 8 11 0 0
BITMAP
24
38
00
18
3C
3C
24
66
7E
42
C3
ENDCHAR
STARTCHAR abreve
ENCODING 259
SWIDTH 604 0
DWIDTH 7 0
BBX 5 9 1 0
BITMAP
98
70
00
F0
08
F8
88
98
E8
ENDCHAR
STARTCHAR Aogonek
ENCODING 260
SWIDTH 689 0
DWIDTH 8 0
BBX 8 11 0 -3
BITMAP
18
3C
3C
24
66
7E
42
C3
04
04
06
ENDCHAR
STARTCHAR aogonek
ENCODING 261
SWIDTH 604 0
DWIDTH 7 0
BBX 5 9 1 -3
BITMAP
F0
08
F8
88
98
E8
10
10
18
ENDCHAR
STARTCHAR Cacute
ENCODING 262
SWIDTH 637 0
DWIDTH 7 0
BBX 6 11 1 0
BITMAP
18
10
00
7C
C0
C0
80
80
C0
C0
78
ENDCHAR
STARTCHAR cacute
ENCODING 263
SWIDTH 514 0
DWIDTH 6 0
BBX 5 9 1 0
BITMAP
30
20
00
78
C0
80
80
C0
70
ENDCHAR
STARTCHAR Ccircumflex
ENCODING 264
SWIDTH 637 0
DWIDTH 7 0
BBX 6 11 1 0
BITMAP
38
68
00
7C
C0
C0
80
80
C0
C0
78
ENDCHAR
STARTCHAR ccircumflex
ENCODING 265
SWIDTH 514 0
DWIDTH 6 0
BBX 5 9 1 0
BITMAP
70
D0
00
78
C0
80
80
C0
70
ENDCHAR
STARTCHAR Cdot
ENCODING 266
SWIDTH 637 0
DWIDTH 7 0
BBX 6 11 1 0
BITMAP
10
30
00
7C
C0
C0
80
80
C0
C0
78
ENDCHAR
STARTCHAR cdot
ENCODING 267
SWIDTH 514 0
DWIDTH 6 0
BBX 5 9 1 0
BITMAP
20
60
00
78
C0
80
80
C0
70
ENDCHAR
STARTCHAR Ccaron
ENCODING 268
SWIDTH 637 0
DWIDTH 7 0
BBX 6 11 1 0
BITMAP
68
38
00
7C
C0
C0
80
80
C0
C0
78
ENDCHAR
STARTCHAR ccaron
ENCODING 269
SWIDTH 514 0
DWIDTH 6 0
BBX 5 9 1 0
BITMAP
D8
70
00
78
C0
80
80
C0
70
ENDCHAR
STARTCHAR Dcaron
ENCODING 270
SWIDTH 740 0
DWIDTH 8 0
BBX 6 11 1 0
BITMAP
48
30
00
F8
CC
CC
C4
C4
CC
CC
F8
ENDCHAR
STARTCHAR dcaron
ENCODING 271
SWIDTH 632 0
DWIDTH 7 0
BBX 7 8 1 0
BITMAP
1A
1A
E8
98
88
88
98
E8
ENDCHAR
STARTCHAR Dcroat
ENCODING 272
SWIDTH 740 0
DWIDTH 8 0
BBX 7 8 0 0
BITMAP
7C
66
66
F2
62
66
66
7C
ENDCHAR
STARTCHAR dcroat
ENCODING 273
SWIDTH 648 0
DWIDTH 7 0
BBX 6 8 1 0
BITMAP
18
3C
F8
98
98
98
D8
F8
ENDCHAR
STARTCHAR Emacron
ENCODING 274
SWIDTH 560 0
DWIDTH 6 0
BBX 4 10 1 0
BITMAP
70
00
F0
C0
C0
F0
C0
C0
C0
F0
ENDCHAR
STARTCHAR emacron
ENCODING 275
SWIDTH 590 0
DWIDTH 7 0
BBX 6 8 1 0
BITMAP
70
00
78
88
FC
80
C0
78
ENDCHAR
STARTCHAR Ebreve
ENCODING 276
SWIDTH 560 0
DWIDTH 6 0
BBX 4 11 1 0
BITMAP
90
70
00
F0
C0
C0
F0
C0
C0
C0
F0
ENDCHAR
STARTCHAR ebreve
ENCODING 277
SWIDTH 590 0
DWIDTH 7 0
BBX 6 9 1 0
BITMAP
90
70
00
78
88
FC
80
C0
78
ENDCHAR
STARTCHAR Edotaccent
ENCODING 278
SWIDTH 560 0
DWIDTH 6 0
BBX 4 11 1 0
BITMAP
20
60
00
F0
C0
C0
F0
C0
C0
C0
F0
ENDCHAR
STARTCHAR edotaccent
ENCODING 279
SWIDTH 590 0
DWIDTH 7 0
BBX 6 9 1 0
BITMAP
20
60
00
78
88
FC
80
C0
78
ENDCHAR
STARTCHAR Eogonek
ENCODING 280
SWIDTH 560 0
DWIDTH 6 0
BBX 4 11 1 -3
BITMAP
F0
C0
C0
F0
C0
C0
C0
F0
20
20
30
ENDCHAR
STARTCHAR eogonek
ENCODING 281
SWIDTH 590 0
DWIDTH 7 0
BBX 6 9 1 -3
BITMAP
78
88
FC
80
C0
78
10
20
30
ENDCHAR
STARTCHAR Ecaron
ENCODING 282
SWIDTH 560 0
DWIDTH 6 0
BBX 4 11 1 0
BITMAP
D0
70
00
F0
C0
C0
F0
C0
C0
C0
F0
ENDCHAR
STARTCHAR ecaron
ENCODING 283
SWIDTH 590 0
DWIDTH 7 0
BBX 6 9 1 0
BITMAP
D8
70
00
78
88
FC
80
C0
78
ENDCHAR
STARTCHAR Gcircumflex
ENCODING 284
SWIDTH 724 0
DWIDTH 8 0
BBX 6 11 1 0
BITMAP
38
6C
00
7C
C0
C0
80
9C
CC
CC
7C
ENDCHAR
STARTCHAR gcircumflex
ENCODING 285
SWIDTH 564 0
DWIDTH 6 0
BBX 6 12 0 -3
BITMAP
38
68
00
7C
48
48
78
40
7C
CC
CC
78
ENDCHAR
STARTCHAR Gbreve
ENCODING 286
SWIDTH 724 0
DWIDTH 8 0
BBX 6 11 1 0
BITMAP
48
38
00
7C
C0
C0
80
9C
CC
CC
7C
ENDCHAR
STARTCHAR gbreve
ENCODING 287
SWIDTH 564 0
DWIDTH 6 0
BBX 6 12 0 -3
BITMAP
48
38
00
7C
48
48
78
40
7C
CC
CC
78
ENDCHAR
STARTCHAR Gdot
ENCODING 288
SWIDTH 724 0
DWIDTH 8 0
BBX 6 11 1 0
BITMAP
10
30
00
7C
C0
C0
80
9C
CC
CC
7C
ENDCHAR
STARTCHAR gdot
ENCODING 289
SWIDTH 564 0
DWIDTH 6 0
BBX 6 12 0 -3
BITMAP
30
30
00
7C
48
48
78
40
7C
CC
CC
78
ENDCHAR
STARTCHAR Gcommaaccent
ENCODING 290
SWIDTH 724 0
DWIDTH 8 0
BBX 6 11 1 -3
BITMAP
7C
C0
C0
80
9C
CC
CC
7C
00
10
10
ENDCHAR
STARTCHAR gcommaaccent
ENCODING 291
SWIDTH 564 0
DWIDTH 6 0
BBX 6 12 0 -3
BITMAP
10
10
00
7C
48
48
78
40
7C
CC
CC
78
ENDCHAR
STARTCHAR Hcircumflex
ENCODING 292
SWIDTH 765 0
DWIDTH 8 0
BBX 6 11 1 0
BITMAP
38
68
00
CC
CC
CC
FC
CC
CC
CC
CC
ENDCHAR
STARTCHAR hcircumflex
ENCODING 293
SWIDTH 657 0
DWIDTH 7 0
BBX 5 11 1 0
BITMAP
30
58
00
C0
80
B8
D8
C8
C8
C8
C8
ENDCHAR
STARTCHAR Hbar
ENCODING 294
SWIDTH 765 0
DWIDTH 8 0
BBX 8 8 0 0
BITMAP
66
FF
66
7E
66
66
66
66
ENDCHAR
STARTCHAR hbar
ENCODING 295
SWIDTH 657 0
DWIDTH 7 0
BBX 6 8 0 0
BITMAP
60
F0
5C
6C
64
64
64
64
ENDCHAR
STARTCHAR Itilde
ENCODING 296
SWIDTH 331 0
DWIDTH 4 0
BBX 4 11 0 0
BITMAP
D0
B0
00
60
60
60
60
60
60
60
60
ENDCHAR
STARTCHAR itilde
ENCODING 297
SWIDTH 305 0
DWIDTH 3 0
BBX 4 9 0 0
BITMAP
D0
B0
00
60
60
60
60
60
60
ENDCHAR
STARTCHAR Imacron
ENCODING 298
SWIDTH 331 0
DWIDTH 4 0
BBX 4 10 0 0
BITMAP
F0
00
60
60
60
60
60
60
60
60
ENDCHAR
STARTCHAR imacron
ENCODING 299
SWIDTH 305 0
DWIDTH 3 0
BBX 4 8 0 0
BITMAP
F0
00
60
60
60
60
60
60
ENDCHAR
STARTCHAR Ibreve
ENCODING 300
SWIDTH 331 0
DWIDTH 4 0
BBX 4 11 0 0
BITMAP
90
E0
00
60
60
60
60
60
60
60
60
ENDCHAR
STARTCHAR ibreve
ENCODING 301
SWIDTH 305 0
DWIDTH 3 0
BBX 4 9 0 0
BITMAP
90
E0
00
60
60
60
60
60
60
ENDCHAR
STARTCHAR Iogonek
ENCODING 302
SWIDTH 331 0
DWIDTH 4 0
BBX 2 11 1 -3
BITMAP
C0
C0
C0
C0
C0
C0
C0
C0
80
80
C0
ENDCHAR
STARTCHAR iogonek
ENCODING 303
SWIDTH 305 0
DWIDTH 3 0
BBX 3 11 0 -3
BITMAP
60
40
60
60
60
60
60
60
40
80
C0
ENDCHAR
STARTCHAR Idotaccent
ENCODING 304
SWIDTH 331 0
DWIDTH 4 0
BBX 2 11 1 0
BITMAP
80
C0
00
C0
C0
C0
C0
C0
C0
C0
C0
ENDCHAR
STARTCHAR dotlessi
ENCODING 305
SWIDTH 305 0
DWIDTH 3 0
BBX 2 6 1 0
BITMAP
C0
C0
C0
C0
C0
C0
ENDCHAR
STARTCHAR IJ
ENCODING 306
SWIDTH 720 0
DWIDTH 8 0
BBX 6 10 1 -2
BITMAP
CC
CC
CC
CC
CC
CC
CC
CC
0C
38
ENDCHAR
STARTCHAR ij
ENCODING 307
SWIDTH 590 0
DWIDTH 7 0
BBX 5 11 1 -3
BITMAP
D8
98
D8
D8
D8
D8
D8
D8
18
18
70
ENDCHAR
STARTCHAR Jcircumflex
ENCODING 308
SWIDTH 331 0
DWIDTH 4 0
BBX 5 13 -1 -2
BITMAP
30
48
00
30
30
30
30
30
30
30
30
20
E0
ENDCHAR
STARTCHAR jcircumflex
ENCODING 309
SWIDTH 305 0
DWIDTH 3 0
BBX 5 12 -1 -3
BITMAP
30
58
00
30
30
30
30
30
30
30
20
E0
ENDCHAR
STARTCHAR Kcommaaccent
ENCODING 310
SWIDTH 664 0
DWIDTH 7 0
BBX 6 11 1 -3
BITMAP
CC
D8
F0
F0
F0
D8
D8
CC
00
30
20
ENDCHAR
STARTCHAR kcommaaccent
ENCODING 311
SWIDTH 620 0
DWIDTH 7 0
BBX 6 11 1 -3
BITMAP
C0
C0
C8
90
A0
F0
D8
CC
00
20
20
ENDCHAR
STARTCHAR kgreenlandic
ENCODING 312
SWIDTH 620 0
DWIDTH 7 0
BBX 6 6 1 0
BITMAP
C8
D0
B0
F0
D8
CC
ENDCHAR
STARTCHAR Lacute
ENCODING 313
SWIDTH 564 0
DWIDTH 6 0
BBX 5 11 1 0
BITMAP
60
40
00
C0
C0
C0
C0
C0
C0
C0
F8
ENDCHAR
STARTCHAR lacute
ENCODING 314
SWIDTH 305 0
DWIDTH 3 0
BBX 3 11 1 0
BITMAP
60
C0
00
C0
C0
C0
C0
C0
C0
C0
C0
ENDCHAR
STARTCHAR Lcommaaccent
ENCODING 315
SWIDTH 564 0
DWIDTH 6 0
BBX 5 11 1 -3
BITMAP
C0
C0
C0
C0
C0
C0
C0
F8
00
20
20
ENDCHAR
STARTCHAR lcommaaccent
ENCODING 316
SWIDTH 305 0
DWIDTH 3 0
BBX 2 11 1 -3
BITMAP
C0
C0
C0
C0
C0
C0
C0
C0
00
80
80
ENDCHAR
STARTCHAR Lcaron
ENCODING 317
SWIDTH 564 0
DWIDTH 6 0
BBX 5 8 1 0
BITMAP
D8
D0
C0
C0
C0
C0
C0
F8
ENDCHAR
STARTCHAR lcaron
ENCODING 318
SWIDTH 305 0
DWIDTH 3 0
BBX 4 8 1 0
BITMAP
F0
E0
C0
C0
C0
C0
C0
C0
ENDCHAR
STARTCHAR Ldot
ENCODING 319
SWIDTH 564 0
DWIDTH 6 0
BBX 5 8 1 0
BITMAP
C0
C0
C0
D0
D0
C0
C0
F8
ENDCHAR
STARTCHAR ldot
ENCODING 320
SWIDTH 428 0
DWIDTH 5 0
BBX 4 8 1 0
BITMAP
C0
C0
C0
E0
F0
C0
C0
C0
ENDCHAR
STARTCHAR Lslash
ENCODING 321
SWIDTH 564 0
DWIDTH 6 0
BBX 6 8 0 0
BITMAP
60
60
70
70
E0
60
60
7C
ENDCHAR
STARTCHAR lslash
ENCODING 322
SWIDTH 330 0
DWIDTH 4 0
BBX 3 8 0 0
BITMAP
60
60
60
60
60
E0
60
60
ENDCHAR
STARTCHAR Nacute
ENCODING 323
SWIDTH 812 0
DWIDTH 9 0
BBX 7 11 1 0
BITMAP
08
10
00
C2
E2
B2
B2
9A
9A
8E
86
ENDCHAR
STARTCHAR nacute
ENCODING 324
SWIDTH 657 0
DWIDTH 7 0
BBX 5 9 1 0
BITMAP
18
20
00
B8
D8
C8
C8
C8
C8
ENDCHAR
STARTCHAR Ncommaaccent
ENCODING 325
SWIDTH 812 0
DWIDTH 9 0
BBX 7 11 1 -3
BITMAP
C2
E2
B2
B2
9A
9A
8E
86
00
10
30
ENDCHAR
STARTCHAR ncommaaccent
ENCODING 326
SWIDTH 657 0
DWIDTH 7 0
BBX 5 9 1 -3
BITMAP
B8
D8
C8
C8
C8
C8
00
20
20
ENDCHAR
STARTCHAR Ncaron
ENCODING 327
SWIDTH 812 0
DWIDTH 9 0
BBX 7 11 1 0
BITMAP
2C
18
00
C2
E2
B2
B2
9A
9A
8E
86
ENDCHAR
STARTCHAR ncaron
ENCODING 328
SWIDTH 657 0
DWIDTH 7 0
BBX 5 9 1 0
BITMAP
48
30
00
B8
D8
C8
C8
C8
C8
ENDCHAR
STARTCHAR napostrophe
ENCODING 329
SWIDTH 778 0
DWIDTH 9 0
BBX 8 8 0 0
BITMAP
C0
C0
BE
32
33
33
33
33
ENDCHAR
STARTCHAR Eng
ENCODING 330
SWIDTH 812 0
DWIDTH 9 0
BBX 7 10 1 -2
BITMAP
C2
E2
B2
BA
9A
8E
86
86
06
1C
ENDCHAR
STARTCHAR eng
ENCODING 331
SWIDTH 657 0
DWIDTH 7 0
BBX 5 9 1 -3
BITMAP
B8
D8
C8
C8
C8
C8
08
18
38
ENDCHAR
STARTCHAR Omacron
ENCODING 332
SWIDTH 795 0
DWIDTH 9 0
BBX 7 10 1 0
BITMAP
38
00
7C
C6
C6
82
82
C6
C6
7C
ENDCHAR
STARTCHAR omacron
ENCODING 333
SWIDTH 619 0
DWIDTH 7 0
BBX 5 8 1 0
BITMAP
70
00
70
88
88
88
88
70
ENDCHAR
STARTCHAR Obreve
ENCODING 334
SWIDTH 795 0
DWIDTH 9 0
BBX 7 11 1 0
BITMAP
4C
38
00
7C
C6
C6
82
82
C6
C6
7C
ENDCHAR
STARTCHAR obreve
ENCODING 335
SWIDTH 619 0
DWIDTH 7 0
BBX 5 9 1 0
BITMAP
98
70
00
70
88
88
88
88
70
ENDCHAR
STARTCHAR Ohungarumlaut
ENCODING 336
SWIDTH 795 0
DWIDTH 9 0
BBX 7 11 1 0
BITMAP
3C
28
00
7C
C6
C6
82
82
C6
C6
7C
ENDCHAR
STARTCHAR ohungarumlaut
ENCODING 337
SWIDTH 619 0
DWIDTH 7 0
BBX 5 9 1 0
BITMAP
78
50
00
70
88
88
88
88
70
ENDCHAR
STARTCHAR OE
ENCODING 338
SWIDTH 973 0
DWIDTH 11 0
BBX 9 8 1 0
BITMAP
7F80
C400
C400
8780
8400
C400
C400
7F80
ENDCHAR
STARTCHAR oe
ENCODING 339
SWIDTH 978 0
DWIDTH 11 0
BBX 10 6 1 0
BITMAP
7780
9C80
8FC0
8800
9C00
7780
ENDCHAR
STARTCHAR Racute
ENCODING 340
SWIDTH 660 0
DWIDTH 7 0
BBX 6 11 1 0
BITMAP
10
20
00
F0
D8
C8
D8
F0
D0
D8
CC
ENDCHAR
STARTCHAR racute
ENCODING 341
SWIDTH 454 0
DWIDTH 5 0
BBX 4 9 1 0
BITMAP
30
60
00
B0
F0
C0
C0
C0
C0
ENDCHAR
STARTCHAR Rcommaaccent
ENCODING 342
SWIDTH 660 0
DWIDTH 7 0
BBX 6 11 1 -3
BITMAP
F0
D8
C8
D8
F0
D0
D8
CC
00
30
20
ENDCHAR
STARTCHAR rcommaaccent
ENCODING 343
SWIDTH 454 0
DWIDTH 5 0
BBX 4 9 1 -3
BITMAP
B0
F0
C0
C0
C0
C0
00
80
80
ENDCHAR
STARTCHAR Rcaron
ENCODING 344
SWIDTH 660 0
DWIDTH 7 0
BBX 6 11 1 0
BITMAP
58
30
00
F0
D8
C8
D8
F0
D0
D8
CC
ENDCHAR
STARTCHAR rcaron
ENCODING 345
SWIDTH 454 0
DWIDTH 5 0
BBX 4 9 1 0
BITMAP
90
60
00
B0
F0
C0
C0
C0
C0
ENDCHAR
STARTCHAR Sacute
ENCODING 346
SWIDTH 550 0
DWIDTH 6 0
BBX 6 11 0 0
BITMAP
18
10
00
78
40
40
70
38
0C
88
F8
ENDCHAR
STARTCHAR sacute
ENCODING 347
SWIDTH 497 0
DWIDTH 5 0
BBX 4 9 1 0
BITMAP
30
60
00
E0
80
E0
60
30
E0
ENDCHAR
STARTCHAR Scircumflex
ENCODING 348
SWIDTH 550 0
DWIDTH 6 0
BBX 6 11 0 0
BITMAP
38
68
00
78
40
40
70
38
0C
88
F8
ENDCHAR
STARTCHAR scircumflex
ENCODING 349
SWIDTH 497 0
DWIDTH 5 0
BBX 4 9 1 0
BITMAP
60
90
00
E0
80
E0
60
30
E0
ENDCHAR
STARTCHAR Scedilla
ENCODING 350
SWIDTH 550 0
DWIDTH 6 0
BBX 6 11 0 -3
BITMAP
78
40
40
70
38
0C
88
F8
20
10
30
ENDCHAR
STARTCHAR scedilla
ENCODING 351
SWIDTH 497 0
DWIDTH 5 0
BBX 4 9 1 -3
BITMAP
E0
80
E0
60
30
E0
40
60
E0
ENDCHAR
STARTCHAR Scaron
ENCODING 352
SWIDTH 550 0
DWIDTH 6 0
BBX 6 11 0 0
BITMAP
68
38
00
78
40
40
70
38
0C
88
F8
ENDCHAR
STARTCHAR scaron
ENCODING 353
SWIDTH 497 0
DWIDTH 5 0
BBX 4 9 1 0
BITMAP
90
60
00
E0
80
E0
60
30
E0
ENDCHAR
STARTCHAR Tcedilla
ENCODING 354
SWIDTH 579 0
DWIDTH 6 0
BBX 6 11 0 -3
BITMAP
FC
30
30
30
30
30
30
30
30
10
30
ENDCHAR
STARTCHAR tcedilla
ENCODING 355
SWIDTH 434 0
DWIDTH 5 0
BBX 5 10 0 -3
BITMAP
60
F8
60
60
60
60
38
20
10
70
ENDCHAR
STARTCHAR Tcaron
ENCODING 356
SWIDTH 579 0
DWIDTH 6 0
BBX 6 11 0 0
BITMAP
68
38
00
FC
30
30
30
30
30
30
30
ENDCHAR
STARTCHAR tcaron
ENCODING 357
SWIDTH 434 0
DWIDTH 5 0
BBX 5 8 0 0
BITMAP
08
68
F8
60
60
60
60
38
ENDCHAR
STARTCHAR Tbar
ENCODING 358
SWIDTH 579 0
DWIDTH 6 0
BBX 6 8 0 0
BITMAP
FC
30
30
78
30
30
30
30
ENDCHAR
STARTCHAR tbar
ENCODING 359
SWIDTH 434 0
DWIDTH 5 0
BBX 5 7 0 0
BITMAP
60
F8
60
F0
60
60
38
ENDCHAR
STARTCHAR Utilde
ENCODING 360
SWIDTH 755 0
DWIDTH 8 0
BBX 6 11 1 0
BITMAP
24
58
00
CC
CC
CC
CC
CC
CC
CC
78
ENDCHAR
STARTCHAR utilde
ENCODING 361
SWIDTH 657 0
DWIDTH 7 0
BBX 5 9 1 0
BITMAP
68
90
00
98
98
98
98
D8
E8
ENDCHAR
STARTCHAR Umacron
ENCODING 362
SWIDTH 755 0
DWIDTH 8 0
BBX 6 10 1 0
BITMAP
78
00
CC
CC
CC
CC
CC
CC
CC
78
ENDCHAR
STARTCHAR umacron
ENCODING 363
SWIDTH 657 0
DWIDTH 7 0
BBX 5 8 1 0
BITMAP
70
00
98
98
98
98
D8
E8
ENDCHAR
STARTCHAR Ubreve
ENCODING 364
SWIDTH 755 0
DWIDTH 8 0
BBX 6 11 1 0
BITMAP
48
38
00
CC
CC
CC
CC
CC
CC
CC
78
ENDCHAR
STARTCHAR ubreve
ENCODING 365
SWIDTH 657 0
DWIDTH 7 0
BBX 5 9 1 0
BITMAP
48
70
00
98
98
98
98
D8
E8
ENDCHAR
STARTCHAR Uring
ENCODING 366
SWIDTH 755 0
DWIDTH 8 0
BBX 6 12 1 0
BITMAP
30
30
30
00
CC
CC
CC
CC
CC
CC
CC
78
ENDCHAR
STARTCHAR uring
ENCODING 367
SWIDTH 657 0
DWIDTH 7 0
BBX 5 10 1 0
BITMAP
60
50
60
00
98
98
98
98
D8
E8
ENDCHAR
STARTCHAR Uhungarumlaut
ENCODING 368
SWIDTH 755 0
DWIDTH 8 0
BBX 6 11 1 0
BITMAP
3C
28
00
CC
CC
CC
CC
CC
CC
CC
78
ENDCHAR
STARTCHAR uhungarumlaut
ENCODING 369
SWIDTH 657 0
DWIDTH 7 0
BBX 5 9 1 0
BITMAP
28
50
00
98
98
98
98
D8
E8
ENDCHAR
STARTCHAR Uogonek
ENCODING 370
SWIDTH 755 0
DWIDTH 8 0
BBX 6 11 1 -3
BITMAP
CC
CC
CC
CC
CC
CC
CC
78
10
20
30
ENDCHAR
STARTCHAR uogonek
ENCODING 371
SWIDTH 657 0
DWIDTH 7 0
BBX 5 9 1 -3
BITMAP
98
98
98
98
D8
E8
10
10
18
ENDCHAR
STARTCHAR Wcircumflex
ENCODING 372
SWIDTH 966 0
DWIDTH 11 0
BBX 11 11 0 0
BITMAP
0E00
1B00
0000
C460
CE60
4A40
4A40
7BC0
7BC0
3180
3180
ENDCHAR
STARTCHAR wcircumflex
ENCODING 373
SWIDTH 855 0
DWIDTH 9 0
BBX 9 9 0 0
BITMAP
0C00
1200
0000
DD80
5500
5500
7700
7700
3600
ENDCHAR
STARTCHAR Ycircumflex
ENCODING 374
SWIDTH 624 0
DWIDTH 7 0
BBX 7 11 0 0
BITMAP
38
2C
00
C6
6C
6C
38
38
10
10
10
ENDCHAR
STARTCHAR ycircumflex
ENCODING 375
SWIDTH 568 0
DWIDTH 6 0
BBX 6 12 0 -3
BITMAP
38
68
00
CC
48
68
78
30
30
30
20
E0
ENDCHAR
STARTCHAR Ydieresis
ENCODING 376
SWIDTH 624 0
DWIDTH 7 0
BBX 7 10 0 0
BITMAP
28
00
C6
6C
6C
38
38
10
10
10
ENDCHAR
STARTCHAR Zacute
ENCODING 377
SWIDTH 579 0
DWIDTH 6 0
BBX 6 11 0 0
BITMAP
18
10
00
FC
18
18
30
30
60
60
FC
ENDCHAR
STARTCHAR zacute
ENCODING 378
SWIDTH 487 0
DWIDTH 5 0
BBX 5 9 0 0
BITMAP
18
30
00
F8
30
30
60
60
F8
ENDCHAR
STARTCHAR Zdotaccent
ENCODING 379
SWIDTH 579 0
DWIDTH 6 0
BBX 6 11 0 0
BITMAP
10
30
00
FC
18
18
30
30
60
60
FC
ENDCHAR
STARTCHAR zdotaccent
ENCODING 380
SWIDTH 487 0
DWIDTH 5 0
BBX 5 9 0 0
BITMAP
20
20
00
F8
30
30
60
60
F8
ENDCHAR
STARTCHAR Zcaron
ENCODING 381
SWIDTH 579 0
DWIDTH 6 0
BBX 6 11 0 0
BITMAP
68
38
00
FC
18
18
30
30
60
60
FC
ENDCHAR
STARTCHAR zcaron
ENCODING 382
SWIDTH 487 0
DWIDTH 5 0
BBX 5 9 0 0
BITMAP
48
30
00
F8
30
30
60
60
F8
ENDCHAR
STARTCHAR longs
ENCODING 383
SWIDTH 382 0
DWIDTH 4 0
BBX 3 8 1 0
BITMAP
E0
C0
C0
C0
C0
C0
C0
C0
ENDCHAR
STARTCHAR florin
ENCODING 402
SWIDTH 570 0
DWIDTH 6 0
BBX 5 11 1 -3
BITMAP
38
60
F0
60
60
60
60
60
60
60
C0
ENDCHAR
STARTCHAR Ohorn
ENCODING 416
SWIDTH 825 0
DWIDTH 9 0
BBX 9 9 1 0
BITMAP
0180
7D00
C700
C600
8200
8200
C600
C600
7C00
ENDCHAR
STARTCHAR ohorn
ENCODING 417
SWIDTH 679 0
DWIDTH 7 0
BBX 7 7 1 0
BITMAP
06
76
88
88
88
88
70
ENDCHAR
STARTCHAR Uhorn
ENCODING 431
SWIDTH 884 0
DWIDTH 10 0
BBX 8 9 1 0
BITMAP
01
CD
CE
CC
CC
CC
CC
CC
78
ENDCHAR
STARTCHAR uhorn
ENCODING 432
SWIDTH 759 0
DWIDTH 8 0
BBX 8 7 1 0
BITMAP
03
9A
9E
98
98
D8
E8
ENDCHAR
STARTCHAR uni01F0
ENCODING 496
SWIDTH 305 0
DWIDTH 3 0
BBX 5 12 -1 -3
BITMAP
58
30
00
30
30
30
30
30
30
30
20
E0
ENDCHAR
STARTCHAR Aringacute
ENCODING 506
SWIDTH 689 0
DWIDTH 8 0
BBX 8 10 0 0
BITMAP
08
18
18
18
3C
24
24
7E
42
C3
ENDCHAR
STARTCHAR aringacute
ENCODING 507
SWIDTH 604 0
DWIDTH 7 0
BBX 5 10 1 0
BITMAP
30
20
50
20
F0
08
F8
88
98
E8
ENDCHAR
STARTCHAR AEacute
ENCODING 508
SWIDTH 952 0
DWIDTH 10 0
BBX 9 11 0 0
BITMAP
0300
0200
0000
1F80
1600
3600
2780
6600
7E00
4600
C780
ENDCHAR
STARTCHAR aeacute
ENCODING 509
SWIDTH 916 0
DWIDTH 10 0
BBX 9 9 1 0
BITMAP
0C00
0800
0000
FF00
1900
FF80
9800
9800
EF00
ENDCHAR
STARTCHAR Oslashacute
ENCODING 510
SWIDTH 795 0
DWIDTH 9 0
BBX 7 11 1 0
BITMAP
18
10
00
7E
CE
CE
9A
92
E6
E6
FC
ENDCHAR
STARTCHAR oslashacute
ENCODING 511
SWIDTH 619 0
DWIDTH 7 0
BBX 5 9 1 0
BITMAP
30
20
00
78
98
B8
A8
C8
F0
ENDCHAR
STARTCHAR Scommaaccent
ENCODING 536
SWIDTH 550 0
DWIDTH 6 0
BBX 6 11 0 -3
BITMAP
78
40
40
70
38
0C
88
F8
00
30
20
ENDCHAR
STARTCHAR scommaaccent
ENCODING 537
SWIDTH 497 0
DWIDTH 5 0
BBX 4 9 1 -3
BITMAP
E0
80
E0
60
30
E0
00
40
40
ENDCHAR
STARTCHAR Tcommaaccent
ENCODING 538
SWIDTH 579 0
DWIDTH 6 0
BBX 6 11 0 -3
BITMAP
FC
30
30
30
30
30
30
30
00
10
30
ENDCHAR
STARTCHAR tcommaaccent
ENCODING 539
SWIDTH 434 0
DWIDTH 5 0
BBX 5 10 0 -3
BITMAP
60
F8
60
60
60
60
38
00
20
20
ENDCHAR
STARTCHAR dotlessj
ENCODING 567
SWIDTH 305 0
DWIDTH 3 0
BBX 4 9 -1 -3
BITMAP
30
30
30
30
30
30
30
20
E0
ENDCHAR
STARTCHAR uni02BC
ENCODING 700
SWIDTH 216 0
DWIDTH 2 0
BBX 2 3 0 5
BITMAP
40
C0
C0
ENDCHAR
STARTCHAR circumflex
ENCODING 710
SWIDTH 606 0
DWIDTH 7 0
BBX 5 2 1 7
BITMAP
70
D8
ENDCHAR
STARTCHAR caron
ENCODING 711
SWIDTH 606 0
DWIDTH 7 0
BBX 5 2 1 7
BITMAP
D8
70
ENDCHAR
STARTCHAR macron
ENCODING 713
SWIDTH 606 0
DWIDTH 7 0
BBX 3 1 2 7
BITMAP
E0
ENDCHAR
STARTCHAR breve
ENCODING 728
SWIDTH 606 0
DWIDTH 7 0
BBX 4 2 1 7
BITMAP
90
70
ENDCHAR
STARTCHAR dotaccent
ENCODING 729
SWIDTH 305 0
DWIDTH 3 0
BBX 1 2 1 7
BITMAP
80
80
ENDCHAR
STARTCHAR ring
ENCODING 730
SWIDTH 577 0
DWIDTH 6 0
BBX 2 3 2 7
BITMAP
C0
C0
C0
ENDCHAR
STARTCHAR ogonek
ENCODING 731
SWIDTH 206 0
DWIDTH 2 0
BBX 2 3 0 -3
BITMAP
80
80
C0
ENDCHAR
STARTCHAR tilde
ENCODING 732
SWIDTH 606 0
DWIDTH 7 0
BBX 5 2 1 7
BITMAP
68
B0
ENDCHAR
STARTCHAR hungarumlaut
ENCODING 733
SWIDTH 587 0
DWIDTH 6 0
BBX 4 2 1 7
BITMAP
50
A0
ENDCHAR
STARTCHAR uni02F3
ENCODING 755
SWIDTH 333 0
DWIDTH 4 0
BBX 2 2 1 -3
BITMAP
C0
C0
ENDCHAR
STARTCHAR uni0300
ENCODING 768
SWIDTH 0 0
DWIDTH 0 0
BBX 3 2 -5 7
BITMAP
C0
60
ENDCHAR
STARTCHAR uni0301
ENCODING 769
SWIDTH 0 0
DWIDTH 0 0
BBX 2 2 -4 7
BITMAP
40
80
ENDCHAR
STARTCHAR uni0303
ENCODING 771
SWIDTH 0 0
DWIDTH 0 0
BBX 5 2 -6 7
BITMAP
68
90
ENDCHAR
STARTCHAR hook
ENCODING 777
SWIDTH 0 0
DWIDTH 0 0
BBX 2 3 -4 7
BITMAP
C0
40
80
ENDCHAR
STARTCHAR uni030F
ENCODING 783
SWIDTH 0 0
DWIDTH 0 0
BBX 4 2 -6 7
BITMAP
F0
50
ENDCHAR
STARTCHAR dotbelow
ENCODING 803
SWIDTH 0 0
DWIDTH 0 0
BBX 1 2 -4 -3
BITMAP
80
80
ENDCHAR
STARTCHAR tonos
ENCODING 900
SWIDTH 577 0
DWIDTH 6 0
BBX 2 2 2 7
BITMAP
40
C0
ENDCHAR
STARTCHAR dieresistonos
ENCODING 901
SWIDTH 577 0
DWIDTH 6 0
BBX 4 2 1 7
BITMAP
20
90
ENDCHAR
STARTCHAR Alphatonos
ENCODING 902
SWIDTH 689 0
DWIDTH 8 0
BBX 8 8 0 0
BITMAP
98
BC
3C
24
66
7E
42
C3
ENDCHAR
STARTCHAR anoteleia
ENCODING 903
SWIDTH 285 0
DWIDTH 3 0
BBX 1 2 1 3
BITMAP
80
80
ENDCHAR
STARTCHAR Epsilontonos
ENCODING 904
SWIDTH 629 0
DWIDTH 7 0
BBX 7 8 -1 0
BITMAP
5E
D0
10
1E
10
10
10
1E
ENDCHAR
STARTCHAR Etatonos
ENCODING 905
SWIDTH 834 0
DWIDTH 9 0
BBX 9 8 -1 0
BITMAP
5180
D180
1180
1F80
1180
1180
1180
1180
ENDCHAR
STARTCHAR Iotatonos
ENCODING 906
SWIDTH 512 0
DWIDTH 6 0
BBX 5 8 -1 0
BITMAP
58
D8
18
18
18
18
18
18
ENDCHAR
STARTCHAR Omicrontonos
ENCODING 908
SWIDTH 835 0
DWIDTH 9 0
BBX 9 8 0 0
BITMAP
9E00
B300
6180
6180
6180
6180
3300
1E00
ENDCHAR
STARTCHAR Upsilontonos
ENCODING 910
SWIDTH 764 0
DWIDTH 8 0
BBX 9 8 -1 0
BITMAP
5980
9980
0F00
0F00
0600
0600
0600
0600
ENDCHAR
STARTCHAR Omegatonos
ENCODING 911
SWIDTH 786 0
DWIDTH 9 0
BBX 9 8 0 0
BITMAP
9E00
B300
6180
6180
6180
2100
3300
7380
ENDCHAR
STARTCHAR iotadieresistonos
ENCODING 912
SWIDTH 407 0
DWIDTH 4 0
BBX 4 9 0 0
BITMAP
60
B0
00
60
60
60
60
60
70
ENDCHAR
STARTCHAR Alpha
ENCODING 913
SWIDTH 689 0
DWIDTH 8 0
BBX 8 8 0 0
BITMAP
18
3C
3C
24
66
7E
42
C3
ENDCHAR
STARTCHAR Beta
ENCODING 914
SWIDTH 671 0
DWIDTH 7 0
BBX 5 8 1 0
BITMAP
F8
D8
D8
F0
D8
C8
D8
F0
ENDCHAR
STARTCHAR Gamma
ENCODING 915
SWIDTH 561 0
DWIDTH 6 0
BBX 5 8 1 0
BITMAP
F8
C0
C0
C0
C0
C0
C0
C0
ENDCHAR
STARTCHAR uni0394
ENCODING 916
SWIDTH 658 0
DWIDTH 7 0
BBX 7 8 0 0
BITMAP
38
28
28
6C
6C
44
C6
FE
ENDCHAR
STARTCHAR Epsilon
ENCODING 917
SWIDTH 560 0
DWIDTH 6 0
BBX 4 8 1 0
BITMAP
F0
C0
C0
F0
C0
C0
C0
F0
ENDCHAR
STARTCHAR Zeta
ENCODING 918
SWIDTH 579 0
DWIDTH 6 0
BBX 6 8 0 0
BITMAP
FC
18
18
30
30
60
60
FC
ENDCHAR
STARTCHAR Eta
ENCODING 919
SWIDTH 765 0
DWIDTH 8 0
BBX 6 8 1 0
BITMAP
CC
CC
CC
FC
CC
CC
CC
CC
ENDCHAR
STARTCHAR Theta
ENCODING 920
SWIDTH 795 0
DWIDTH 9 0
BBX 7 8 1 0
BITMAP
7C
C6
C6
BA
82
C6
C6
7C
ENDCHAR
STARTCHAR Iota
ENCODING 921
SWIDTH 331 0
DWIDTH 4 0
BBX 2 8 1 0
BITMAP
C0
C0
C0
C0
C0
C0
C0
C0
ENDCHAR
STARTCHAR Kappa
ENCODING 922
SWIDTH 664 0
DWIDTH 7 0
BBX 6 8 1 0
BITMAP
CC
D8
F0
F0
F0
D8
D8
CC
ENDCHAR
STARTCHAR Lambda
ENCODING 923
SWIDTH 649 0
DWIDTH 7 0
BBX 7 8 0 0
BITMAP
38
28
28
6C
6C
44
C6
C6
ENDCHAR
STARTCHAR Mu
ENCODING 924
SWIDTH 942 0
DWIDTH 10 0
BBX 8 8 1 0
BITMAP
C3
E7
A7
A7
AF
BB
9B
9B
ENDCHAR
STARTCHAR Nu
ENCODING 925
SWIDTH 812 0
DWIDTH 9 0
BBX 7 8 1 0
BITMAP
C2
E2
B2
B2
9A
9A
8E
86
ENDCHAR
STARTCHAR Xi
ENCODING 926
SWIDTH 570 0
DWIDTH 6 0
BBX 6 8 0 0
BITMAP
78
00
00
78
00
00
00
FC
ENDCHAR
STARTCHAR Omicron
ENCODING 927
SWIDTH 795 0
DWIDTH 9 0
BBX 7 8 1 0
BITMAP
7C
C6
C6
82
82
C6
C6
7C
ENDCHAR
STARTCHAR Pi
ENCODING 928
SWIDTH 745 0
DWIDTH 8 0
BBX 6 8 1 0
BITMAP
FC
CC
CC
CC
CC
CC
CC
CC
ENDCHAR
STARTCHAR Rho
ENCODING 929
SWIDTH 627 0
DWIDTH 7 0
BBX 5 8 1 0
BITMAP
F8
C8
C8
C8
F0
C0
C0
C0
ENDCHAR
STARTCHAR Sigma
ENCODING 931
SWIDTH 592 0
DWIDTH 7 0
BBX 7 8 0 0
BITMAP
FC
60
30
18
10
20
60
FE
ENDCHAR
STARTCHAR Tau
ENCODING 932
SWIDTH 579 0
DWIDTH 6 0
BBX 6 8 0 0
BITMAP
FC
30
30
30
30
30
30
30
ENDCHAR
STARTCHAR Upsilon
ENCODING 933
SWIDTH 624 0
DWIDTH 7 0
BBX 7 8 0 0
BITMAP
C6
6C
6C
38
38
10
10
10
ENDCHAR
STARTCHAR Phi
ENCODING 934
SWIDTH 859 0
DWIDTH 9 0
BBX 7 8 1 0
BITMAP
10
7C
92
92
92
D6
7C
10
ENDCHAR
STARTCHAR Chi
ENCODING 935
SWIDTH 666 0
DWIDTH 7 0
BBX 7 8 0 0
BITMAP
C6
6C
28
38
38
68
6C
C6
ENDCHAR
STARTCHAR Psi
ENCODING 936
SWIDTH 875 0
DWIDTH 10 0
BBX 8 8 1 0
BITMAP
99
99
99
99
7E
18
18
18
ENDCHAR
STARTCHAR uni03A9
ENCODING 937
SWIDTH 786 0
DWIDTH 9 0
BBX 9 8 0 0
BITMAP
3E00
6300
4100
4100
4100
6300
2200
F780
ENDCHAR
STARTCHAR Iotadieresis
ENCODING 938
SWIDTH 331 0
DWIDTH 4 0
BBX 4 10 0 0
BITMAP
F0
00
60
60
60
60
60
60
60
60
ENDCHAR
STARTCHAR Upsilondieresis
ENCODING 939
SWIDTH 624 0
DWIDTH 7 0
BBX 7 10 0 0
BITMAP
28
00
C6
6C
6C
38
38
10
10
10
ENDCHAR
STARTCHAR alphatonos
ENCODING 940
SWIDTH 646 0
DWIDTH 7 0
BBX 6 9 1 0
BITMAP
20
20
00
E8
98
98
98
98
EC
ENDCHAR
STARTCHAR epsilontonos
ENCODING 941
SWIDTH 555 0
DWIDTH 6 0
BBX 6 9 0 0
BITMAP
10
10
00
7C
40
30
40
C0
7C
ENDCHAR
STARTCHAR etatonos
ENCODING 942
SWIDTH 657 0
DWIDTH 7 0
BBX 5 12 1 -3
BITMAP
30
20
00
B8
D8
C8
C8
C8
C8
08
08
08
ENDCHAR
STARTCHAR iotatonos
ENCODING 943
SWIDTH 407 0
DWIDTH 4 0
BBX 3 9 1 0
BITMAP
C0
80
00
C0
C0
C0
C0
C0
E0
ENDCHAR
STARTCHAR upsilondieresistonos
ENCODING 944
SWIDTH 645 0
DWIDTH 7 0
BBX 5 9 1 0
BITMAP
20
D0
00
88
88
88
88
D8
70
ENDCHAR
STARTCHAR alpha
ENCODING 945
SWIDTH 646 0
DWIDTH 7 0
BBX 6 6 1 0
BITMAP
E8
98
98
98
98
EC
ENDCHAR
STARTCHAR beta
ENCODING 946
SWIDTH 660 0
DWIDTH 7 0
BBX 6 11 1 -3
BITMAP
78
D8
D8
F0
C8
CC
C8
F8
C0
C0
C0
ENDCHAR
STARTCHAR gamma
ENCODING 947
SWIDTH 567 0
DWIDTH 6 0
BBX 6 9 0 -3
BITMAP
CC
48
48
78
30
30
30
30
20
ENDCHAR
STARTCHAR delta
ENCODING 948
SWIDTH 619 0
DWIDTH 7 0
BBX 6 8 1 0
BITMAP
78
C0
60
78
D8
8C
88
F8
ENDCHAR
STARTCHAR epsilon
ENCODING 949
SWIDTH 555 0
DWIDTH 6 0
BBX 6 6 0 0
BITMAP
7C
40
30
40
C0
7C
ENDCHAR
STARTCHAR zeta
ENCODING 950
SWIDTH 498 0
DWIDTH 5 0
BBX 5 10 0 -2
BITMAP
78
30
20
60
40
C0
60
78
18
18
ENDCHAR
STARTCHAR eta
ENCODING 951
SWIDTH 657 0
DWIDTH 7 0
BBX 5 9 1 -3
BITMAP
B8
D8
C8
C8
C8
C8
08
08
08
ENDCHAR
STARTCHAR theta
ENCODING 952
SWIDTH 618 0
DWIDTH 7 0
BBX 6 8 1 0
BITMAP
70
D8
88
FC
8C
88
D8
70
ENDCHAR
STARTCHAR iota
ENCODING 953
SWIDTH 407 0
DWIDTH 4 0
BBX 3 6 1 0
BITMAP
C0
C0
C0
C0
C0
E0
ENDCHAR
STARTCHAR kappa
ENCODING 954
SWIDTH 620 0
DWIDTH 7 0
BBX 6 6 1 0
BITMAP
C8
D0
B0
F0
D8
CC
ENDCHAR
STARTCHAR lambda
ENCODING 955
SWIDTH 615 0
DWIDTH 7 0
BBX 7 8 0 0
BITMAP
60
30
10
38
38
68
4C
C6
ENDCHAR
STARTCHAR uni03BC
ENCODING 956
SWIDTH 660 0
DWIDTH 7 0
BBX 5 9 1 -3
BITMAP
D8
D8
D8
D8
D8
E8
80
C0
C0
ENDCHAR
STARTCHAR nu
ENCODING 957
SWIDTH 595 0
DWIDTH 7 0
BBX 7 6 0 0
BITMAP
C6
44
64
6C
28
38
ENDCHAR
STARTCHAR xi
ENCODING 958
SWIDTH 498 0
DWIDTH 5 0
BBX 4 10 1 -2
BITMAP
F0
C0
80
60
80
80
C0
F0
30
30
ENDCHAR
STARTCHAR omicron
ENCODING 959
SWIDTH 619 0
DWIDTH 7 0
BBX 5 6 1 0
BITMAP
70
88
88
88
88
70
ENDCHAR
STARTCHAR pi
ENCODING 960
SWIDTH 738 0
DWIDTH 8 0
BBX 8 6 0 0
BITMAP
FF
64
64
64
64
67
ENDCHAR
STARTCHAR rho
ENCODING 961
SWIDTH 618 0
DWIDTH 7 0
BBX 5 9 1 -3
BITMAP
70
C8
88
88
88
F8
80
80
80
ENDCHAR
STARTCHAR sigma1
ENCODING 962
SWIDTH 498 0
DWIDTH 5 0
BBX 4 8 1 -2
BITMAP
F0
80
80
80
C0
70
30
30
ENDCHAR
STARTCHAR sigma
ENCODING 963
SWIDTH 652 0
DWIDTH 7 0
BBX 6 6 1 0
BITMAP
7C
D8
98
88
98
70
ENDCHAR
STARTCHAR tau
ENCODING 964
SWIDTH 538 0
DWIDTH 6 0
BBX 6 6 0 0
BITMAP
FC
20
20
20
20
38
ENDCHAR
STARTCHAR upsilon
ENCODING 965
SWIDTH 645 0
DWIDTH 7 0
BBX 5 6 1 0
BITMAP
88
88
88
88
D8
70
ENDCHAR
STARTCHAR phi
ENCODING 966
SWIDTH 791 0
DWIDTH 9 0
BBX 7 9 1 -3
BITMAP
9C
92
92
92
D6
7C
10
10
10
ENDCHAR
STARTCHAR chi
ENCODING 967
SWIDTH 591 0
DWIDTH 7 0
BBX 7 9 0 -3
BITMAP
E6
24
3C
18
38
28
68
4C
C6
ENDCHAR
STARTCHAR psi
ENCODING 968
SWIDTH 836 0
DWIDTH 9 0
BBX 7 11 1 -3
BITMAP
10
10
92
92
92
92
D2
7C
10
10
10
ENDCHAR
STARTCHAR omega
ENCODING 969
SWIDTH 862 0
DWIDTH 9 0
BBX 7 6 1 0
BITMAP
C6
82
92
92
92
EE
ENDCHAR
STARTCHAR iotadieresis
ENCODING 970
SWIDTH 407 0
DWIDTH 4 0
BBX 4 8 0 0
BITMAP
F0
00
60
60
60
60
60
70
ENDCHAR
STARTCHAR upsilondieresis
ENCODING 971
SWIDTH 645 0
DWIDTH 7 0
BBX 5 8 1 0
BITMAP
50
00
88
88
88
88
D8
70
ENDCHAR
STARTCHAR omicrontonos
ENCODING 972
SWIDTH 619 0
DWIDTH 7 0
BBX 5 9 1 0
BITMAP
30
20
00
70
88
88
88
88
70
ENDCHAR
STARTCHAR upsilontonos
ENCODING 973
SWIDTH 645 0
DWIDTH 7 0
BBX 5 9 1 0
BITMAP
30
20
00
88
88
88
88
D8
70
ENDCHAR
STARTCHAR omegatonos
ENCODING 974
SWIDTH 862 0
DWIDTH 9 0
BBX 7 9 1 0
BITMAP
18
10
00
C6
82
92
92
92
EE
ENDCHAR
STARTCHAR uni03D1
ENCODING 977
SWIDTH 731 0
DWIDTH 8 0
BBX 8 8 0 0
BITMAP
3C
24
36
1F
E6
66
66
3C
ENDCHAR
STARTCHAR uni03D2
ENCODING 978
SWIDTH 630 0
DWIDTH 7 0
BBX 7 8 0 0
BITMAP
C6
6C
68
38
30
10
10
10
ENDCHAR
STARTCHAR uni03D6
ENCODING 982
SWIDTH 999 0
DWIDTH 11 0
BBX 11 6 0 0
BITMAP
FFE0
2080
60C0
64C0
2480
3B80
ENDCHAR
STARTCHAR uni0400
ENCODING 1024
SWIDTH 560 0
DWIDTH 6 0
BBX 4 11 1 0
BITMAP
40
20
00
F0
C0
C0
F0
C0
C0
C0
F0
ENDCHAR
STARTCHAR afii10023
ENCODING 1025
SWIDTH 560 0
DWIDTH 6 0
BBX 4 10 1 0
BITMAP
50
00
F0
C0
C0
F0
C0
C0
C0
F0
ENDCHAR
STARTCHAR afii10051
ENCODING 1026
SWIDTH 805 0
DWIDTH 9 0
BBX 8 8 0 0
BITMAP
FC
30
30
3F
31
31
31
37
ENDCHAR
STARTCHAR afii10052
ENCODING 1027
SWIDTH 561 0
DWIDTH 6 0
BBX 5 11 1 0
BITMAP
10
20
00
F8
C0
C0
C0
C0
C0
C0
C0
ENDCHAR
STARTCHAR afii10053
ENCODING 1028
SWIDTH 676 0
DWIDTH 7 0
BBX 6 8 1 0
BITMAP
7C
C0
80
F0
80
C0
C0
78
ENDCHAR
STARTCHAR afii10054
ENCODING 1029
SWIDTH 550 0
DWIDTH 6 0
BBX 6 8 0 0
BITMAP
78
40
40
70
38
0C
88
F8
ENDCHAR
STARTCHAR afii10055
ENCODING 1030
SWIDTH 331 0
DWIDTH 4 0
BBX 2 8 1 0
BITMAP
C0
C0
C0
C0
C0
C0
C0
C0
ENDCHAR
STARTCHAR afii10056
ENCODING 1031
SWIDTH 331 0
DWIDTH 4 0
BBX 4 10 0 0
BITMAP
F0
00
60
60
60
60
60
60
60
60
ENDCHAR
STARTCHAR afii10057
ENCODING 1032
SWIDTH 331 0
DWIDTH 4 0
BBX 4 10 -1 -2
BITMAP
30
30
30
30
30
30
30
30
20
E0
ENDCHAR
STARTCHAR afii10058
ENCODING 1033
SWIDTH 999 0
DWIDTH 11 0
BBX 11 8 0 0
BITMAP
3E00
3600
2600
27C0
2640
6660
6640
C7C0
ENDCHAR
STARTCHAR afii10059
ENCODING 1034
SWIDTH 1001 0
DWIDTH 11 0
BBX 10 8 1 0
BITMAP
CC00
CC00
CC00
FF80
CC80
CCC0
CC80
CF80
ENDCHAR
STARTCHAR afii10060
ENCODING 1035
SWIDTH 805 0
DWIDTH 9 0
BBX 8 8 0 0
BITMAP
FC
30
30
3F
31
31
31
31
ENDCHAR
STARTCHAR afii10061
ENCODING 1036
SWIDTH 671 0
DWIDTH 7 0
BBX 6 11 1 0
BITMAP
18
30
00
CC
D8
D0
F0
F0
D0
D8
CC
ENDCHAR
STARTCHAR uni040D
ENCODING 1037
SWIDTH 823 0
DWIDTH 9 0
BBX 7 11 1 0
BITMAP
30
10
00
86
8E
8A
9A
B2
A2
E2
C2
ENDCHAR
STARTCHAR afii10062
ENCODING 1038
SWIDTH 652 0
DWIDTH 7 0
BBX 7 11 0 0
BITMAP
44
38
00
C6
44
6C
2C
38
18
30
E0
ENDCHAR
STARTCHAR afii10145
ENCODING 1039
SWIDTH 745 0
DWIDTH 8 0
BBX 6 10 1 -2
BITMAP
CC
CC
CC
CC
CC
CC
CC
FC
30
30
ENDCHAR
STARTCHAR afii10017
ENCODING 1040
SWIDTH 689 0
DWIDTH 8 0
BBX 8 8 0 0
BITMAP
18
3C
3C
24
66
7E
42
C3
ENDCHAR
STARTCHAR afii10018
ENCODING 1041
SWIDTH 638 0
DWIDTH 7 0
BBX 6 8 1 0
BITMAP
F8
C0
C0
F0
C8
CC
C8
F8
ENDCHAR
STARTCHAR afii10019
ENCODING 1042
SWIDTH 671 0
DWIDTH 7 0
BBX 5 8 1 0
BITMAP
F8
D8
D8
F0
D8
C8
D8
F0
ENDCHAR
STARTCHAR afii10020
ENCODING 1043
SWIDTH 561 0
DWIDTH 6 0
BBX 5 8 1 0
BITMAP
F8
C0
C0
C0
C0
C0
C0
C0
ENDCHAR
STARTCHAR afii10021
ENCODING 1044
SWIDTH 764 0
DWIDTH 8 0
BBX 8 10 0 -2
BITMAP
3E
36
26
26
66
66
66
FF
C3
C3
ENDCHAR
STARTCHAR afii10022
ENCODING 1045
SWIDTH 560 0
DWIDTH 6 0
BBX 4 8 1 0
BITMAP
F0
C0
C0
F0
C0
C0
C0
F0
ENDCHAR
STARTCHAR afii10024
ENCODING 1046
SWIDTH 942 0
DWIDTH 10 0
BBX 10 8 0 0
BITMAP
CCC0
6D80
2D00
3F00
3F00
2D00
6D80
CCC0
ENDCHAR
STARTCHAR afii10025
ENCODING 1047
SWIDTH 647 0
DWIDTH 7 0
BBX 6 8 1 0
BITMAP
F8
08
18
60
18
0C
08
F0
ENDCHAR
STARTCHAR afii10026
ENCODING 1048
SWIDTH 823 0
DWIDTH 9 0
BBX 7 8 1 0
BITMAP
86
8E
8A
9A
B2
A2
E2
C2
ENDCHAR
STARTCHAR afii10027
ENCODING 1049
SWIDTH 823 0
DWIDTH 9 0
BBX 7 11 1 0
BITMAP
4C
78
00
86
8E
8A
9A
B2
A2
E2
C2
ENDCHAR
STARTCHAR afii10028
ENCODING 1050
SWIDTH 671 0
DWIDTH 7 0
BBX 6 8 1 0
BITMAP
CC
D8
D0
F0
F0
D0
D8
CC
ENDCHAR
STARTCHAR afii10029
ENCODING 1051
SWIDTH 745 0
DWIDTH 8 0
BBX 7 8 0 0
BITMAP
3E
26
26
26
26
66
66
C6
ENDCHAR
STARTCHAR afii10030
ENCODING 1052
SWIDTH 942 0
DWIDTH 10 0
BBX 8 8 1 0
BITMAP
C3
E7
A7
A7
AF
BB
9B
9B
ENDCHAR
STARTCHAR afii10031
ENCODING 1053
SWIDTH 765 0
DWIDTH 8 0
BBX 6 8 1 0
BITMAP
CC
CC
CC
FC
CC
CC
CC
CC
ENDCHAR
STARTCHAR afii10032
ENCODING 1054
SWIDTH 795 0
DWIDTH 9 0
BBX 7 8 1 0
BITMAP
7C
C6
C6
82
82
C6
C6
7C
ENDCHAR
STARTCHAR afii10033
ENCODING 1055
SWIDTH 745 0
DWIDTH 8 0
BBX 6 8 1 0
BITMAP
FC
CC
CC
CC
CC
CC
CC
CC
ENDCHAR
STARTCHAR afii10034
ENCODING 1056
SWIDTH 627 0
DWIDTH 7 0
BBX 5 8 1 0
BITMAP
F8
C8
C8
C8
F0
C0
C0
C0
ENDCHAR
STARTCHAR afii10035
ENCODING 1057
SWIDTH 637 0
DWIDTH 7 0
BBX 6 8 1 0
BITMAP
7C
C0
C0
80
80
C0
C0
78
ENDCHAR
STARTCHAR afii10036
ENCODING 1058
SWIDTH 579 0
DWIDTH 6 0
BBX 6 8 0 0
BITMAP
FC
30
30
30
30
30
30
30
ENDCHAR
STARTCHAR afii10037
ENCODING 1059
SWIDTH 652 0
DWIDTH 7 0
BBX 7 8 0 0
BITMAP
C6
44
6C
2C
38
18
30
E0
ENDCHAR
STARTCHAR afii10038
ENCODING 1060
SWIDTH 859 0
DWIDTH 9 0
BBX 7 8 1 0
BITMAP
10
7C
92
92
92
D6
7C
10
ENDCHAR
STARTCHAR afii10039
ENCODING 1061
SWIDTH 666 0
DWIDTH 7 0
BBX 7 8 0 0
BITMAP
C6
6C
28
38
38
68
6C
C6
ENDCHAR
STARTCHAR afii10040
ENCODING 1062
SWIDTH 780 0
DWIDTH 9 0
BBX 8 10 1 -2
BITMAP
C6
C6
C6
C6
C6
C6
C6
FF
03
03
ENDCHAR
STARTCHAR afii10041
ENCODING 1063
SWIDTH 728 0
DWIDTH 8 0
BBX 6 8 1 0
BITMAP
8C
8C
8C
8C
FC
0C
0C
0C
ENDCHAR
STARTCHAR afii10042
ENCODING 1064
SWIDTH 1078 0
DWIDTH 12 0
BBX 10 8 1 0
BITMAP
CCC0
CCC0
CCC0
CCC0
CCC0
CCC0
CCC0
FFC0
ENDCHAR
STARTCHAR afii10043
ENCODING 1065
SWIDTH 1113 0
DWIDTH 12 0
BBX 11 10 1 -2
BITMAP
CCC0
CCC0
CCC0
CCC0
CCC0
CCC0
CCC0
FFE0
0020
0020
ENDCHAR
STARTCHAR afii10044
ENCODING 1066
SWIDTH 727 0
DWIDTH 8 0
BBX 8 8 0 0
BITMAP
F0
30
30
3C
32
33
32
3C
ENDCHAR
STARTCHAR afii10045
ENCODING 1067
SWIDTH 905 0
DWIDTH 10 0
BBX 8 8 1 0
BITMAP
C3
C3
C3
F3
DB
CB
DB
F3
ENDCHAR
STARTCHAR afii10046
ENCODING 1068
SWIDTH 638 0
DWIDTH 7 0
BBX 6 8 1 0
BITMAP
C0
C0
C0
F0
C8
CC
C8
F8
ENDCHAR
STARTCHAR afii10047
ENCODING 1069
SWIDTH 663 0
DWIDTH 7 0
BBX 6 8 0 0
BITMAP
F8
0C
04
7C
04
0C
0C
78
ENDCHAR
STARTCHAR afii10048
ENCODING 1070
SWIDTH 1069 0
DWIDTH 12 0
BBX 10 8 1 0
BITMAP
C780
CCC0
D8C0
F840
D840
D8C0
CCC0
C780
ENDCHAR
STARTCHAR afii10049
ENCODING 1071
SWIDTH 665 0
DWIDTH 7 0
BBX 6 8 0 0
BITMAP
3C
6C
4C
6C
3C
6C
6C
CC
ENDCHAR
STARTCHAR afii10065
ENCODING 1072
SWIDTH 604 0
DWIDTH 7 0
BBX 5 6 1 0
BITMAP
F0
08
F8
88
98
E8
ENDCHAR
STARTCHAR afii10066
ENCODING 1073
SWIDTH 622 0
DWIDTH 7 0
BBX 6 8 0 0
BITMAP
1C
70
40
5C
E4
44
64
38
ENDCHAR
STARTCHAR afii10067
ENCODING 1074
SWIDTH 639 0
DWIDTH 7 0
BBX 6 6 1 0
BITMAP
F8
C8
F0
C8
CC
F8
ENDCHAR
STARTCHAR afii10068
ENCODING 1075
SWIDTH 478 0
DWIDTH 5 0
BBX 4 6 1 0
BITMAP
F0
C0
C0
C0
C0
C0
ENDCHAR
STARTCHAR afii10069
ENCODING 1076
SWIDTH 664 0
DWIDTH 7 0
BBX 7 8 0 -2
BITMAP
3C
2C
2C
6C
6C
FE
C6
C6
ENDCHAR
STARTCHAR afii10070
ENCODING 1077
SWIDTH 590 0
DWIDTH 7 0
BBX 6 6 1 0
BITMAP
78
88
FC
80
C0
78
ENDCHAR
STARTCHAR afii10072
ENCODING 1078
SWIDTH 873 0
DWIDTH 10 0
BBX 10 6 0 0
BITMAP
4C80
6D80
3F00
3F00
6D80
CCC0
ENDCHAR
STARTCHAR afii10073
ENCODING 1079
SWIDTH 555 0
DWIDTH 6 0
BBX 6 6 0 0
BITMAP
78
08
30
0C
0C
F8
ENDCHAR
STARTCHAR afii10074
ENCODING 1080
SWIDTH 720 0
DWIDTH 8 0
BBX 6 6 1 0
BITMAP
8C
9C
B4
B4
E4
C4
ENDCHAR
STARTCHAR afii10075
ENCODING 1081
SWIDTH 720 0
DWIDTH 8 0
BBX 6 9 1 0
BITMAP
C8
78
00
8C
9C
B4
B4
E4
C4
ENDCHAR
STARTCHAR afii10076
ENCODING 1082
SWIDTH 619 0
DWIDTH 7 0
BBX 6 6 1 0
BITMAP
C8
D0
F0
F0
D8
CC
ENDCHAR
STARTCHAR afii10077
ENCODING 1083
SWIDTH 645 0
DWIDTH 7 0
BBX 6 6 0 0
BITMAP
3C
2C
6C
6C
6C
CC
ENDCHAR
STARTCHAR afii10078
ENCODING 1084
SWIDTH 844 0
DWIDTH 9 0
BBX 7 6 1 0
BITMAP
C6
EE
AA
AA
BA
92
ENDCHAR
STARTCHAR afii10079
ENCODING 1085
SWIDTH 662 0
DWIDTH 7 0
BBX 5 6 1 0
BITMAP
D8
D8
F8
D8
D8
D8
ENDCHAR
STARTCHAR afii10080
ENCODING 1086
SWIDTH 619 0
DWIDTH 7 0
BBX 5 6 1 0
BITMAP
70
88
88
88
88
70
ENDCHAR
STARTCHAR afii10081
ENCODING 1087
SWIDTH 651 0
DWIDTH 7 0
BBX 5 6 1 0
BITMAP
F8
D8
D8
D8
D8
D8
ENDCHAR
STARTCHAR afii10082
ENCODING 1088
SWIDTH 632 0
DWIDTH 7 0
BBX 5 9 1 -3
BITMAP
B8
C8
C8
C8
C8
B8
C0
C0
C0
ENDCHAR
STARTCHAR afii10083
ENCODING 1089
SWIDTH 514 0
DWIDTH 6 0
BBX 5 6 1 0
BITMAP
78
C0
80
80
C0
70
ENDCHAR
STARTCHAR afii10084
ENCODING 1090
SWIDTH 553 0
DWIDTH 6 0
BBX 6 6 0 0
BITMAP
FC
30
30
30
30
30
ENDCHAR
STARTCHAR afii10085
ENCODING 1091
SWIDTH 568 0
DWIDTH 6 0
BBX 6 9 0 -3
BITMAP
CC
48
68
78
30
30
30
20
E0
ENDCHAR
STARTCHAR afii10086
ENCODING 1092
SWIDTH 813 0
DWIDTH 9 0
BBX 7 11 1 -3
BITMAP
10
10
7C
D6
92
92
D6
7C
10
10
10
ENDCHAR
STARTCHAR afii10087
ENCODING 1093
SWIDTH 578 0
DWIDTH 6 0
BBX 6 6 0 0
BITMAP
CC
78
30
30
78
CC
ENDCHAR
STARTCHAR afii10088
ENCODING 1094
SWIDTH 687 0
DWIDTH 8 0
BBX 7 8 1 -2
BITMAP
CC
CC
CC
CC
CC
FE
06
06
ENDCHAR
STARTCHAR afii10089
ENCODING 1095
SWIDTH 655 0
DWIDTH 7 0
BBX 5 6 1 0
BITMAP
98
98
98
F8
18
18
ENDCHAR
STARTCHAR afii10090
ENCODING 1096
SWIDTH 969 0
DWIDTH 11 0
BBX 9 6 1 0
BITMAP
C880
C880
C880
C880
C880
FF80
ENDCHAR
STARTCHAR afii10091
ENCODING 1097
SWIDTH 984 0
DWIDTH 11 0
BBX 10 8 1 -2
BITMAP
C880
C880
C880
C880
C880
FFC0
0040
0040
ENDCHAR
STARTCHAR afii10092
ENCODING 1098
SWIDTH 709 0
DWIDTH 8 0
BBX 8 6 0 0
BITMAP
F0
30
3E
33
33
3E
ENDCHAR
STARTCHAR afii10093
ENCODING 1099
SWIDTH 850 0
DWIDTH 9 0
BBX 7 6 1 0
BITMAP
C2
C2
F2
DA
DA
F2
ENDCHAR
STARTCHAR afii10094
ENCODING 1100
SWIDTH 613 0
DWIDTH 7 0
BBX 6 6 1 0
BITMAP
C0
C0
F8
CC
CC
F8
ENDCHAR
STARTCHAR afii10095
ENCODING 1101
SWIDTH 512 0
DWIDTH 6 0
BBX 5 6 0 0
BITMAP
70
08
78
08
18
F0
ENDCHAR
STARTCHAR afii10096
ENCODING 1102
SWIDTH 876 0
DWIDTH 10 0
BBX 8 6 1 0
BITMAP
CE
D9
F1
D1
D9
CE
ENDCHAR
STARTCHAR afii10097
ENCODING 1103
SWIDTH 592 0
DWIDTH 7 0
BBX 6 6 0 0
BITMAP
7C
44
44
7C
64
C4
ENDCHAR
STARTCHAR uni0450
ENCODING 1104
SWIDTH 590 0
DWIDTH 7 0
BBX 6 9 1 0
BITMAP
60
20
00
78
88
FC
80
C0
78
ENDCHAR
STARTCHAR afii10071
ENCODING 1105
SWIDTH 590 0
DWIDTH 7 0
BBX 6 8 1 0
BITMAP
50
00
78
88
FC
80
C0
78
ENDCHAR
STARTCHAR afii10099
ENCODING 1106
SWIDTH 657 0
DWIDTH 7 0
BBX 6 11 0 -3
BITMAP
60
F0
5C
6C
64
64
64
64
04
0C
1C
ENDCHAR
STARTCHAR afii10100
ENCODING 1107
SWIDTH 478 0
DWIDTH 5 0
BBX 4 9 1 0
BITMAP
30
60
00
F0
C0
C0
C0
C0
C0
ENDCHAR
STARTCHAR afii10101
ENCODING 1108
SWIDTH 523 0
DWIDTH 6 0
BBX 5 6 1 0
BITMAP
78
80
F0
80
C0
70
ENDCHAR
STARTCHAR afii10102
ENCODING 1109
SWIDTH 497 0
DWIDTH 5 0
BBX 4 6 1 0
BITMAP
E0
80
E0
60
30
E0
ENDCHAR
STARTCHAR afii10103
ENCODING 1110
SWIDTH 305 0
DWIDTH 3 0
BBX 2 8 1 0
BITMAP
C0
80
C0
C0
C0
C0
C0
C0
ENDCHAR
STARTCHAR afii10104
ENCODING 1111
SWIDTH 305 0
DWIDTH 3 0
BBX 3 8 0 0
BITMAP
A0
00
60
60
60
60
60
60
ENDCHAR
STARTCHAR afii10105
ENCODING 1112
SWIDTH 305 0
DWIDTH 3 0
BBX 4 11 -1 -3
BITMAP
30
20
30
30
30
30
30
30
30
20
E0
ENDCHAR
STARTCHAR afii10106
ENCODING 1113
SWIDTH 888 0
DWIDTH 10 0
BBX 10 6 0 0
BITMAP
3C00
2C00
2F80
6CC0
6CC0
CF80
ENDCHAR
STARTCHAR afii10107
ENCODING 1114
SWIDTH 888 0
DWIDTH 10 0
BBX 9 6 1 0
BITMAP
D800
D800
FF00
D980
D980
DF00
ENDCHAR
STARTCHAR afii10108
ENCODING 1115
SWIDTH 657 0
DWIDTH 7 0
BBX 6 8 0 0
BITMAP
60
F0
5C
6C
64
64
64
64
ENDCHAR
STARTCHAR afii10109
ENCODING 1116
SWIDTH 619 0
DWIDTH 7 0
BBX 6 9 1 0
BITMAP
18
20
00
C8
D0
F0
F0
D8
CC
ENDCHAR
STARTCHAR uni045D
ENCODING 1117
SWIDTH 720 0
DWIDTH 8 0
BBX 6 9 1 0
BITMAP
60
30
00
8C
9C
B4
B4
E4
C4
ENDCHAR
STARTCHAR afii10110
ENCODING 1118
SWIDTH 568 0
DWIDTH 6 0
BBX 6 12 0 -3
BITMAP
CC
78
00
CC
48
68
78
30
30
30
20
E0
ENDCHAR
STARTCHAR afii10193
ENCODING 1119
SWIDTH 671 0
DWIDTH 7 0
BBX 5 8 1 -2
BITMAP
D8
D8
D8
D8
D8
F8
20
20
ENDCHAR
STARTCHAR uni0460
ENCODING 1120
SWIDTH 1087 0
DWIDTH 12 0
BBX 10 8 1 0
BITMAP
7380
C0C0
8040
8040
8C40
8C40
CCC0
7F80
ENDCHAR
STARTCHAR uni0461
ENCODING 1121
SWIDTH 884 0
DWIDTH 10 0
BBX 10 6 0 0
BITMAP
CCC0
4C80
6C80
6D80
3F80
3300
ENDCHAR
STARTCHAR uni0462
ENCODING 1122
SWIDTH 672 0
DWIDTH 7 0
BBX 7 8 0 0
BITMAP
60
F8
60
7C
64
66
64
7C
ENDCHAR
STARTCHAR uni0463
ENCODING 1123
SWIDTH 662 0
DWIDTH 7 0
BBX 7 7 0 0
BITMAP
60
F8
60
7C
66
66
7C
ENDCHAR
STARTCHAR uni0464
ENCODING 1124
SWIDTH 950 0
DWIDTH 10 0
BBX 9 8 1 0
BITMAP
CF80
D800
D800
FE00
D000
D800
D800
CF00
ENDCHAR
STARTCHAR uni0465
ENCODING 1125
SWIDTH 799 0
DWIDTH 9 0
BBX 8 6 1 0
BITMAP
CF
D8
FE
D0
D8
CF
ENDCHAR
STARTCHAR uni0466
ENCODING 1126
SWIDTH 729 0
DWIDTH 8 0
BBX 8 8 0 0
BITMAP
18
3C
24
3C
7E
5A
5A
DB
ENDCHAR
STARTCHAR uni0467
ENCODING 1127
SWIDTH 640 0
DWIDTH 7 0
BBX 7 6 0 0
BITMAP
38
28
6C
7C
54
D6
ENDCHAR
STARTCHAR uni0468
ENCODING 1128
SWIDTH 1004 0
DWIDTH 11 0
BBX 10 8 1 0
BITMAP
C600
CF00
C900
FF00
DF80
D680
F680
F6C0
ENDCHAR
STARTCHAR uni0469
ENCODING 1129
SWIDTH 901 0
DWIDTH 10 0
BBX 9 6 1 0
BITMAP
8E00
8A00
FF00
9500
9500
B580
ENDCHAR
STARTCHAR uni046A
ENCODING 1130
SWIDTH 804 0
DWIDTH 9 0
BBX 9 8 0 0
BITMAP
7F00
2200
1400
3E00
6B00
6B00
4900
C980
ENDCHAR
STARTCHAR uni046B
ENCODING 1131
SWIDTH 623 0
DWIDTH 7 0
BBX 7 6 0 0
BITMAP
7C
6C
28
7C
54
D6
ENDCHAR
STARTCHAR uni046C
ENCODING 1132
SWIDTH 1073 0
DWIDTH 12 0
BBX 11 8 1 0
BITMAP
DFC0
C880
CD00
FF80
DAC0
DAC0
D240
F260
ENDCHAR
STARTCHAR uni046D
ENCODING 1133
SWIDTH 879 0
DWIDTH 10 0
BBX 9 6 1 0
BITMAP
9F00
9B00
8A00
FF00
9500
B580
ENDCHAR
STARTCHAR uni046E
ENCODING 1134
SWIDTH 631 0
DWIDTH 7 0
BBX 7 12 0 -2
BITMAP
6C
38
7C
04
0C
38
0C
06
04
78
C0
78
ENDCHAR
STARTCHAR uni046F
ENCODING 1135
SWIDTH 555 0
DWIDTH 6 0
BBX 6 9 0 -2
BITMAP
78
78
08
30
0C
0C
78
C0
F8
ENDCHAR
STARTCHAR uni0470
ENCODING 1136
SWIDTH 875 0
DWIDTH 10 0
BBX 8 8 1 0
BITMAP
99
99
99
99
7E
18
18
18
ENDCHAR
STARTCHAR uni0471
ENCODING 1137
SWIDTH 836 0
DWIDTH 9 0
BBX 7 11 1 -3
BITMAP
10
10
92
92
92
92
D2
7C
10
10
10
ENDCHAR
STARTCHAR uni0472
ENCODING 1138
SWIDTH 795 0
DWIDTH 9 0
BBX 7 8 1 0
BITMAP
7C
C6
C2
FE
82
C6
C6
7C
ENDCHAR
STARTCHAR uni0473
ENCODING 1139
SWIDTH 619 0
DWIDTH 7 0
BBX 5 6 1 0
BITMAP
70
88
F8
88
D8
70
ENDCHAR
STARTCHAR uni0474
ENCODING 1140
SWIDTH 716 0
DWIDTH 8 0
BBX 8 8 0 0
BITMAP
C3
46
44
6C
2C
28
38
18
ENDCHAR
STARTCHAR uni0475
ENCODING 1141
SWIDTH 604 0
DWIDTH 7 0
BBX 7 6 0 0
BITMAP
C6
4C
6C
68
38
30
ENDCHAR
STARTCHAR uni0476
ENCODING 1142
SWIDTH 716 0
DWIDTH 8 0
BBX 8 11 0 0
BITMAP
78
28
00
C3
46
44
6C
2C
28
38
18
ENDCHAR
STARTCHAR uni0477
ENCODING 1143
SWIDTH 604 0
DWIDTH 7 0
BBX 7 9 0 0
BITMAP
50
28
00
C6
4C
6C
68
38
30
ENDCHAR
STARTCHAR uni0478
ENCODING 1144
SWIDTH 1318 0
DWIDTH 15 0
BBX 14 11 1 -3
BITMAP
7C00
C600
C2CC
8248
8268
C278
C630
7C30
0030
0020
00E0
ENDCHAR
STARTCHAR uni0479
ENCODING 1145
SWIDTH 1145 0
DWIDTH 13 0
BBX 12 9 1 -3
BITMAP
7B30
CD20
8DE0
8DE0
CCC0
78C0
00C0
0080
0380
ENDCHAR
STARTCHAR uni047A
ENCODING 1146
SWIDTH 835 0
DWIDTH 9 0
BBX 7 10 1 -1
BITMAP
10
7C
C6
C6
82
82
C6
C6
7C
10
ENDCHAR
STARTCHAR uni047B
ENCODING 1147
SWIDTH 679 0
DWIDTH 7 0
BBX 5 8 1 -1
BITMAP
20
70
A8
88
88
88
70
20
ENDCHAR
STARTCHAR uni047C
ENCODING 1148
SWIDTH 1087 0
DWIDTH 12 0
BBX 10 12 1 0
BITMAP
3800
2600
0C00
0800
7380
C0C0
8040
8040
8040
8040
CCC0
7F80
ENDCHAR
STARTCHAR uni047D
ENCODING 1149
SWIDTH 890 0
DWIDTH 10 0
BBX 8 10 1 0
BITMAP
70
4C
18
10
FF
81
81
81
D3
7E
ENDCHAR
STARTCHAR uni047E
ENCODING 1150
SWIDTH 1087 0
DWIDTH 12 0
BBX 10 10 1 0
BITMAP
1E00
0000
7380
C0C0
8040
8040
8C40
8C40
CCC0
7F80
ENDCHAR
STARTCHAR uni047F
ENCODING 1151
SWIDTH 884 0
DWIDTH 10 0
BBX 10 8 0 0
BITMAP
3E00
0000
C8C0
4C80
6C80
6D80
3F00
3300
ENDCHAR
STARTCHAR uni0480
ENCODING 1152
SWIDTH 676 0
DWIDTH 7 0
BBX 6 11 1 -3
BITMAP
7C
C0
C0
80
80
C0
C0
78
18
18
18
ENDCHAR
STARTCHAR uni0481
ENCODING 1153
SWIDTH 523 0
DWIDTH 6 0
BBX 5 9 1 -3
BITMAP
78
C0
80
80
C0
70
30
30
30
ENDCHAR
STARTCHAR uni0482
ENCODING 1154
SWIDTH 608 0
DWIDTH 7 0
BBX 5 7 1 0
BITMAP
08
70
18
20
C0
70
80
ENDCHAR
STARTCHAR uni0483
ENCODING 1155
SWIDTH 557 0
DWIDTH 6 0
BBX 4 3 1 6
BITMAP
10
F0
80
ENDCHAR
STARTCHAR uni0484
ENCODING 1156
SWIDTH 577 0
DWIDTH 6 0
BBX 4 2 1 7
BITMAP
30
D0
ENDCHAR
STARTCHAR uni0485
ENCODING 1157
SWIDTH 577 0
DWIDTH 6 0
BBX 2 2 2 7
BITMAP
C0
40
ENDCHAR
STARTCHAR uni0486
ENCODING 1158
SWIDTH 577 0
DWIDTH 6 0
BBX 2 2 2 7
BITMAP
C0
C0
ENDCHAR
STARTCHAR uni0488
ENCODING 1160
SWIDTH 988 0
DWIDTH 11 0
BBX 11 10 0 -2
BITMAP
0400
2A80
4040
0000
4040
8020
0000
2080
4440
0A00
ENDCHAR
STARTCHAR uni0489
ENCODING 1161
SWIDTH 956 0
DWIDTH 11 0
BBX 11 10 0 -2
BITMAP
0400
0400
2180
0000
8040
4020
0000
2080
0480
0400
ENDCHAR
STARTCHAR uni048A
ENCODING 1162
SWIDTH 916 0
DWIDTH 10 0
BBX 9 13 1 -2
BITMAP
4C00
3800
0000
8600
8E00
8A00
9A00
B200
A200
E200
C380
0100
0300
ENDCHAR
STARTCHAR uni048B
ENCODING 1163
SWIDTH 801 0
DWIDTH 9 0
BBX 8 11 1 -2
BITMAP
CC
78
00
8C
9C
B4
B4
E4
C7
02
02
ENDCHAR
STARTCHAR uni048C
ENCODING 1164
SWIDTH 616 0
DWIDTH 7 0
BBX 7 8 0 0
BITMAP
60
F0
60
7C
66
66
66
7C
ENDCHAR
STARTCHAR uni048D
ENCODING 1165
SWIDTH 613 0
DWIDTH 7 0
BBX 7 8 0 0
BITMAP
60
F8
60
60
7C
66
66
7C
ENDCHAR
STARTCHAR uni048E
ENCODING 1166
SWIDTH 627 0
DWIDTH 7 0
BBX 5 8 1 0
BITMAP
F8
C8
C8
F8
F0
C8
C0
C0
ENDCHAR
STARTCHAR uni048F
ENCODING 1167
SWIDTH 632 0
DWIDTH 7 0
BBX 5 9 1 -3
BITMAP
B8
C8
C8
C8
D8
B8
C8
C0
C0
ENDCHAR
STARTCHAR afii10050
ENCODING 1168
SWIDTH 581 0
DWIDTH 6 0
BBX 5 10 1 0
BITMAP
18
18
F8
C0
C0
C0
C0
C0
C0
C0
ENDCHAR
STARTCHAR afii10098
ENCODING 1169
SWIDTH 512 0
DWIDTH 6 0
BBX 5 8 1 0
BITMAP
18
18
F8
C0
C0
C0
C0
C0
ENDCHAR
STARTCHAR uni0492
ENCODING 1170
SWIDTH 559 0
DWIDTH 6 0
BBX 6 8 0 0
BITMAP
7C
60
60
F8
60
60
60
60
ENDCHAR
STARTCHAR uni0493
ENCODING 1171
SWIDTH 491 0
DWIDTH 5 0
BBX 5 6 0 0
BITMAP
78
40
F0
40
40
40
ENDCHAR
STARTCHAR uni0494
ENCODING 1172
SWIDTH 733 0
DWIDTH 8 0
BBX 6 11 1 -3
BITMAP
F8
C0
C0
C0
F8
CC
C4
C4
04
0C
38
ENDCHAR
STARTCHAR uni0495
ENCODING 1173
SWIDTH 602 0
DWIDTH 7 0
BBX 6 9 1 -3
BITMAP
F8
C0
C0
F0
C8
CC
0C
08
78
ENDCHAR
STARTCHAR uni0496
ENCODING 1174
SWIDTH 1028 0
DWIDTH 11 0
BBX 11 10 0 -2
BITMAP
CCC0
6D80
2D00
3F00
3F00
2D00
6D80
CCE0
0060
0060
ENDCHAR
STARTCHAR uni0497
ENCODING 1175
SWIDTH 941 0
DWIDTH 10 0
BBX 10 8 0 -2
BITMAP
4C80
6D80
3F00
3F00
6D80
CCC0
0040
0040
ENDCHAR
STARTCHAR uni0498
ENCODING 1176
SWIDTH 647 0
DWIDTH 7 0
BBX 6 11 1 -3
BITMAP
F8
08
18
60
18
0C
08
F0
20
20
60
ENDCHAR
STARTCHAR uni0499
ENCODING 1177
SWIDTH 555 0
DWIDTH 6 0
BBX 6 9 0 -3
BITMAP
78
08
30
0C
0C
F8
20
10
20
ENDCHAR
STARTCHAR uni049A
ENCODING 1178
SWIDTH 755 0
DWIDTH 8 0
BBX 7 10 1 -2
BITMAP
CC
D8
D0
F0
F0
D0
D8
CE
06
06
ENDCHAR
STARTCHAR uni049B
ENCODING 1179
SWIDTH 665 0
DWIDTH 7 0
BBX 6 8 1 -2
BITMAP
C8
D0
F0
F0
D8
CC
04
04
ENDCHAR
STARTCHAR uni049C
ENCODING 1180
SWIDTH 664 0
DWIDTH 7 0
BBX 6 8 1 0
BITMAP
CC
F8
F0
F0
F0
F8
F8
CC
ENDCHAR
STARTCHAR uni049D
ENCODING 1181
SWIDTH 599 0
DWIDTH 7 0
BBX 6 6 1 0
BITMAP
88
B0
E0
B0
B8
AC
ENDCHAR
STARTCHAR uni049E
ENCODING 1182
SWIDTH 643 0
DWIDTH 7 0
BBX 7 8 0 0
BITMAP
46
EC
58
50
78
48
4C
46
ENDCHAR
STARTCHAR uni049F
ENCODING 1183
SWIDTH 620 0
DWIDTH 7 0
BBX 7 8 0 0
BITMAP
60
F0
64
68
50
78
6C
66
ENDCHAR
STARTCHAR uni04A0
ENCODING 1184
SWIDTH 732 0
DWIDTH 8 0
BBX 8 8 0 0
BITMAP
F3
36
3C
38
3C
36
36
33
ENDCHAR
STARTCHAR uni04A1
ENCODING 1185
SWIDTH 694 0
DWIDTH 8 0
BBX 8 6 0 0
BITMAP
E2
24
38
2C
26
23
ENDCHAR
STARTCHAR uni04A2
ENCODING 1186
SWIDTH 840 0
DWIDTH 9 0
BBX 8 10 1 -2
BITMAP
CC
CC
CC
FC
CC
CC
CC
CF
03
03
ENDCHAR
STARTCHAR uni04A3
ENCODING 1187
SWIDTH 743 0
DWIDTH 8 0
BBX 7 8 1 -2
BITMAP
D8
D8
F8
D8
D8
DE
06
06
ENDCHAR
STARTCHAR uni04A4
ENCODING 1188
SWIDTH 833 0
DWIDTH 9 0
BBX 8 8 1 0
BITMAP
CF
CC
CC
FC
CC
CC
CC
CC
ENDCHAR
STARTCHAR uni04A5
ENCODING 1189
SWIDTH 757 0
DWIDTH 8 0
BBX 7 6 1 0
BITMAP
DE
D8
F8
D8
D8
D8
ENDCHAR
STARTCHAR uni04A6
ENCODING 1190
SWIDTH 1125 0
DWIDTH 12 0
BBX 10 11 1 -3
BITMAP
FC00
CC00
CC00
CC00
CF80
CCC0
CC40
CC40
0040
00C0
0380
ENDCHAR
STARTCHAR uni04A7
ENCODING 1191
SWIDTH 889 0
DWIDTH 10 0
BBX 9 9 1 -3
BITMAP
F800
C800
C800
CE00
C900
C980
0180
0100
0700
ENDCHAR
STARTCHAR uni04A8
ENCODING 1192
SWIDTH 776 0
DWIDTH 9 0
BBX 8 8 1 0
BITMAP
78
C0
CE
9A
9A
DA
CE
7F
ENDCHAR
STARTCHAR uni04A9
ENCODING 1193
SWIDTH 655 0
DWIDTH 7 0
BBX 6 6 1 0
BITMAP
60
B8
A8
A8
B8
7C
ENDCHAR
STARTCHAR uni04AA
ENCODING 1194
SWIDTH 637 0
DWIDTH 7 0
BBX 6 11 1 -3
BITMAP
7C
C0
C0
80
80
C0
C0
78
10
10
30
ENDCHAR
STARTCHAR uni04AB
ENCODING 1195
SWIDTH 514 0
DWIDTH 6 0
BBX 5 9 1 -3
BITMAP
78
C0
80
80
C0
70
20
20
60
ENDCHAR
STARTCHAR uni04AC
ENCODING 1196
SWIDTH 579 0
DWIDTH 6 0
BBX 6 10 0 -2
BITMAP
FC
30
30
30
30
30
30
38
08
08
ENDCHAR
STARTCHAR uni04AD
ENCODING 1197
SWIDTH 549 0
DWIDTH 6 0
BBX 6 8 0 -2
BITMAP
FC
30
30
30
30
38
08
08
ENDCHAR
STARTCHAR uni04AE
ENCODING 1198
SWIDTH 624 0
DWIDTH 7 0
BBX 7 8 0 0
BITMAP
C6
6C
6C
38
38
10
10
10
ENDCHAR
STARTCHAR uni04AF
ENCODING 1199
SWIDTH 574 0
DWIDTH 6 0
BBX 6 9 0 -3
BITMAP
CC
48
78
78
30
30
30
30
30
ENDCHAR
STARTCHAR uni04B0
ENCODING 1200
SWIDTH 624 0
DWIDTH 7 0
BBX 7 8 0 0
BITMAP
C6
6C
6C
38
38
7C
10
10
ENDCHAR
STARTCHAR uni04B1
ENCODING 1201
SWIDTH 574 0
DWIDTH 6 0
BBX 6 9 0 -3
BITMAP
CC
48
78
78
30
30
78
30
30
ENDCHAR
STARTCHAR uni04B2
ENCODING 1202
SWIDTH 743 0
DWIDTH 8 0
BBX 8 10 0 -2
BITMAP
C6
6C
28
38
38
68
6C
C7
03
03
ENDCHAR
STARTCHAR uni04B3
ENCODING 1203
SWIDTH 640 0
DWIDTH 7 0
BBX 7 8 0 -2
BITMAP
CC
78
30
30
78
CE
06
06
ENDCHAR
STARTCHAR uni04B4
ENCODING 1204
SWIDTH 930 0
DWIDTH 10 0
BBX 10 10 0 -2
BITMAP
FD00
3100
3100
3100
3100
3100
3100
3FC0
00C0
00C0
ENDCHAR
STARTCHAR uni04B5
ENCODING 1205
SWIDTH 791 0
DWIDTH 9 0
BBX 9 8 0 -2
BITMAP
FA00
2200
2200
2200
2200
3F80
0180
0180
ENDCHAR
STARTCHAR uni04B6
ENCODING 1206
SWIDTH 804 0
DWIDTH 9 0
BBX 8 10 1 -2
BITMAP
8C
8C
8C
8C
FC
0C
0C
0F
03
03
ENDCHAR
STARTCHAR uni04B7
ENCODING 1207
SWIDTH 726 0
DWIDTH 8 0
BBX 7 8 1 -2
BITMAP
98
98
98
F8
18
1E
06
06
ENDCHAR
STARTCHAR uni04B8
ENCODING 1208
SWIDTH 728 0
DWIDTH 8 0
BBX 6 8 1 0
BITMAP
8C
8C
AC
AC
FC
2C
2C
0C
ENDCHAR
STARTCHAR uni04B9
ENCODING 1209
SWIDTH 655 0
DWIDTH 7 0
BBX 5 6 1 0
BITMAP
98
98
B8
F8
38
18
ENDCHAR
STARTCHAR uni04BA
ENCODING 1210
SWIDTH 728 0
DWIDTH 8 0
BBX 6 8 1 0
BITMAP
C0
C0
C0
FC
C4
C4
C4
C4
ENDCHAR
STARTCHAR uni04BB
ENCODING 1211
SWIDTH 666 0
DWIDTH 7 0
BBX 5 6 1 0
BITMAP
C0
C0
F8
C8
C8
C8
ENDCHAR
STARTCHAR uni04BC
ENCODING 1212
SWIDTH 948 0
DWIDTH 10 0
BBX 9 8 0 0
BITMAP
0F00
1100
3180
B180
FF80
3000
1080
0F00
ENDCHAR
STARTCHAR uni04BD
ENCODING 1213
SWIDTH 714 0
DWIDTH 8 0
BBX 8 6 0 0
BITMAP
1E
B2
FF
20
30
1E
ENDCHAR
STARTCHAR uni04BE
ENCODING 1214
SWIDTH 948 0
DWIDTH 10 0
BBX 9 10 0 -2
BITMAP
0F00
1100
3180
B180
FF80
3000
1080
0F00
0400
0400
ENDCHAR
STARTCHAR uni04BF
ENCODING 1215
SWIDTH 714 0
DWIDTH 8 0
BBX 8 8 0 -2
BITMAP
1E
B2
FF
20
30
1E
0C
0C
ENDCHAR
STARTCHAR uni04C0
ENCODING 1216
SWIDTH 331 0
DWIDTH 4 0
BBX 2 8 1 0
BITMAP
C0
C0
C0
C0
C0
C0
C0
C0
ENDCHAR
STARTCHAR uni04C1
ENCODING 1217
SWIDTH 942 0
DWIDTH 10 0
BBX 10 11 0 0
BITMAP
1300
1E00
0000
CCC0
6D80
2D00
3F00
3F00
2D00
6D80
CCC0
ENDCHAR
STARTCHAR uni04C2
ENCODING 1218
SWIDTH 873 0
DWIDTH 10 0
BBX 10 9 0 0
BITMAP
3200
1E00
0000
4C80
6D80
3F00
3F00
6D80
CCC0
ENDCHAR
STARTCHAR uni04C3
ENCODING 1219
SWIDTH 759 0
DWIDTH 8 0
BBX 6 11 1 -3
BITMAP
CC
D8
D0
F0
F8
CC
C4
C4
04
0C
38
ENDCHAR
STARTCHAR uni04C4
ENCODING 1220
SWIDTH 661 0
DWIDTH 7 0
BBX 6 9 1 -3
BITMAP
D8
D0
F0
F8
C8
CC
0C
08
38
ENDCHAR
STARTCHAR uni04C5
ENCODING 1221
SWIDTH 837 0
DWIDTH 9 0
BBX 9 10 0 -2
BITMAP
3E00
2600
2600
2600
2600
6600
6600
C780
0100
0300
ENDCHAR
STARTCHAR uni04C6
ENCODING 1222
SWIDTH 727 0
DWIDTH 8 0
BBX 8 8 0 -2
BITMAP
3C
2C
6C
6C
6C
CF
02
02
ENDCHAR
STARTCHAR uni04C7
ENCODING 1223
SWIDTH 765 0
DWIDTH 8 0
BBX 6 11 1 -3
BITMAP
CC
CC
CC
FC
CC
CC
CC
CC
0C
0C
38
ENDCHAR
STARTCHAR uni04C8
ENCODING 1224
SWIDTH 662 0
DWIDTH 7 0
BBX 5 9 1 -3
BITMAP
D8
D8
F8
D8
D8
D8
18
18
70
ENDCHAR
STARTCHAR uni04C9
ENCODING 1225
SWIDTH 857 0
DWIDTH 9 0
BBX 8 10 1 -2
BITMAP
CC
CC
CC
FC
CC
CC
CC
CF
02
06
ENDCHAR
STARTCHAR uni04CA
ENCODING 1226
SWIDTH 744 0
DWIDTH 8 0
BBX 7 8 1 -2
BITMAP
D8
D8
F8
D8
D8
DE
04
04
ENDCHAR
STARTCHAR uni04CB
ENCODING 1227
SWIDTH 728 0
DWIDTH 8 0
BBX 6 10 1 -2
BITMAP
8C
8C
8C
8C
FC
0C
0C
1C
18
18
ENDCHAR
STARTCHAR uni04CC
ENCODING 1228
SWIDTH 655 0
DWIDTH 7 0
BBX 5 8 1 -2
BITMAP
98
98
98
F8
18
38
30
30
ENDCHAR
STARTCHAR uni04CD
ENCODING 1229
SWIDTH 1036 0
DWIDTH 11 0
BBX 10 10 1 -2
BITMAP
C300
E700
A700
A700
AF00
BB00
9B00
9BC0
0080
0180
ENDCHAR
STARTCHAR uni04CE
ENCODING 1230
SWIDTH 925 0
DWIDTH 10 0
BBX 9 8 1 -2
BITMAP
C600
EE00
AA00
AA00
BA00
9380
0100
0100
ENDCHAR
STARTCHAR uni04CF
ENCODING 1231
SWIDTH 331 0
DWIDTH 4 0
BBX 2 8 1 0
BITMAP
C0
C0
C0
C0
C0
C0
C0
C0
ENDCHAR
STARTCHAR uni04D0
ENCODING 1232
SWIDTH 689 0
DWIDTH 8 0
BBX 8 11 0 0
BITMAP
64
3C
00
18
3C
3C
24
66
7E
42
C3
ENDCHAR
STARTCHAR uni04D1
ENCODING 1233
SWIDTH 604 0
DWIDTH 7 0
BBX 5 9 1 0
BITMAP
98
F0
00
F0
08
F8
88
98
E8
ENDCHAR
STARTCHAR uni04D2
ENCODING 1234
SWIDTH 689 0
DWIDTH 8 0
BBX 8 10 0 0
BITMAP
3C
00
18
3C
3C
24
66
7E
42
C3
ENDCHAR
STARTCHAR uni04D3
ENCODING 1235
SWIDTH 604 0
DWIDTH 7 0
BBX 5 8 1 0
BITMAP
50
00
F0
08
F8
88
98
E8
ENDCHAR
STARTCHAR uni04D4
ENCODING 1236
SWIDTH 952 0
DWIDTH 10 0
BBX 9 8 0 0
BITMAP
1F80
1600
3600
2780
6600
7E00
4600
C780
ENDCHAR
STARTCHAR uni04D5
ENCODING 1237
SWIDTH 916 0
DWIDTH 10 0
BBX 9 6 1 0
BITMAP
FF00
1900
FF80
9800
9800
EF00
ENDCHAR
STARTCHAR uni04D6
ENCODING 1238
SWIDTH 560 0
DWIDTH 6 0
BBX 5 11 1 0
BITMAP
98
F0
00
F0
C0
C0
F0
C0
C0
C0
F0
ENDCHAR
STARTCHAR uni04D7
ENCODING 1239
SWIDTH 590 0
DWIDTH 7 0
BBX 6 9 1 0
BITMAP
98
F0
00
78
88
FC
80
C0
78
ENDCHAR
STARTCHAR uni04D8
ENCODING 1240
SWIDTH 816 0
DWIDTH 9 0
BBX 7 8 1 0
BITMAP
7C
86
02
FE
C2
C6
46
3C
ENDCHAR
STARTCHAR uni04D9
ENCODING 1241
SWIDTH 601 0
DWIDTH 7 0
BBX 7 6 0 0
BITMAP
78
0C
06
FE
44
78
ENDCHAR
STARTCHAR uni04DA
ENCODING 1242
SWIDTH 816 0
DWIDTH 9 0
BBX 7 10 1 0
BITMAP
28
00
7C
86
02
FE
C2
C6
46
3C
ENDCHAR
STARTCHAR uni04DB
ENCODING 1243
SWIDTH 601 0
DWIDTH 7 0
BBX 7 8 0 0
BITMAP
28
00
78
0C
06
FE
44
78
ENDCHAR
STARTCHAR uni04DC
ENCODING 1244
SWIDTH 942 0
DWIDTH 10 0
BBX 10 10 0 0
BITMAP
1E00
0000
CCC0
6D80
2D00
3F00
3F00
2D00
6D80
CCC0
ENDCHAR
STARTCHAR uni04DD
ENCODING 1245
SWIDTH 873 0
DWIDTH 10 0
BBX 10 8 0 0
BITMAP
1E00
0000
4C80
6D80
3F00
3F00
6D80
CCC0
ENDCHAR
STARTCHAR uni04DE
ENCODING 1246
SWIDTH 647 0
DWIDTH 7 0
BBX 6 10 1 0
BITMAP
50
00
F8
08
18
60
18
0C
08
F0
ENDCHAR
STARTCHAR uni04DF
ENCODING 1247
SWIDTH 555 0
DWIDTH 6 0
BBX 6 8 0 0
BITMAP
78
00
78
08
30
0C
0C
F8
ENDCHAR
STARTCHAR uni04E0
ENCODING 1248
SWIDTH 590 0
DWIDTH 7 0
BBX 7 8 0 0
BITMAP
7C
18
30
38
04
06
04
F8
ENDCHAR
STARTCHAR uni04E1
ENCODING 1249
SWIDTH 581 0
DWIDTH 6 0
BBX 6 9 0 -3
BITMAP
78
18
30
30
78
08
0C
08
F8
ENDCHAR
STARTCHAR uni04E2
ENCODING 1250
SWIDTH 823 0
DWIDTH 9 0
BBX 7 10 1 0
BITMAP
38
00
86
8E
8A
9A
B2
A2
E2
C2
ENDCHAR
STARTCHAR uni04E3
ENCODING 1251
SWIDTH 720 0
DWIDTH 8 0
BBX 6 8 1 0
BITMAP
78
00
8C
9C
B4
B4
E4
C4
ENDCHAR
STARTCHAR uni04E4
ENCODING 1252
SWIDTH 823 0
DWIDTH 9 0
BBX 7 10 1 0
BITMAP
28
00
86
8E
8A
9A
B2
A2
E2
C2
ENDCHAR
STARTCHAR uni04E5
ENCODING 1253
SWIDTH 720 0
DWIDTH 8 0
BBX 6 8 1 0
BITMAP
78
00
8C
9C
B4
B4
E4
C4
ENDCHAR
STARTCHAR uni04E6
ENCODING 1254
SWIDTH 795 0
DWIDTH 9 0
BBX 7 10 1 0
BITMAP
28
00
7C
C6
C6
82
82
C6
C6
7C
ENDCHAR
STARTCHAR uni04E7
ENCODING 1255
SWIDTH 619 0
DWIDTH 7 0
BBX 5 8 1 0
BITMAP
50
00
70
88
88
88
88
70
ENDCHAR
STARTCHAR uni04E8
ENCODING 1256
SWIDTH 795 0
DWIDTH 9 0
BBX 7 8 1 0
BITMAP
7C
C6
C2
FE
82
C6
C6
7C
ENDCHAR
STARTCHAR uni04E9
ENCODING 1257
SWIDTH 619 0
DWIDTH 7 0
BBX 5 6 1 0
BITMAP
70
88
F8
88
D8
70
ENDCHAR
STARTCHAR uni04EA
ENCODING 1258
SWIDTH 795 0
DWIDTH 9 0
BBX 7 10 1 0
BITMAP
28
00
7C
C6
C2
FE
82
C6
C6
7C
ENDCHAR
STARTCHAR uni04EB
ENCODING 1259
SWIDTH 619 0
DWIDTH 7 0
BBX 5 8 1 0
BITMAP
50
00
70
88
F8
88
D8
70
ENDCHAR
STARTCHAR uni04EC
ENCODING 1260
SWIDTH 663 0
DWIDTH 7 0
BBX 6 10 0 0
BITMAP
28
00
F8
0C
04
7C
04
0C
0C
78
ENDCHAR
STARTCHAR uni04ED
ENCODING 1261
SWIDTH 512 0
DWIDTH 6 0
BBX 5 8 0 0
BITMAP
58
00
70
08
78
08
18
F0
ENDCHAR
STARTCHAR uni04EE
ENCODING 1262
SWIDTH 652 0
DWIDTH 7 0
BBX 7 10 0 0
BITMAP
3C
00
C6
44
6C
2C
38
18
30
E0
ENDCHAR
STARTCHAR uni04EF
ENCODING 1263
SWIDTH 568 0
DWIDTH 6 0
BBX 6 11 0 -3
BITMAP
78
00
CC
48
68
78
30
30
30
20
E0
ENDCHAR
STARTCHAR uni04F0
ENCODING 1264
SWIDTH 652 0
DWIDTH 7 0
BBX 7 10 0 0
BITMAP
28
00
C6
44
6C
2C
38
18
30
E0
ENDCHAR
STARTCHAR uni04F1
ENCODING 1265
SWIDTH 568 0
DWIDTH 6 0
BBX 6 11 0 -3
BITMAP
78
00
CC
48
68
78
30
30
30
20
E0
ENDCHAR
STARTCHAR uni04F2
ENCODING 1266
SWIDTH 652 0
DWIDTH 7 0
BBX 7 11 0 0
BITMAP
14
28
00
C6
44
6C
2C
38
18
30
E0
ENDCHAR
STARTCHAR uni04F3
ENCODING 1267
SWIDTH 568 0
DWIDTH 6 0
BBX 6 12 0 -3
BITMAP
3C
78
00
CC
48
68
78
30
30
30
20
E0
ENDCHAR
STARTCHAR uni04F4
ENCODING 1268
SWIDTH 728 0
DWIDTH 8 0
BBX 6 10 1 0
BITMAP
78
00
8C
8C
8C
8C
FC
0C
0C
0C
ENDCHAR
STARTCHAR uni04F5
ENCODING 1269
SWIDTH 655 0
DWIDTH 7 0
BBX 5 8 1 0
BITMAP
50
00
98
98
98
F8
18
18
ENDCHAR
STARTCHAR uni04F6
ENCODING 1270
SWIDTH 561 0
DWIDTH 6 0
BBX 5 10 1 -2
BITMAP
F8
C0
C0
C0
C0
C0
C0
E0
20
20
ENDCHAR
STARTCHAR uni04F7
ENCODING 1271
SWIDTH 478 0
DWIDTH 5 0
BBX 4 8 1 -2
BITMAP
F0
C0
C0
C0
C0
E0
60
60
ENDCHAR
STARTCHAR uni04F8
ENCODING 1272
SWIDTH 905 0
DWIDTH 10 0
BBX 8 10 1 0
BITMAP
3C
00
C3
C3
C3
F3
DB
CB
DB
F3
ENDCHAR
STARTCHAR uni04F9
ENCODING 1273
SWIDTH 850 0
DWIDTH 9 0
BBX 7 8 1 0
BITMAP
28
00
C2
C2
F2
DA
DA
F2
ENDCHAR
STARTCHAR uni04FA
ENCODING 1274
SWIDTH 559 0
DWIDTH 6 0
BBX 6 11 0 -3
BITMAP
7C
60
60
F8
60
60
70
70
10
30
70
ENDCHAR
STARTCHAR uni04FB
ENCODING 1275
SWIDTH 491 0
DWIDTH 5 0
BBX 5 9 0 -3
BITMAP
78
40
F0
40
40
70
30
30
60
ENDCHAR
STARTCHAR uni04FC
ENCODING 1276
SWIDTH 731 0
DWIDTH 8 0
BBX 8 11 0 -3
BITMAP
C6
6C
28
38
38
68
6F
C7
03
03
06
ENDCHAR
STARTCHAR uni04FD
ENCODING 1277
SWIDTH 645 0
DWIDTH 7 0
BBX 7 9 0 -3
BITMAP
CC
78
30
30
78
CE
06
06
0C
ENDCHAR
STARTCHAR uni04FE
ENCODING 1278
SWIDTH 666 0
DWIDTH 7 0
BBX 7 8 0 0
BITMAP
C6
6C
28
7C
38
6C
6C
C6
ENDCHAR
STARTCHAR uni04FF
ENCODING 1279
SWIDTH 578 0
DWIDTH 6 0
BBX 6 6 0 0
BITMAP
48
78
78
78
78
CC
ENDCHAR
STARTCHAR uni0500
ENCODING 1280
SWIDTH 638 0
DWIDTH 7 0
BBX 6 8 0 0
BITMAP
0C
0C
0C
3C
4C
CC
4C
7C
ENDCHAR
STARTCHAR uni0501
ENCODING 1281
SWIDTH 632 0
DWIDTH 7 0
BBX 5 8 1 0
BITMAP
18
18
E8
98
88
88
98
E8
ENDCHAR
STARTCHAR uni0502
ENCODING 1282
SWIDTH 925 0
DWIDTH 10 0
BBX 9 8 0 0
BITMAP
0C00
0C00
0C00
7D80
4D80
CD80
4D80
7F00
ENDCHAR
STARTCHAR uni0503
ENCODING 1283
SWIDTH 922 0
DWIDTH 10 0
BBX 8 8 1 0
BITMAP
18
18
F8
98
99
99
9B
FE
ENDCHAR
STARTCHAR uni0504
ENCODING 1284
SWIDTH 913 0
DWIDTH 10 0
BBX 9 8 0 0
BITMAP
F800
0800
0800
7180
0980
0D80
0D80
0700
ENDCHAR
STARTCHAR uni0505
ENCODING 1285
SWIDTH 870 0
DWIDTH 10 0
BBX 9 6 0 0
BITMAP
F800
0800
7080
0C80
0D80
0700
ENDCHAR
STARTCHAR uni0506
ENCODING 1286
SWIDTH 701 0
DWIDTH 8 0
BBX 8 10 0 -2
BITMAP
F8
0C
0C
78
0C
0C
0C
0F
03
03
ENDCHAR
STARTCHAR uni0507
ENCODING 1287
SWIDTH 661 0
DWIDTH 7 0
BBX 7 8 0 -2
BITMAP
F8
08
70
08
08
0E
06
06
ENDCHAR
STARTCHAR uni0508
ENCODING 1288
SWIDTH 1033 0
DWIDTH 11 0
BBX 10 8 0 0
BITMAP
3E00
2600
2600
26C0
26C0
66C0
66C0
C380
ENDCHAR
STARTCHAR uni0509
ENCODING 1289
SWIDTH 935 0
DWIDTH 10 0
BBX 9 6 0 0
BITMAP
3C00
2C00
6C80
6C80
6D80
C700
ENDCHAR
STARTCHAR uni050A
ENCODING 1290
SWIDTH 1042 0
DWIDTH 11 0
BBX 9 8 1 0
BITMAP
CC00
CC00
CC00
FD80
CD80
CD80
CD80
C780
ENDCHAR
STARTCHAR uni050B
ENCODING 1291
SWIDTH 952 0
DWIDTH 10 0
BBX 8 6 1 0
BITMAP
D8
D8
F9
D9
DB
CF
ENDCHAR
STARTCHAR uni050C
ENCODING 1292
SWIDTH 799 0
DWIDTH 9 0
BBX 7 8 1 0
BITMAP
7C
C0
C0
80
8E
C2
C6
7C
ENDCHAR
STARTCHAR uni050D
ENCODING 1293
SWIDTH 663 0
DWIDTH 7 0
BBX 6 6 1 0
BITMAP
78
C0
BC
88
98
70
ENDCHAR
STARTCHAR uni050E
ENCODING 1294
SWIDTH 757 0
DWIDTH 8 0
BBX 7 8 0 0
BITMAP
FC
30
30
36
36
36
36
1C
ENDCHAR
STARTCHAR uni050F
ENCODING 1295
SWIDTH 733 0
DWIDTH 8 0
BBX 7 6 0 0
BITMAP
FC
30
32
32
36
1C
ENDCHAR
STARTCHAR uni0510
ENCODING 1296
SWIDTH 647 0
DWIDTH 7 0
BBX 6 8 0 0
BITMAP
7C
40
60
38
60
C0
40
3C
ENDCHAR
STARTCHAR uni0511
ENCODING 1297
SWIDTH 556 0
DWIDTH 6 0
BBX 6 6 0 0
BITMAP
7C
40
30
40
C0
7C
ENDCHAR
STARTCHAR uni0512
ENCODING 1298
SWIDTH 817 0
DWIDTH 9 0
BBX 9 11 0 -3
BITMAP
3E00
2600
2600
2600
2600
6600
6780
C780
0180
0180
0300
ENDCHAR
STARTCHAR uni0513
ENCODING 1299
SWIDTH 724 0
DWIDTH 8 0
BBX 8 9 0 -3
BITMAP
3C
2C
6C
6C
6C
CF
03
03
06
ENDCHAR
STARTCHAR uni1E00
ENCODING 7680
SWIDTH 689 0
DWIDTH 8 0
BBX 8 11 0 -3
BITMAP
18
3C
3C
24
66
7E
42
C3
00
18
18
ENDCHAR
STARTCHAR uni1E01
ENCODING 7681
SWIDTH 604 0
DWIDTH 7 0
BBX 5 9 1 -3
BITMAP
F0
08
F8
88
98
E8
00
70
70
ENDCHAR
STARTCHAR uni1E3E
ENCODING 7742
SWIDTH 942 0
DWIDTH 10 0
BBX 8 11 1 0
BITMAP
0C
08
00
C3
E7
A7
A7
AF
BB
9B
9B
ENDCHAR
STARTCHAR uni1E3F
ENCODING 7743
SWIDTH 981 0
DWIDTH 11 0
BBX 9 9 1 0
BITMAP
0C00
0800
0000
BF80
CD80
C880
C880
C880
C880
ENDCHAR
STARTCHAR Wgrave
ENCODING 7808
SWIDTH 966 0
DWIDTH 11 0
BBX 11 11 0 0
BITMAP
0800
0400
0000
C460
CE60
4A40
4A40
7BC0
7BC0
3180
3180
ENDCHAR
STARTCHAR wgrave
ENCODING 7809
SWIDTH 855 0
DWIDTH 9 0
BBX 9 9 0 0
BITMAP
1800
0C00
0000
DD80
5500
5500
7700
7700
3600
ENDCHAR
STARTCHAR Wacute
ENCODING 7810
SWIDTH 966 0
DWIDTH 11 0
BBX 11 11 0 0
BITMAP
0600
0C00
0000
C460
CE60
4A40
4A40
7BC0
7BC0
3180
3180
ENDCHAR
STARTCHAR wacute
ENCODING 7811
SWIDTH 855 0
DWIDTH 9 0
BBX 9 9 0 0
BITMAP
0600
0800
0000
DD80
5500
5500
7700
7700
3600
ENDCHAR
STARTCHAR Wdieresis
ENCODING 7812
SWIDTH 966 0
DWIDTH 11 0
BBX 11 10 0 0
BITMAP
0A00
0000
C460
CE60
4A40
4A40
7BC0
7BC0
3180
3180
ENDCHAR
STARTCHAR wdieresis
ENCODING 7813
SWIDTH 855 0
DWIDTH 9 0
BBX 9 8 0 0
BITMAP
1400
0000
DD80
5500
5500
7700
7700
3600
ENDCHAR
STARTCHAR uni1EA0
ENCODING 7840
SWIDTH 689 0
DWIDTH 8 0
BBX 8 11 0 -3
BITMAP
18
3C
3C
24
66
7E
42
C3
00
18
10
ENDCHAR
STARTCHAR uni1EA1
ENCODING 7841
SWIDTH 604 0
DWIDTH 7 0
BBX 5 9 1 -3
BITMAP
F0
08
F8
88
98
E8
00
60
20
ENDCHAR
STARTCHAR uni1EA2
ENCODING 7842
SWIDTH 689 0
DWIDTH 8 0
BBX 8 12 0 0
BITMAP
18
08
10
00
18
3C
3C
24
66
7E
42
C3
ENDCHAR
STARTCHAR uni1EA3
ENCODING 7843
SWIDTH 604 0
DWIDTH 7 0
BBX 5 10 1 0
BITMAP
70
30
20
00
F0
08
F8
88
98
E8
ENDCHAR
STARTCHAR uni1EA4
ENCODING 7844
SWIDTH 689 0
DWIDTH 8 0
BBX 8 11 0 0
BITMAP
1A
2C
00
18
3C
3C
24
66
7E
42
C3
ENDCHAR
STARTCHAR uni1EA5
ENCODING 7845
SWIDTH 604 0
DWIDTH 7 0
BBX 5 9 1 0
BITMAP
68
50
00
F0
08
F8
88
98
E8
ENDCHAR
STARTCHAR uni1EA6
ENCODING 7846
SWIDTH 689 0
DWIDTH 8 0
BBX 8 11 0 0
BITMAP
58
2C
00
18
3C
3C
24
66
7E
42
C3
ENDCHAR
STARTCHAR uni1EA7
ENCODING 7847
SWIDTH 604 0
DWIDTH 7 0
BBX 6 9 0 0
BITMAP
B0
28
00
78
04
7C
44
4C
74
ENDCHAR
STARTCHAR uni1EA8
ENCODING 7848
SWIDTH 689 0
DWIDTH 8 0
BBX 8 12 0 0
BITMAP
06
1E
2C
00
18
3C
3C
24
66
7E
42
C3
ENDCHAR
STARTCHAR uni1EA9
ENCODING 7849
SWIDTH 604 0
DWIDTH 7 0
BBX 5 10 1 0
BITMAP
08
68
50
00
F0
08
F8
88
98
E8
ENDCHAR
STARTCHAR uni1EAA
ENCODING 7850
SWIDTH 689 0
DWIDTH 8 0
BBX 8 13 0 0
BITMAP
34
28
18
2C
00
18
3C
3C
24
66
7E
42
C3
ENDCHAR
STARTCHAR uni1EAB
ENCODING 7851
SWIDTH 604 0
DWIDTH 7 0
BBX 5 11 1 0
BITMAP
50
B0
60
50
00
F0
08
F8
88
98
E8
ENDCHAR
STARTCHAR uni1EAC
ENCODING 7852
SWIDTH 689 0
DWIDTH 8 0
BBX 8 14 0 -3
BITMAP
18
24
00
18
3C
3C
24
66
7E
42
C3
00
18
10
ENDCHAR
STARTCHAR uni1EAD
ENCODING 7853
SWIDTH 604 0
DWIDTH 7 0
BBX 5 12 1 -3
BITMAP
70
D8
00
F0
08
F8
88
98
E8
00
60
20
ENDCHAR
STARTCHAR uni1EAE
ENCODING 7854
SWIDTH 689 0
DWIDTH 8 0
BBX 8 12 0 0
BITMAP
08
34
38
00
18
3C
3C
24
66
7E
42
C3
ENDCHAR
STARTCHAR uni1EAF
ENCODING 7855
SWIDTH 604 0
DWIDTH 7 0
BBX 5 10 1 0
BITMAP
20
90
70
00
F0
08
F8
88
98
E8
ENDCHAR
STARTCHAR uni1EB0
ENCODING 7856
SWIDTH 689 0
DWIDTH 8 0
BBX 8 12 0 0
BITMAP
10
24
38
00
18
3C
3C
24
66
7E
42
C3
ENDCHAR
STARTCHAR uni1EB1
ENCODING 7857
SWIDTH 604 0
DWIDTH 7 0
BBX 5 10 1 0
BITMAP
40
B0
70
00
F0
08
F8
88
98
E8
ENDCHAR
STARTCHAR uni1EB2
ENCODING 7858
SWIDTH 689 0
DWIDTH 8 0
BBX 8 12 0 0
BITMAP
18
34
38
00
18
3C
3C
24
66
7E
42
C3
ENDCHAR
STARTCHAR uni1EB3
ENCODING 7859
SWIDTH 604 0
DWIDTH 7 0
BBX 5 10 1 0
BITMAP
20
B0
70
00
F0
08
F8
88
98
E8
ENDCHAR
STARTCHAR uni1EB4
ENCODING 7860
SWIDTH 689 0
DWIDTH 8 0
BBX 8 13 0 0
BITMAP
34
28
24
38
00
18
3C
3C
24
66
7E
42
C3
ENDCHAR
STARTCHAR uni1EB5
ENCODING 7861
SWIDTH 604 0
DWIDTH 7 0
BBX 5 11 1 0
BITMAP
50
B0
90
70
00
F0
08
F8
88
98
E8
ENDCHAR
STARTCHAR uni1EB6
ENCODING 7862
SWIDTH 689 0
DWIDTH 8 0
BBX 7 12 0 -2
BITMAP
3C
00
18
38
2C
2C
64
7E
46
C2
00
18
ENDCHAR
STARTCHAR uni1EB7
ENCODING 7863
SWIDTH 604 0
DWIDTH 7 0
BBX 5 12 1 -3
BITMAP
90
70
00
F0
08
F8
88
98
E8
00
60
20
ENDCHAR
STARTCHAR uni1EB8
ENCODING 7864
SWIDTH 560 0
DWIDTH 6 0
BBX 4 11 1 -3
BITMAP
F0
C0
C0
F0
C0
C0
C0
F0
00
60
20
ENDCHAR
STARTCHAR uni1EB9
ENCODING 7865
SWIDTH 590 0
DWIDTH 7 0
BBX 6 9 1 -3
BITMAP
78
88
FC
80
C0
78
00
60
20
ENDCHAR
STARTCHAR uni1EBA
ENCODING 7866
SWIDTH 560 0
DWIDTH 6 0
BBX 4 12 1 0
BITMAP
70
30
20
00
F0
C0
C0
F0
C0
C0
C0
F0
ENDCHAR
STARTCHAR uni1EBB
ENCODING 7867
SWIDTH 590 0
DWIDTH 7 0
BBX 6 10 1 0
BITMAP
70
30
20
00
78
88
FC
80
C0
78
ENDCHAR
STARTCHAR uni1EBC
ENCODING 7868
SWIDTH 560 0
DWIDTH 6 0
BBX 5 11 1 0
BITMAP
48
B0
00
F0
C0
C0
F0
C0
C0
C0
F0
ENDCHAR
STARTCHAR uni1EBD
ENCODING 7869
SWIDTH 590 0
DWIDTH 7 0
BBX 6 9 1 0
BITMAP
68
B0
00
78
88
FC
80
C0
78
ENDCHAR
STARTCHAR uni1EBE
ENCODING 7870
SWIDTH 560 0
DWIDTH 6 0
BBX 5 11 1 0
BITMAP
68
D0
00
F0
C0
C0
F0
C0
C0
C0
F0
ENDCHAR
STARTCHAR uni1EBF
ENCODING 7871
SWIDTH 590 0
DWIDTH 7 0
BBX 6 9 1 0
BITMAP
68
50
00
78
88
FC
80
C0
78
ENDCHAR
STARTCHAR uni1EC0
ENCODING 7872
SWIDTH 560 0
DWIDTH 6 0
BBX 5 11 0 0
BITMAP
B0
28
00
78
60
60
78
60
60
60
78
ENDCHAR
STARTCHAR uni1EC1
ENCODING 7873
SWIDTH 590 0
DWIDTH 7 0
BBX 7 9 0 0
BITMAP
B8
28
00
3C
44
7E
40
60
3C
ENDCHAR
STARTCHAR uni1EC2
ENCODING 7874
SWIDTH 560 0
DWIDTH 6 0
BBX 5 12 1 0
BITMAP
08
68
D0
00
F0
C0
C0
F0
C0
C0
C0
F0
ENDCHAR
STARTCHAR uni1EC3
ENCODING 7875
SWIDTH 590 0
DWIDTH 7 0
BBX 6 10 1 0
BITMAP
08
68
50
00
78
88
FC
80
C0
78
ENDCHAR
STARTCHAR uni1EC4
ENCODING 7876
SWIDTH 560 0
DWIDTH 6 0
BBX 4 13 1 0
BITMAP
50
B0
60
50
00
F0
C0
C0
F0
C0
C0
C0
F0
ENDCHAR
STARTCHAR uni1EC5
ENCODING 7877
SWIDTH 590 0
DWIDTH 7 0
BBX 6 11 1 0
BITMAP
50
B0
60
50
00
78
88
FC
80
C0
78
ENDCHAR
STARTCHAR uni1EC6
ENCODING 7878
SWIDTH 560 0
DWIDTH 6 0
BBX 4 14 1 -3
BITMAP
70
D0
00
F0
C0
C0
F0
C0
C0
C0
F0
00
60
20
ENDCHAR
STARTCHAR uni1EC7
ENCODING 7879
SWIDTH 590 0
DWIDTH 7 0
BBX 6 12 1 -3
BITMAP
70
D0
00
78
88
FC
80
C0
78
00
60
20
ENDCHAR
STARTCHAR uni1EC8
ENCODING 7880
SWIDTH 331 0
DWIDTH 4 0
BBX 2 12 1 0
BITMAP
C0
40
80
00
C0
C0
C0
C0
C0
C0
C0
C0
ENDCHAR
STARTCHAR uni1EC9
ENCODING 7881
SWIDTH 305 0
DWIDTH 3 0
BBX 2 10 1 0
BITMAP
C0
40
80
00
C0
C0
C0
C0
C0
C0
ENDCHAR
STARTCHAR uni1ECA
ENCODING 7882
SWIDTH 331 0
DWIDTH 4 0
BBX 2 11 1 -3
BITMAP
C0
C0
C0
C0
C0
C0
C0
C0
00
C0
80
ENDCHAR
STARTCHAR uni1ECB
ENCODING 7883
SWIDTH 305 0
DWIDTH 3 0
BBX 2 11 1 -3
BITMAP
C0
80
C0
C0
C0
C0
C0
C0
00
C0
80
ENDCHAR
STARTCHAR uni1ECC
ENCODING 7884
SWIDTH 795 0
DWIDTH 9 0
BBX 7 11 1 -3
BITMAP
7C
C6
C6
82
82
C6
C6
7C
00
10
10
ENDCHAR
STARTCHAR uni1ECD
ENCODING 7885
SWIDTH 619 0
DWIDTH 7 0
BBX 5 9 1 -3
BITMAP
70
88
88
88
88
70
00
20
20
ENDCHAR
STARTCHAR uni1ECE
ENCODING 7886
SWIDTH 795 0
DWIDTH 9 0
BBX 7 12 1 0
BITMAP
38
18
10
00
7C
C6
C6
82
82
C6
C6
7C
ENDCHAR
STARTCHAR uni1ECF
ENCODING 7887
SWIDTH 619 0
DWIDTH 7 0
BBX 5 10 1 0
BITMAP
70
30
20
00
70
88
88
88
88
70
ENDCHAR
STARTCHAR uni1ED0
ENCODING 7888
SWIDTH 795 0
DWIDTH 9 0
BBX 7 11 1 0
BITMAP
34
28
00
7C
C6
C6
82
82
C6
C6
7C
ENDCHAR
STARTCHAR uni1ED1
ENCODING 7889
SWIDTH 619 0
DWIDTH 7 0
BBX 5 9 1 0
BITMAP
78
50
00
70
88
88
88
88
70
ENDCHAR
STARTCHAR uni1ED2
ENCODING 7890
SWIDTH 795 0
DWIDTH 9 0
BBX 7 11 1 0
BITMAP
B0
28
00
7C
C6
C6
82
82
C6
C6
7C
ENDCHAR
STARTCHAR uni1ED3
ENCODING 7891
SWIDTH 619 0
DWIDTH 7 0
BBX 6 9 0 0
BITMAP
B8
28
00
38
44
44
44
44
38
ENDCHAR
STARTCHAR uni1ED4
ENCODING 7892
SWIDTH 795 0
DWIDTH 9 0
BBX 7 12 1 0
BITMAP
04
34
28
00
7C
C6
C6
82
82
C6
C6
7C
ENDCHAR
STARTCHAR uni1ED5
ENCODING 7893
SWIDTH 619 0
DWIDTH 7 0
BBX 5 10 1 0
BITMAP
08
78
50
00
70
88
88
88
88
70
ENDCHAR
STARTCHAR uni1ED6
ENCODING 7894
SWIDTH 795 0
DWIDTH 9 0
BBX 7 13 1 0
BITMAP
28
58
30
28
00
7C
C6
C6
82
82
C6
C6
7C
ENDCHAR
STARTCHAR uni1ED7
ENCODING 7895
SWIDTH 619 0
DWIDTH 7 0
BBX 5 11 1 0
BITMAP
50
B0
60
50
00
70
88
88
88
88
70
ENDCHAR
STARTCHAR uni1ED8
ENCODING 7896
SWIDTH 795 0
DWIDTH 9 0
BBX 7 14 1 -3
BITMAP
38
6C
00
7C
C6
C6
82
82
C6
C6
7C
00
10
10
ENDCHAR
STARTCHAR uni1ED9
ENCODING 7897
SWIDTH 619 0
DWIDTH 7 0
BBX 5 12 1 -3
BITMAP
70
58
00
70
88
88
88
88
70
00
20
20
ENDCHAR
STARTCHAR uni1EDA
ENCODING 7898
SWIDTH 825 0
DWIDTH 9 0
BBX 9 11 1 0
BITMAP
1800
1000
0180
7D00
C700
C600
8200
8200
C600
C600
7C00
ENDCHAR
STARTCHAR uni1EDB
ENCODING 7899
SWIDTH 679 0
DWIDTH 7 0
BBX 7 9 1 0
BITMAP
10
20
06
76
88
88
88
88
70
ENDCHAR
STARTCHAR uni1EDC
ENCODING 7900
SWIDTH 825 0
DWIDTH 9 0
BBX 9 11 1 0
BITMAP
3000
1000
0180
7D00
C700
C600
8200
8200
C600
C600
7C00
ENDCHAR
STARTCHAR uni1EDD
ENCODING 7901
SWIDTH 679 0
DWIDTH 7 0
BBX 7 9 1 0
BITMAP
60
20
06
76
88
88
88
88
70
ENDCHAR
STARTCHAR uni1EDE
ENCODING 7902
SWIDTH 825 0
DWIDTH 9 0
BBX 9 12 1 0
BITMAP
3800
0800
1000
0180
7D00
C700
C600
8200
8200
C600
C600
7C00
ENDCHAR
STARTCHAR uni1EDF
ENCODING 7903
SWIDTH 679 0
DWIDTH 7 0
BBX 7 10 1 0
BITMAP
70
10
20
06
76
88
88
88
88
70
ENDCHAR
STARTCHAR uni1EE0
ENCODING 7904
SWIDTH 825 0
DWIDTH 9 0
BBX 9 11 1 0
BITMAP
3400
5800
0180
7D00
C700
C600
8200
8200
C600
C600
7C00
ENDCHAR
STARTCHAR uni1EE1
ENCODING 7905
SWIDTH 679 0
DWIDTH 7 0
BBX 7 9 1 0
BITMAP
68
B0
06
76
88
88
88
88
70
ENDCHAR
STARTCHAR uni1EE2
ENCODING 7906
SWIDTH 825 0
DWIDTH 9 0
BBX 9 12 1 -3
BITMAP
0180
7D00
C700
C600
8200
8200
C600
C600
7C00
0000
1000
1000
ENDCHAR
STARTCHAR uni1EE3
ENCODING 7907
SWIDTH 679 0
DWIDTH 7 0
BBX 7 10 1 -3
BITMAP
06
76
88
88
88
88
70
00
20
20
ENDCHAR
STARTCHAR uni1EE4
ENCODING 7908
SWIDTH 755 0
DWIDTH 8 0
BBX 6 11 1 -3
BITMAP
CC
CC
CC
CC
CC
CC
CC
78
00
30
10
ENDCHAR
STARTCHAR uni1EE5
ENCODING 7909
SWIDTH 657 0
DWIDTH 7 0
BBX 5 9 1 -3
BITMAP
98
98
98
98
D8
E8
00
20
20
ENDCHAR
STARTCHAR uni1EE6
ENCODING 7910
SWIDTH 755 0
DWIDTH 8 0
BBX 6 12 1 0
BITMAP
30
10
10
00
CC
CC
CC
CC
CC
CC
CC
78
ENDCHAR
STARTCHAR uni1EE7
ENCODING 7911
SWIDTH 657 0
DWIDTH 7 0
BBX 5 10 1 0
BITMAP
70
10
20
00
98
98
98
98
D8
E8
ENDCHAR
STARTCHAR uni1EE8
ENCODING 7912
SWIDTH 884 0
DWIDTH 10 0
BBX 8 11 1 0
BITMAP
18
10
01
CD
CE
CC
CC
CC
CC
CC
78
ENDCHAR
STARTCHAR uni1EE9
ENCODING 7913
SWIDTH 759 0
DWIDTH 8 0
BBX 8 9 1 0
BITMAP
18
20
03
9A
9E
98
98
D8
E8
ENDCHAR
STARTCHAR uni1EEA
ENCODING 7914
SWIDTH 884 0
DWIDTH 10 0
BBX 8 11 1 0
BITMAP
60
10
01
CD
CE
CC
CC
CC
CC
CC
78
ENDCHAR
STARTCHAR uni1EEB
ENCODING 7915
SWIDTH 759 0
DWIDTH 8 0
BBX 8 9 1 0
BITMAP
60
20
03
9A
9E
98
98
D8
E8
ENDCHAR
STARTCHAR uni1EEC
ENCODING 7916
SWIDTH 884 0
DWIDTH 10 0
BBX 8 12 1 0
BITMAP
30
10
10
01
CD
CE
CC
CC
CC
CC
CC
78
ENDCHAR
STARTCHAR uni1EED
ENCODING 7917
SWIDTH 759 0
DWIDTH 8 0
BBX 8 10 1 0
BITMAP
30
10
20
03
9A
9E
98
98
D8
E8
ENDCHAR
STARTCHAR uni1EEE
ENCODING 7918
SWIDTH 884 0
DWIDTH 10 0
BBX 8 11 1 0
BITMAP
68
58
01
CD
CE
CC
CC
CC
CC
CC
78
ENDCHAR
STARTCHAR uni1EEF
ENCODING 7919
SWIDTH 759 0
DWIDTH 8 0
BBX 8 9 1 0
BITMAP
68
90
03
9A
9E
98
98
D8
E8
ENDCHAR
STARTCHAR uni1EF0
ENCODING 7920
SWIDTH 884 0
DWIDTH 10 0
BBX 8 12 1 -3
BITMAP
01
CD
CE
CC
CC
CC
CC
CC
78
00
30
10
ENDCHAR
STARTCHAR uni1EF1
ENCODING 7921
SWIDTH 759 0
DWIDTH 8 0
BBX 8 10 1 -3
BITMAP
03
9A
9E
98
98
D8
E8
00
20
20
ENDCHAR
STARTCHAR Ygrave
ENCODING 7922
SWIDTH 624 0
DWIDTH 7 0
BBX 7 11 0 0
BITMAP
20
10
00
C6
6C
6C
38
38
10
10
10
ENDCHAR
STARTCHAR ygrave
ENCODING 7923
SWIDTH 568 0
DWIDTH 6 0
BBX 6 12 0 -3
BITMAP
60
10
00
CC
48
68
78
30
30
30
20
E0
ENDCHAR
STARTCHAR uni1EF4
ENCODING 7924
SWIDTH 624 0
DWIDTH 7 0
BBX 7 11 0 -3
BITMAP
C6
6C
6C
38
38
10
10
10
00
10
10
ENDCHAR
STARTCHAR uni1EF5
ENCODING 7925
SWIDTH 568 0
DWIDTH 6 0
BBX 6 9 0 -3
BITMAP
CC
48
68
78
30
30
30
2C
E4
ENDCHAR
STARTCHAR uni1EF6
ENCODING 7926
SWIDTH 624 0
DWIDTH 7 0
BBX 7 12 0 0
BITMAP
38
18
10
00
C6
6C
6C
38
38
10
10
10
ENDCHAR
STARTCHAR uni1EF7
ENCODING 7927
SWIDTH 568 0
DWIDTH 6 0
BBX 6 13 0 -3
BITMAP
30
10
10
00
CC
48
68
78
30
30
30
20
E0
ENDCHAR
STARTCHAR uni1EF8
ENCODING 7928
SWIDTH 624 0
DWIDTH 7 0
BBX 7 11 0 0
BITMAP
34
58
00
C6
6C
6C
38
38
10
10
10
ENDCHAR
STARTCHAR uni1EF9
ENCODING 7929
SWIDTH 568 0
DWIDTH 6 0
BBX 6 12 0 -3
BITMAP
68
58
00
CC
48
68
78
30
30
30
20
E0
ENDCHAR
STARTCHAR uni1F4D
ENCODING 8013
SWIDTH 835 0
DWIDTH 9 0
BBX 11 8 -2 0
BITMAP
B780
ACC0
1860
1860
1860
1860
0CC0
0780
ENDCHAR
STARTCHAR uni2000
ENCODING 8192
SWIDTH 500 0
DWIDTH 6 0
BBX 1 1 0 0
BITMAP
00
ENDCHAR
STARTCHAR uni2001
ENCODING 8193
SWIDTH 1000 0
DWIDTH 11 0
BBX 1 1 0 0
BITMAP
00
ENDCHAR
STARTCHAR uni2002
ENCODING 8194
SWIDTH 500 0
DWIDTH 6 0
BBX 1 1 0 0
BITMAP
00
ENDCHAR
STARTCHAR uni2003
ENCODING 8195
SWIDTH 1000 0
DWIDTH 11 0
BBX 1 1 0 0
BITMAP
00
ENDCHAR
STARTCHAR uni2004
ENCODING 8196
SWIDTH 333 0
DWIDTH 4 0
BBX 1 1 0 0
BITMAP
00
ENDCHAR
STARTCHAR uni2005
ENCODING 8197
SWIDTH 250 0
DWIDTH 3 0
BBX 1 1 0 0
BITMAP
00
ENDCHAR
STARTCHAR uni2006
ENCODING 8198
SWIDTH 166 0
DWIDTH 2 0
BBX 1 1 0 0
BITMAP
00
ENDCHAR
STARTCHAR uni2007
ENCODING 8199
SWIDTH 559 0
DWIDTH 6 0
BBX 1 1 0 0
BITMAP
00
ENDCHAR
STARTCHAR uni2008
ENCODING 8200
SWIDTH 285 0
DWIDTH 3 0
BBX 1 1 0 0
BITMAP
00
ENDCHAR
STARTCHAR uni2009
ENCODING 8201
SWIDTH 200 0
DWIDTH 2 0
BBX 1 1 0 0
BITMAP
00
ENDCHAR
STARTCHAR uni200A
ENCODING 8202
SWIDTH 100 0
DWIDTH 1 0
BBX 1 1 0 0
BITMAP
00
ENDCHAR
STARTCHAR uni200B
ENCODING 8203
SWIDTH 0 0
DWIDTH 0 0
BBX 1 1 0 0
BITMAP
00
ENDCHAR
STARTCHAR endash
ENCODING 8211
SWIDTH 500 0
DWIDTH 6 0
BBX 6 1 0 3
BITMAP
FC
ENDCHAR
STARTCHAR emdash
ENCODING 8212
SWIDTH 1000 0
DWIDTH 11 0
BBX 11 1 0 3
BITMAP
FFE0
ENDCHAR
STARTCHAR afii00208
ENCODING 8213
SWIDTH 1000 0
DWIDTH 11 0
BBX 11 1 0 3
BITMAP
FFE0
ENDCHAR
STARTCHAR underscoredbl
ENCODING 8215
SWIDTH 411 0
DWIDTH 5 0
BBX 5 2 0 -2
BITMAP
F8
F8
ENDCHAR
STARTCHAR quoteleft
ENCODING 8216
SWIDTH 216 0
DWIDTH 2 0
BBX 2 3 0 5
BITMAP
40
C0
80
ENDCHAR
STARTCHAR quoteright
ENCODING 8217
SWIDTH 216 0
DWIDTH 2 0
BBX 2 3 0 5
BITMAP
40
C0
C0
ENDCHAR
STARTCHAR quotesinglbase
ENCODING 8218
SWIDTH 291 0
DWIDTH 3 0
BBX 2 3 0 -2
BITMAP
40
40
C0
ENDCHAR
STARTCHAR quotereversed
ENCODING 8219
SWIDTH 215 0
DWIDTH 2 0
BBX 2 3 0 5
BITMAP
80
C0
40
ENDCHAR
STARTCHAR quotedblleft
ENCODING 8220
SWIDTH 444 0
DWIDTH 5 0
BBX 5 3 0 5
BITMAP
48
D8
90
ENDCHAR
STARTCHAR quotedblright
ENCODING 8221
SWIDTH 444 0
DWIDTH 5 0
BBX 5 3 0 5
BITMAP
48
D8
D8
ENDCHAR
STARTCHAR quotedblbase
ENCODING 8222
SWIDTH 518 0
DWIDTH 6 0
BBX 5 3 0 -2
BITMAP
48
48
D8
ENDCHAR
STARTCHAR dagger
ENCODING 8224
SWIDTH 516 0
DWIDTH 6 0
BBX 4 8 1 0
BITMAP
60
40
F0
40
40
40
60
60
ENDCHAR
STARTCHAR daggerdbl
ENCODING 8225
SWIDTH 525 0
DWIDTH 6 0
BBX 4 8 1 0
BITMAP
60
60
F0
60
60
F0
40
60
ENDCHAR
STARTCHAR bullet
ENCODING 8226
SWIDTH 375 0
DWIDTH 4 0
BBX 3 3 1 3
BITMAP
C0
E0
C0
ENDCHAR
STARTCHAR ellipsis
ENCODING 8230
SWIDTH 854 0
DWIDTH 9 0
BBX 7 2 1 0
BITMAP
92
92
ENDCHAR
STARTCHAR perthousand
ENCODING 8240
SWIDTH 1280 0
DWIDTH 14 0
BBX 14 8 0 0
BITMAP
6300
D200
D400
D5B8
6AEC
0AEC
12EC
3198
ENDCHAR
STARTCHAR minute
ENCODING 8242
SWIDTH 266 0
DWIDTH 3 0
BBX 1 3 1 5
BITMAP
80
80
80
ENDCHAR
STARTCHAR second
ENCODING 8243
SWIDTH 472 0
DWIDTH 5 0
BBX 3 3 1 5
BITMAP
A0
A0
A0
ENDCHAR
STARTCHAR guilsinglleft
ENCODING 8249
SWIDTH 368 0
DWIDTH 4 0
BBX 3 5 0 1
BITMAP
20
60
C0
60
20
ENDCHAR
STARTCHAR guilsinglright
ENCODING 8250
SWIDTH 368 0
DWIDTH 4 0
BBX 3 5 1 1
BITMAP
80
C0
60
C0
80
ENDCHAR
STARTCHAR exclamdbl
ENCODING 8252
SWIDTH 569 0
DWIDTH 6 0
BBX 5 8 1 0
BITMAP
98
98
90
90
90
00
98
98
ENDCHAR
STARTCHAR fraction
ENCODING 8260
SWIDTH 129 0
DWIDTH 1 0
BBX 5 8 -2 0
BITMAP
08
18
10
30
20
60
40
80
ENDCHAR
STARTCHAR zerosuperior
ENCODING 8304
SWIDTH 378 0
DWIDTH 4 0
BBX 4 5 0 3
BITMAP
60
F0
F0
F0
60
ENDCHAR
STARTCHAR foursuperior
ENCODING 8308
SWIDTH 378 0
DWIDTH 4 0
BBX 4 5 0 3
BITMAP
20
60
A0
F0
20
ENDCHAR
STARTCHAR fivesuperior
ENCODING 8309
SWIDTH 378 0
DWIDTH 4 0
BBX 4 5 0 3
BITMAP
60
40
60
30
E0
ENDCHAR
STARTCHAR sixsuperior
ENCODING 8310
SWIDTH 378 0
DWIDTH 4 0
BBX 4 5 0 3
BITMAP
20
40
F0
90
60
ENDCHAR
STARTCHAR sevensuperior
ENCODING 8311
SWIDTH 378 0
DWIDTH 4 0
BBX 4 5 0 3
BITMAP
F0
20
20
60
40
ENDCHAR
STARTCHAR eightsuperior
ENCODING 8312
SWIDTH 378 0
DWIDTH 4 0
BBX 4 5 0 3
BITMAP
60
F0
60
90
60
ENDCHAR
STARTCHAR ninesuperior
ENCODING 8313
SWIDTH 378 0
DWIDTH 4 0
BBX 4 5 0 3
BITMAP
60
90
F0
30
60
ENDCHAR
STARTCHAR nsuperior
ENCODING 8319
SWIDTH 422 0
DWIDTH 5 0
BBX 3 4 1 4
BITMAP
E0
A0
A0
A0
ENDCHAR
STARTCHAR franc
ENCODING 8355
SWIDTH 570 0
DWIDTH 6 0
BBX 5 8 0 0
BITMAP
78
60
60
78
60
F0
60
60
ENDCHAR
STARTCHAR afii08941
ENCODING 8356
SWIDTH 570 0
DWIDTH 6 0
BBX 6 8 0 0
BITMAP
3C
60
F8
60
F8
60
60
FC
ENDCHAR
STARTCHAR peseta
ENCODING 8359
SWIDTH 892 0
DWIDTH 10 0
BBX 9 8 1 0
BITMAP
F000
D800
CA00
DF80
F200
C200
C200
C380
ENDCHAR
STARTCHAR uni20AB
ENCODING 8363
SWIDTH 648 0
DWIDTH 7 0
BBX 6 10 1 -2
BITMAP
18
3C
F8
98
98
98
D8
F8
00
F8
ENDCHAR
STARTCHAR Euro
ENCODING 8364
SWIDTH 570 0
DWIDTH 6 0
BBX 6 8 0 0
BITMAP
3C
60
F8
60
F0
60
20
3C
ENDCHAR
STARTCHAR afii61248
ENCODING 8453
SWIDTH 794 0
DWIDTH 9 0
BBX 9 8 0 0
BITMAP
6200
8400
8400
6800
1F00
1480
3480
2700
ENDCHAR
STARTCHAR afii61289
ENCODING 8467
SWIDTH 520 0
DWIDTH 6 0
BBX 6 8 0 0
BITMAP
38
68
68
70
E0
6C
68
38
ENDCHAR
STARTCHAR afii61352
ENCODING 8470
SWIDTH 1027 0
DWIDTH 11 0
BBX 10 8 1 0
BITMAP
C800
C800
E800
AB80
AAC0
9B80
9800
9B80
ENDCHAR
STARTCHAR uni2120
ENCODING 8480
SWIDTH 734 0
DWIDTH 8 0
BBX 8 4 0 4
BITMAP
5B
9B
5D
D5
ENDCHAR
STARTCHAR trademark
ENCODING 8482
SWIDTH 749 0
DWIDTH 8 0
BBX 8 4 0 4
BITMAP
FB
5B
55
55
ENDCHAR
STARTCHAR Omega
ENCODING 8486
SWIDTH 786 0
DWIDTH 9 0
BBX 9 8 0 0
BITMAP
3E00
6300
4100
4100
4100
6300
2200
F780
ENDCHAR
STARTCHAR estimated
ENCODING 8494
SWIDTH 619 0
DWIDTH 7 0
BBX 5 6 1 0
BITMAP
70
88
F8
80
88
70
ENDCHAR
STARTCHAR oneeighth
ENCODING 8539
SWIDTH 880 0
DWIDTH 10 0
BBX 9 8 0 0
BITMAP
6200
A400
2400
2B80
2A80
1300
3280
2380
ENDCHAR
STARTCHAR threeeighths
ENCODING 8540
SWIDTH 880 0
DWIDTH 10 0
BBX 9 8 0 0
BITMAP
E200
2200
6400
3F80
EA80
1B80
1280
3380
ENDCHAR
STARTCHAR fiveeighths
ENCODING 8541
SWIDTH 880 0
DWIDTH 10 0
BBX 9 8 0 0
BITMAP
6200
4200
6400
1F80
EA80
1B80
1280
3380
ENDCHAR
STARTCHAR seveneighths
ENCODING 8542
SWIDTH 880 0
DWIDTH 10 0
BBX 9 8 0 0
BITMAP
F200
3400
2C00
6B00
5A80
1300
3680
2380
ENDCHAR
STARTCHAR partialdiff
ENCODING 8706
SWIDTH 581 0
DWIDTH 6 0
BBX 6 8 0 0
BITMAP
38
08
3C
6C
CC
C8
D8
70
ENDCHAR
STARTCHAR Delta
ENCODING 8710
SWIDTH 658 0
DWIDTH 7 0
BBX 7 8 0 0
BITMAP
38
28
28
6C
6C
44
C6
FE
ENDCHAR
STARTCHAR product
ENCODING 8719
SWIDTH 741 0
DWIDTH 8 0
BBX 6 10 1 -2
BITMAP
FC
CC
CC
CC
CC
CC
CC
CC
CC
CC
ENDCHAR
STARTCHAR summation
ENCODING 8721
SWIDTH 630 0
DWIDTH 7 0
BBX 7 10 0 -2
BITMAP
FE
60
30
30
18
18
30
60
60
FE
ENDCHAR
STARTCHAR minus
ENCODING 8722
SWIDTH 570 0
DWIDTH 6 0
BBX 6 1 0 3
BITMAP
FC
ENDCHAR
STARTCHAR radical
ENCODING 8730
SWIDTH 548 0
DWIDTH 6 0
BBX 7 9 0 0
BITMAP
06
04
04
0C
C8
48
30
30
30
ENDCHAR
STARTCHAR infinity
ENCODING 8734
SWIDTH 707 0
DWIDTH 8 0
BBX 6 4 1 2
BITMAP
FC
B4
B4
FC
ENDCHAR
STARTCHAR integral
ENCODING 8747
SWIDTH 412 0
DWIDTH 5 0
BBX 5 11 0 -3
BITMAP
38
30
20
20
20
20
20
20
20
60
E0
ENDCHAR
STARTCHAR approxequal
ENCODING 8776
SWIDTH 570 0
DWIDTH 6 0
BBX 6 4 0 2
BITMAP
64
98
64
98
ENDCHAR
STARTCHAR notequal
ENCODING 8800
SWIDTH 570 0
DWIDTH 6 0
BBX 6 5 0 1
BITMAP
18
FC
30
FC
20
ENDCHAR
STARTCHAR lessequal
ENCODING 8804
SWIDTH 570 0
DWIDTH 6 0
BBX 6 7 0 0
BITMAP
04
18
60
E0
38
0C
FC
ENDCHAR
STARTCHAR greaterequal
ENCODING 8805
SWIDTH 570 0
DWIDTH 6 0
BBX 6 7 0 0
BITMAP
80
60
18
1C
70
C0
FC
ENDCHAR
STARTCHAR lozenge
ENCODING 9674
SWIDTH 583 0
DWIDTH 6 0
BBX 4 8 1 0
BITMAP
60
60
F0
90
90
F0
60
60
ENDCHAR
STARTCHAR ff
ENCODING 64256
SWIDTH 773 0
DWIDTH 9 0
BBX 9 8 0 0
BITMAP
7380
6600
FF00
6600
6600
6600
6600
6600
ENDCHAR
STARTCHAR uniFB01
ENCODING 64257
SWIDTH 691 0
DWIDTH 8 0
BBX 7 8 0 0
BITMAP
76
66
F6
66
66
66
66
66
ENDCHAR
STARTCHAR uniFB02
ENCODING 64258
SWIDTH 691 0
DWIDTH 8 0
BBX 7 8 0 0
BITMAP
76
66
F6
66
66
66
66
66
ENDCHAR
STARTCHAR uniFB03
ENCODING 64259
SWIDTH 1078 0
DWIDTH 12 0
BBX 11 8 0 0
BITMAP
73E0
6660
FF60
6660
6660
6660
6660
6660
ENDCHAR
STARTCHAR uniFB04
ENCODING 64260
SWIDTH 1078 0
DWIDTH 12 0
BBX 11 8 0 0
BITMAP
73E0
6660
FF60
6660
6660
6660
6660
6660
ENDCHAR
STARTCHAR uniFEFF
ENCODING 65279
SWIDTH 0 0
DWIDTH 0 0
BBX 1 1 0 0
BITMAP
00
ENDCHAR
STARTCHAR uniFFFC
ENCODING 65532
SWIDTH 1000 0
DWIDTH 11 0
BBX 11 10 0 -2
BITMAP
D560
8020
8020
B6A0
AEA0
B6A0
8020
8020
8020
D560
ENDCHAR
STARTCHAR uniFFFD
ENCODING 65533
SWIDTH 1000 0
DWIDTH 11 0
BBX 9 10 1 -2
BITMAP
0800
1C00
2200
7B00
FB80
F380
7700
3E00
1400
0800
ENDCHAR
STARTCHAR .notdef
ENCODING -1
SWIDTH 600 0
DWIDTH 7 0
BBX 5 8 1 0
BITMAP
F8
88
88
88
88
88
88
F8
ENDCHAR
STARTCHAR null
ENCODING -1
SWIDTH 0 0
DWIDTH 0 0
BBX 1 1 0 0
BITMAP
00
ENDCHAR
STARTCHAR nonmarkingreturn
ENCODING -1
SWIDTH 509 0
DWIDTH 6 0
BBX 1 1 0 0
BITMAP
00
ENDCHAR
STARTCHAR I.alt
ENCODING -1
SWIDTH 389 0
DWIDTH 4 0
BBX 4 8 0 0
BITMAP
F0
60
60
60
60
60
60
F0
ENDCHAR
STARTCHAR Igrave.alt
ENCODING -1
SWIDTH 389 0
DWIDTH 4 0
BBX 4 11 0 0
BITMAP
60
20
00
F0
60
60
60
60
60
60
F0
ENDCHAR
STARTCHAR Iacute.alt
ENCODING -1
SWIDTH 389 0
DWIDTH 4 0
BBX 4 11 0 0
BITMAP
30
20
00
F0
60
60
60
60
60
60
F0
ENDCHAR
STARTCHAR Icircumflex.alt
ENCODING -1
SWIDTH 389 0
DWIDTH 4 0
BBX 4 11 0 0
BITMAP
70
D0
00
F0
60
60
60
60
60
60
F0
ENDCHAR
STARTCHAR Idieresis.alt
ENCODING -1
SWIDTH 389 0
DWIDTH 4 0
BBX 4 10 0 0
BITMAP
F0
00
F0
60
60
60
60
60
60
F0
ENDCHAR
STARTCHAR Itilde.alt
ENCODING -1
SWIDTH 389 0
DWIDTH 4 0
BBX 4 11 0 0
BITMAP
D0
B0
00
F0
60
60
60
60
60
60
F0
ENDCHAR
STARTCHAR Imacron.alt
ENCODING -1
SWIDTH 389 0
DWIDTH 4 0
BBX 4 10 0 0
BITMAP
F0
00
F0
60
60
60
60
60
60
F0
ENDCHAR
STARTCHAR Ibreve.alt
ENCODING -1
SWIDTH 389 0
DWIDTH 4 0
BBX 4 11 0 0
BITMAP
90
70
00
F0
60
60
60
60
60
60
F0
ENDCHAR
STARTCHAR Iogonek.alt
ENCODING -1
SWIDTH 389 0
DWIDTH 4 0
BBX 4 11 0 -3
BITMAP
F0
60
60
60
60
60
60
F0
40
40
60
ENDCHAR
STARTCHAR Idotaccent.alt
ENCODING -1
SWIDTH 389 0
DWIDTH 4 0
BBX 4 11 0 0
BITMAP
20
60
00
F0
60
60
60
60
60
60
F0
ENDCHAR
STARTCHAR IJ.alt
ENCODING -1
SWIDTH 720 0
DWIDTH 8 0
BBX 7 10 0 -2
BITMAP
F6
66
66
66
66
66
66
F6
06
1C
ENDCHAR
STARTCHAR Iotatonos.alt
ENCODING -1
SWIDTH 512 0
DWIDTH 6 0
BBX 6 8 -1 0
BITMAP
5C
C8
08
08
08
08
08
1C
ENDCHAR
STARTCHAR Iota.alt
ENCODING -1
SWIDTH 389 0
DWIDTH 4 0
BBX 4 8 0 0
BITMAP
F0
60
60
60
60
60
60
F0
ENDCHAR
STARTCHAR Iotadieresis.alt
ENCODING -1
SWIDTH 389 0
DWIDTH 4 0
BBX 4 10 0 0
BITMAP
F0
00
F0
60
60
60
60
60
60
F0
ENDCHAR
STARTCHAR afii10055.alt
ENCODING -1
SWIDTH 389 0
DWIDTH 4 0
BBX 4 8 0 0
BITMAP
F0
60
60
60
60
60
60
F0
ENDCHAR
STARTCHAR afii10056.alt
ENCODING -1
SWIDTH 389 0
DWIDTH 4 0
BBX 4 10 0 0
BITMAP
F0
00
F0
60
60
60
60
60
60
F0
ENDCHAR
STARTCHAR cyrillicbreve
ENCODING -1
SWIDTH 577 0
DWIDTH 6 0
BBX 5 2 1 7
BITMAP
98
F0
ENDCHAR
STARTCHAR caroncommaaccent
ENCODING -1
SWIDTH 500 0
DWIDTH 6 0
BBX 2 2 2 6
BITMAP
C0
80
ENDCHAR
STARTCHAR commaaccent
ENCODING -1
SWIDTH 500 0
DWIDTH 6 0
BBX 2 2 2 -3
BITMAP
C0
80
ENDCHAR
STARTCHAR commaaccentrotate
ENCODING -1
SWIDTH 500 0
DWIDTH 6 0
BBX 2 2 2 7
BITMAP
40
C0
ENDCHAR
STARTCHAR dasiaoxia
ENCODING -1
SWIDTH 250 0
DWIDTH 3 0
BBX 3 2 1 6
BITMAP
A0
A0
ENDCHAR
STARTCHAR uni04C0.alt
ENCODING -1
SWIDTH 389 0
DWIDTH 4 0
BBX 4 8 0 0
BITMAP
F0
60
60
60
60
60
60
F0
ENDCHAR
STARTCHAR uni04CF.alt
ENCODING -1
SWIDTH 389 0
DWIDTH 4 0
BBX 4 8 0 0
BITMAP
F0
60
60
60
60
60
60
F0
ENDCHAR
STARTCHAR uni1EC8.alt
ENCODING -1
SWIDTH 389 0
DWIDTH 4 0
BBX 4 12 0 0
BITMAP
60
20
20
00
F0
60
60
60
60
60
60
F0
ENDCHAR
STARTCHAR uni1ECA.alt
ENCODING -1
SWIDTH 389 0
DWIDTH 4 0
BBX 4 11 0 -3
BITMAP
F0
60
60
60
60
60
60
F0
00
60
20
ENDCHAR
STARTCHAR circumflexacutecomb
ENCODING -1
SWIDTH 0 0
DWIDTH 0 0
BBX 5 2 -5 7
BITMAP
68
B0
ENDCHAR
STARTCHAR circumflexgravecomb
ENCODING -1
SWIDTH 0 0
DWIDTH 0 0
BBX 5 2 -6 7
BITMAP
B0
58
ENDCHAR
STARTCHAR circumflexhookcomb
ENCODING -1
SWIDTH 0 0
DWIDTH 0 0
BBX 5 3 -5 7
BITMAP
18
70
B0
ENDCHAR
STARTCHAR circumflextildecomb
ENCODING -1
SWIDTH 0 0
DWIDTH 0 0
BBX 4 4 -5 7
BITMAP
D0
A0
60
B0
ENDCHAR
STARTCHAR breveacutecomb
ENCODING -1
SWIDTH 0 0
DWIDTH 0 0
BBX 4 3 -5 7
BITMAP
20
D0
E0
ENDCHAR
STARTCHAR brevegravecomb
ENCODING -1
SWIDTH 0 0
DWIDTH 0 0
BBX 4 3 -5 7
BITMAP
40
90
E0
ENDCHAR
STARTCHAR brevehookcomb
ENCODING -1
SWIDTH 0 0
DWIDTH 0 0
BBX 4 3 -5 7
BITMAP
40
D0
E0
ENDCHAR
STARTCHAR brevetildecomb
ENCODING -1
SWIDTH 0 0
DWIDTH 0 0
BBX 4 4 -5 7
BITMAP
D0
A0
90
E0
ENDCHAR
STARTCHAR cyrillichookleft
ENCODING -1
SWIDTH 206 0
DWIDTH 2 0
BBX 2 3 0 -3
BITMAP
40
40
C0
ENDCHAR
STARTCHAR cyrillicbighookUC
ENCODING -1
SWIDTH 291 0
DWIDTH 3 0
BBX 3 5 0 -3
BITMAP
60
60
60
60
C0
ENDCHAR
STARTCHAR cyrillicbighookLC
ENCODING -1
SWIDTH 291 0
DWIDTH 3 0
BBX 3 4 0 -3
BITMAP
60
60
60
C0
ENDCHAR
STARTCHAR one.pnum
ENCODING -1
SWIDTH 480 0
DWIDTH 5 0
BBX 4 8 0 0
BITMAP
30
70
F0
30
30
30
30
30
ENDCHAR
STARTCHAR zero.os
ENCODING -1
SWIDTH 608 0
DWIDTH 7 0
BBX 5 6 1 0
BITMAP
70
88
88
88
88
70
ENDCHAR
STARTCHAR one.os
ENCODING -1
SWIDTH 492 0
DWIDTH 5 0
BBX 3 6 1 0
BITMAP
60
E0
A0
20
20
20
ENDCHAR
STARTCHAR two.os
ENCODING -1
SWIDTH 570 0
DWIDTH 6 0
BBX 6 6 0 0
BITMAP
78
48
18
30
60
FC
ENDCHAR
STARTCHAR three.os
ENCODING -1
SWIDTH 570 0
DWIDTH 6 0
BBX 6 8 0 -2
BITMAP
78
08
08
30
08
0C
08
F8
ENDCHAR
STARTCHAR four.os
ENCODING -1
SWIDTH 570 0
DWIDTH 6 0
BBX 6 8 0 -2
BITMAP
18
18
38
78
58
FC
18
18
ENDCHAR
STARTCHAR five.os
ENCODING -1
SWIDTH 570 0
DWIDTH 6 0
BBX 4 8 1 -2
BITMAP
F0
80
80
F0
10
10
10
E0
ENDCHAR
STARTCHAR six.os
ENCODING -1
SWIDTH 570 0
DWIDTH 6 0
BBX 6 8 0 0
BITMAP
38
60
40
F8
CC
CC
48
38
ENDCHAR
STARTCHAR seven.os
ENCODING -1
SWIDTH 570 0
DWIDTH 6 0
BBX 6 8 0 -2
BITMAP
FC
08
18
18
10
30
20
60
ENDCHAR
STARTCHAR eight.os
ENCODING -1
SWIDTH 570 0
DWIDTH 6 0
BBX 6 8 0 0
BITMAP
78
48
48
78
78
CC
CC
78
ENDCHAR
STARTCHAR nine.os
ENCODING -1
SWIDTH 570 0
DWIDTH 6 0
BBX 6 8 0 -2
BITMAP
70
48
CC
CC
7C
08
18
70
ENDCHAR
STARTCHAR g.alt
ENCODING -1
SWIDTH 632 0
DWIDTH 7 0
BBX 5 9 1 -3
BITMAP
E8
98
88
88
98
E8
18
18
F0
ENDCHAR
STARTCHAR gcircumflex.alt
ENCODING -1
SWIDTH 632 0
DWIDTH 7 0
BBX 5 12 1 -3
BITMAP
70
58
00
E8
98
88
88
98
E8
18
18
F0
ENDCHAR
STARTCHAR gbreve.alt
ENCODING -1
SWIDTH 632 0
DWIDTH 7 0
BBX 5 12 1 -3
BITMAP
98
70
00
E8
98
88
88
98
E8
18
18
F0
ENDCHAR
STARTCHAR gdot.alt
ENCODING -1
SWIDTH 632 0
DWIDTH 7 0
BBX 5 12 1 -3
BITMAP
20
20
00
E8
98
88
88
98
E8
18
18
F0
ENDCHAR
STARTCHAR gcommaaccent.alt
ENCODING -1
SWIDTH 632 0
DWIDTH 7 0
BBX 5 12 1 -3
BITMAP
10
30
00
E8
98
88
88
98
E8
18
18
F0
ENDCHAR
ENDFONT
